<?xml version="1.0" encoding="UTF-8" standalone="no"?>
<!DOCTYPE svg PUBLIC "-//W3C//DTD SVG 1.1//EN" "http://www.w3.org/Graphics/SVG/1.1/DTD/svg11.dtd">
<svg>
<metadata>
Created by FontForge 20110222 at Tue Sep 04 09:44:46 2012

Copyright (c) 2007 M. Hacen, All Rights Reserved / www.hacen.net
</metadata>
<defs>
<font id="HacenTunisiaBold" horiz-adv-x="0">
  <font-face font-family="Hacen Tunisia Bold" font-weight="400" font-stretch="normal" units-per-em="2048" panose-1="2 0 0 0 0 0 0 0 0 0" ascent="1638" descent="-410" x-height="1097" cap-height="1429" bbox="-246 -568 2701 2134.08" underline-thickness="100" underline-position="-700" unicode-range="U+0020-FEFF"/>
<missing-glyph horiz-adv-x="582" d="M5 1257h485v-1107h-485v1107zM76 1186v-966h343v966h-343z"/>
    <glyph glyph-name=".notdef" unicode="ـِّ" horiz-adv-x="582" d="M5 1257h485v-1107h-485v1107zM76 1186v-966h343v966h-343z"/>
    <glyph glyph-name="shaddawithfathatanisolated" unicode="ًّ" d="M398 1823q5 -8 5.5 -12.5t-0.5 -8.5t-1.5 -8.5t3.5 -13.5q12 -32 14.5 -66t-5 -63.5t-25.5 -50.5t-47 -26q-25 -4 -39 3t-31 18q-4 -11 -10.5 -25.5t-18 -28.5t-27 -25.5t-37.5 -16.5q-34 -9 -56 -3.5t-35 20t-17.5 35t-4.5 40.5q0 21 4.5 39.5t9.5 29.5q0 -3 4.5 1.5 t9.5 10.5t10 10.5t5 1.5q-5 -21 -7 -40t2 -32.5t17 -19t38 -0.5q28 5 41 23t17.5 40.5t5.5 46t6 39.5q1 -3 4.5 1t7.5 9t8 9.5t6 1.5q-3 -30 6.5 -54t26 -36.5t38 -11.5t42.5 21q4 10 2 23t-8.5 25.5t-15.5 24.5t-18 21q5 10 14.5 15.5t20 10t20 9.5t15.5 13zM390 2031 l-340 -193l17 91l340 193zM401 1903l-340 -193l17 91l340 193z"/>
    <glyph glyph-name="shaddawithdammatanisolated" unicode="ٌّ" arabic-form="isolated" d="M425 1928q-7 -12 -21 -28.5t-33 -34t-42 -33t-48 -26t-50 -13t-48 6.5q-23 10 -25 27t3 36t11 36t-2 26.5t-36.5 9t-90.5 -17.5q20 23 46.5 37.5t53 18.5t49.5 -1.5t35.5 -20.5t10.5 -40.5t-24 -61.5q48 17 89.5 38t75.5 53q-43 9 -63 27t-23.5 40t8 45t31.5 41.5t46 30 t52 10.5q22 -2 29.5 -21t7 -43t-6 -46.5t-9.5 -31.5l40 -10l-18 -65zM396 1846q13 -15 22.5 -33t17.5 -36q11 -32 13 -66t-6 -63.5t-26.5 -50t-47.5 -24.5q-25 -4 -38.5 3t-30.5 19q-4 -11 -11 -25t-18.5 -28t-27.5 -25.5t-38 -16.5q-34 -8 -56.5 1.5t-36 29.5t-19 46.5 t-6 53t3.5 49t9 33.5q1 -2 5.5 3t10 10.5t10 9.5t4.5 1q-5 -21 -6.5 -47.5t4 -49.5t19.5 -37.5t40 -9.5q28 5 41 23t18 40.5t6.5 45.5t6.5 39q1 -3 4.5 1t8 9t8 9.5t5.5 1.5q-3 -30 6 -54t25.5 -37t38 -12.5t43.5 20.5q4 10 2 23t-8.5 26t-15 25t-17.5 21q11 20 19.5 37.5 t17.5 34.5zM403 2065q-5 5 -12 6.5t-12 1.5q-14 1 -23.5 -7t-9.5 -18q-2 -10 3.5 -16.5t14.5 -11.5t21.5 -9.5t25.5 -9.5q2 17 2 30q0 11 -2 21.5t-8 14.5v-2z"/>
    <glyph glyph-name="shaddawithkasratanisolated" unicode="ٍّ" arabic-form="isolated" d="M370 2050q12 -15 21.5 -33.5t16.5 -36.5q10 -32 11 -66t-7.5 -63t-27.5 -49t-48 -24q-25 -3 -38.5 4t-30.5 20q-4 -11 -11.5 -25t-19 -27.5t-28 -24.5t-38.5 -16q-34 -7 -56.5 3t-35 31t-17.5 48t-4.5 53.5t4.5 49t10 32.5q0 -3 4.5 1.5l10.5 10.5t10.5 10t4.5 1 q-6 -21 -8 -48t3 -50t18.5 -37.5t39.5 -10.5q29 4 42.5 21t19 39.5t7 46t7.5 39.5q1 -3 5 0.5t8.5 9t8 9.5t5.5 1q-4 -29 4 -53.5t24 -38t37 -13.5q22 0 45 20q5 10 3 22.5t-8 25.5t-14.5 25.5t-16.5 21.5q11 20 20 37t19 34zM381 1579l-350 -141l33 75l350 141zM391 1684 l-350 -141l33 75l350 141z"/>
    <glyph glyph-name="shaddawithfathaisolated" unicode="َّ" arabic-form="isolated" d="M398 1823q5 -8 5.5 -12.5t-0.5 -8.5t-1.5 -8.5t3.5 -13.5q12 -32 14.5 -66t-5 -63.5t-25.5 -50.5t-47 -26q-25 -4 -39 3t-31 18q-4 -11 -10.5 -25.5t-18 -28.5t-27 -25.5t-37.5 -16.5q-34 -9 -56 -3.5t-35 20t-17.5 35t-4.5 40.5q0 21 4.5 39.5t9.5 29.5q0 -3 4.5 1.5 t9.5 10.5t10 10.5t5 1.5q-5 -21 -7 -40t2 -32.5t17 -19t38 -0.5q28 5 41 23t17.5 40.5t5.5 46t6 39.5q1 -3 4.5 1t7.5 9t8 9.5t6 1.5q-3 -30 6.5 -54t26 -36.5t38 -11.5t42.5 21q4 10 2 23t-8.5 25.5t-15.5 24.5t-18 21q5 10 14.5 15.5t20 10t20 9.5t15.5 13zM401 1903 l-340 -193l17 91l340 193z"/>
    <glyph glyph-name="shaddawithdammaisolated" unicode="ُّ" arabic-form="isolated" d="M372 1846q13 -15 22.5 -33t17.5 -36q11 -32 13 -66t-6 -63.5t-26.5 -50t-47.5 -24.5q-25 -4 -38.5 3t-30.5 19q-4 -11 -11 -25t-18.5 -28t-27.5 -25.5t-38 -16.5q-34 -8 -56.5 1.5t-36 29.5t-19 47.5t-6 54t3.5 48.5t9 33q0 -3 5 1.5t10.5 10.5t10 10t4.5 1 q-5 -21 -6.5 -47.5t4 -49.5t19.5 -37.5t40 -9.5q28 5 41 23t18 40.5t6.5 45.5t6.5 39q1 -3 4.5 1t8 9t8 9.5t5.5 1.5q-3 -30 6 -54t25.5 -37t38 -12.5t43.5 20.5q4 10 2 23t-8.5 26t-15 25t-17.5 21q11 20 19.5 37.5t17.5 34.5zM347 1915q-11 -18 -37 -41t-61.5 -43.5 t-76.5 -34t-83 -11.5q-57 4 -75 4q-17 0 -12 2q60 20 103 34t77 28t61.5 31t54.5 43q-46 8 -67.5 26.5t-25 40.5t8.5 45t33 42t48.5 30.5t55.5 10.5q23 -1 31 -20t7.5 -43.5t-6.5 -47.5t-10 -33l43 -10l-19 -63zM322 2054q-5 5 -11.5 6.5t-11.5 1.5q-17 1 -26.5 -7 t-10.5 -19q-2 -20 19 -29.5t50 -17.5q2 16 2 30q0 11 -2 22t-9 14v-1z"/>
    <glyph glyph-name="shaddawithkasraisolated" unicode="ِّ" arabic-form="isolated" d="M385 1972q12 -15 21.5 -33.5t16.5 -36.5q10 -32 11 -66t-7.5 -63t-27.5 -49t-48 -24q-25 -3 -38.5 4t-30.5 20q-4 -11 -11.5 -25t-19 -27.5t-28 -24.5t-38.5 -16q-34 -7 -56.5 3t-35 31t-17.5 48t-4.5 53.5t4.5 48.5t10 33q0 -3 4.5 1.5l10.5 10.5t10.5 10t4.5 1 q-6 -21 -8 -48t3 -50t18.5 -37.5t39.5 -10.5q29 4 42.5 21t19 39.5t7 46t7.5 39.5q1 -3 5 0.5t8.5 9t8 9.5t5.5 1q-4 -29 4 -53.5t24 -38t37 -13.5q22 0 45 20q5 10 3 22.5t-8 25.5t-14.5 25.5t-16.5 21.5q11 20 20 37t19 34zM422 1590l-340 -193l17 91l340 193z"/>
    <glyph glyph-name="shaddawithfathamedial" unicode="ـَّ" arabic-form="medial" d="M298 1190q5 -8 5.5 -12.5t-0.5 -8.5t-1.5 -8.5t3.5 -13.5q12 -32 14.5 -66t-5 -63.5t-25.5 -50.5t-47 -26q-25 -4 -39 3t-31 18q-4 -11 -10.5 -25.5t-18 -28.5t-27 -25.5t-37.5 -16.5q-34 -9 -56 -3.5t-35 20t-17.5 35t-4.5 40.5q0 21 4.5 39.5t9.5 29.5q0 -3 4.5 1.5 t9.5 10.5t10 10.5t5 1.5q-5 -21 -7 -40t2 -32.5t17 -19t38 -0.5q28 5 41 23t17.5 40.5t5.5 46t6 39.5q1 -3 4.5 1t7.5 9t8 9.5t6 1.5q-3 -30 6.5 -54t26 -36.5t38 -11.5t42.5 21q4 10 2 23t-8.5 25.5t-15.5 24.5t-18 21q5 10 14.5 15.5t20 10t20 9.5t15.5 13zM301 1270 l-340 -193l17 91l340 193z"/>
    <glyph glyph-name="shaddawithdammamedial" unicode="ـُّ" arabic-form="medial" d="M365 1238q13 -15 22.5 -33t17.5 -36q11 -32 13 -66t-6 -63.5t-26.5 -50t-47.5 -24.5q-25 -4 -38.5 3t-30.5 19q-4 -11 -11 -25t-18.5 -28t-27.5 -25.5t-38 -16.5q-34 -8 -56.5 1.5t-36 29.5t-19 47.5t-6 54t3.5 48.5t9 33q0 -3 5 1.5t10.5 10.5t10 10t4.5 1 q-5 -21 -6.5 -47.5t4 -49.5t19.5 -37.5t40 -9.5q28 5 41 23t18 40.5t6.5 45.5t6.5 39q1 -3 4.5 1t8 9t8 9.5t5.5 1.5q-3 -30 6 -54t25.5 -37t38 -12.5t43.5 20.5q4 10 2 23t-8.5 26t-15 25t-17.5 21q11 20 19.5 37.5t17.5 34.5zM340 1307q-11 -18 -37 -41t-61.5 -43.5 t-76.5 -34t-83 -11.5q-57 4 -75 4q-17 0 -12 2q60 20 103 34t77 28t61.5 31t54.5 43q-46 8 -67.5 26.5t-25 40.5t8.5 45t33 42t48.5 30.5t55.5 10.5q23 -1 31 -20t7.5 -43.5t-6.5 -47.5t-10 -33l43 -10l-19 -63zM315 1446q-5 5 -11.5 6.5t-11.5 1.5q-17 1 -26.5 -7 t-10.5 -19q-2 -20 19 -29.5t50 -17.5q2 16 2 30q0 11 -2 22t-9 14v-1z"/>
    <glyph glyph-name="allahisolated" unicode="ﻟﻠﻪ" horiz-adv-x="2039" arabic-form="isolated" d="M1172 1066h247v-675h276v966h247v-1079q1 -3 1 -6v-5q0 -26 -10 -48.5t-27 -39.5t-40 -26.5t-48 -9.5h-1053q-29 0 -52 10.5t-39.5 28.5t-25 42t-8.5 51l-2 490q-41 0 -82 0.5t-82 0.5q-33 0 -63 -13.5t-52.5 -36t-35.5 -52.5t-13 -63l-1 -208q19 -3 45.5 -7t55 -7 t55.5 -5t46 -2v-248q-38 0 -85 4t-94.5 10.5t-92.5 15t-79 18.5l1 -1q-42 9 -70 43t-28 79v308q0 85 32 160t88 131t130.5 88.5t160.5 32.5h259q30 0 57 -11.5t48 -32t33.5 -47t12.5 -56.5l3 -475h285v675zM1509 1240q0 -26 -7.5 -42t-20 -25.5t-28 -13t-31.5 -3.5h-258 q-43 0 -64.5 19.5t-21.5 64.5v151q0 15 10.5 25t25.5 10h37q16 0 26 -10t10 -25v-126h51v126q0 15 11 25t26 10h37q15 0 25.5 -10t10.5 -25v-126h51v126q0 15 10.5 25t26.5 10h37q14 0 25 -10t11 -25v-151z"/>
    <glyph glyph-name="fathamedial" unicode="ـَ" arabic-form="medial" d="M396 1157q-97 -52 -191.5 -102.5t-191.5 -102.5q5 24 8 39.5t7 37.5q99 52 191.5 101.5t191.5 102.5z"/>
    <glyph glyph-name="dammamedial" unicode="ـُ" arabic-form="medial" d="M360 1221q-11 -23 -37.5 -52.5t-62.5 -55t-78.5 -42.5t-85.5 -15q-29 2 -47.5 3t-28.5 2t-12.5 1.5t-0.5 1.5q61 25 105.5 43t79 36t62.5 39.5t56 54.5q-47 11 -69 34t-25.5 51t9 57.5t34 53.5t49.5 39t56 13q16 -1 25 -12.5t12.5 -29t2.5 -39t-3.5 -41.5t-6.5 -36.5 t-7 -24.5l44 -13l-19 -80zM335 1398q-5 6 -12 8t-12 2q-17 2 -27 -8.5t-11 -24.5q-2 -25 20 -37t51 -23q2 20 2 38q0 15 -2 28.5t-9 18.5v-2z"/>
    <glyph glyph-name="kasramedial" unicode="ـِ" arabic-form="medial" d="M392 506q-97 -52 -191.5 -102.5t-191.5 -102.5q5 23 8 39t7 38q99 52 191.5 101.5t191.5 102.5z"/>
    <glyph glyph-name="shaddamedial" unicode="ـّ" arabic-form="medial" d="M386 1293q11 -17 17.5 -36t11.5 -38q6 -33 3 -67t-15 -62t-33 -45.5t-51 -17.5q-25 0 -37.5 9t-27.5 23q-6 -10 -15 -23t-22 -25t-31 -21t-40 -11q-35 -3 -56 10t-31 35t-11.5 49.5t2 53.5t10.5 47.5t14 31.5q0 -3 5 1t11.5 9t11.5 8.5t5 0.5q-8 -20 -13.5 -46.5t-3 -50 t14 -39.5t37.5 -15q28 0 43.5 15.5t24 37t13 44.5t12.5 38q1 -3 5.5 0.5t9 8t9 8t5.5 0.5q-8 -29 -2.5 -54t19.5 -40t35.5 -18t46.5 14q6 9 5.5 22t-4.5 26.5t-11 27t-14 23.5q13 18 24.5 34t22.5 32z"/>
    <glyph glyph-name="lamwithalefmaddaaboveisolatedd" unicode="ﻟﺂ" horiz-adv-x="1012" arabic-form="isolated" d="M167 264q71 8 127.5 18t103.5 21q-1 38 -4.5 81t-8.5 88q-15 89 -43 184t-71 188t-99.5 179.5t-128.5 157.5l174 175q89 -89 158.5 -192t120.5 -213t84 -223t50 -220q2 -15 3.5 -25t3 -19.5t2.5 -20t2 -26.5q23 29 37.5 70.5t18.5 95.5v774h247v-790 q-8 -112 -34.5 -190.5t-71.5 -133.5t-107.5 -90t-141.5 -59t-174.5 -41t-205.5 -35zM44 1400q-8 -2 -13.5 4.5t-5.5 14.5l3 49q0 11 6 17.5t14 8.5l384 68q17 3 19 -19l-3 -49q0 -9 -6 -17t-14 -9z"/>
    <glyph glyph-name="lamwithalefmaddaabovefinal" unicode="ﻠﺂ" horiz-adv-x="1076" arabic-form="final" d="M1091 143h-270q-45 0 -76 25q-57 -29 -122 -52t-134 -41t-140 -32t-138 -25l-42 246q70 8 127.5 18t103.5 21q-1 37 -4.5 81.5t-8.5 87.5q-15 89 -43 184t-71 188t-99.5 179.5t-128.5 157.5l174 175q89 -89 158.5 -192t120.5 -213t84 -223t50 -220q5 -25 7.5 -49.5 t4.5 -51.5q14 7 22 11.5t13.5 7.5t9 5t8.5 5v921h247v-966h147v-248zM44 1400q-8 -2 -13.5 4.5t-5.5 14.5l3 49q0 11 6 17.5t14 8.5l384 68q17 3 19 -19l-3 -49q0 -9 -6 -17t-14 -9z"/>
    <glyph glyph-name="lamwithalefhamzaaboveisolatedd" unicode="ﻟﺄ" horiz-adv-x="1012" arabic-form="isolated" d="M167 264q71 8 127.5 18t104.5 21q-1 38 -4.5 81t-9.5 88q-15 89 -43 184t-70.5 188t-99.5 179.5t-128 157.5l174 175q88 -89 157.5 -192t120.5 -213t84 -223t50 -220q2 -15 3.5 -25t3 -19.5t2.5 -20t2 -26.5q23 29 37.5 70.5t18.5 95.5v774h247v-790 q-8 -112 -34.5 -190.5t-71.5 -133.5t-107.5 -90t-141.5 -59t-174.5 -41t-205.5 -35zM309 1533q-5 11 -6.5 23t-1.5 24q0 25 8 48.5t23.5 42t39 29.5t53.5 11h111v-83l-111 1q-27 0 -39 -15.5t-12 -33.5q0 -17 11 -31t35 -16h125v-83h-274v83h38z"/>
    <glyph glyph-name="lamwithalefhamzaabovefinal" unicode="ﻠﺄ" horiz-adv-x="1076" arabic-form="final" d="M1091 143h-270q-45 0 -76 25q-57 -29 -122 -52t-134 -41t-140 -32t-138 -25l-42 246q71 8 128 18t104 21q-1 37 -4.5 81.5t-9.5 87.5q-15 89 -43 184t-70.5 188t-99.5 179.5t-128 157.5l174 175q88 -89 157.5 -192t120.5 -213t84 -223t50 -220q5 -25 7.5 -49.5t4.5 -51.5 q14 7 22.5 11.5t13.5 7.5t8.5 5t8.5 5v921h247v-966h147v-248zM309 1533q-5 11 -6.5 23t-1.5 24q0 25 8 48.5t23.5 42t39 29.5t53.5 11h111v-83l-111 1q-27 0 -39 -15.5t-12 -33.5q0 -17 11 -31t35 -16h125v-83h-274v83h38z"/>
    <glyph glyph-name="lamwithalefhamzabelowisolated" unicode="ﻟﺈ" horiz-adv-x="1012" arabic-form="isolated" d="M167 264q71 8 127.5 18t104.5 21q-1 38 -4.5 81t-9.5 88q-15 89 -43 184t-70.5 188t-99.5 179.5t-128 157.5l174 175q88 -89 157.5 -192t120.5 -213t84 -223t50 -220q2 -15 3.5 -25t3 -19.5t2.5 -20t2 -26.5q23 29 37.5 70.5t18.5 95.5v774h247v-790 q-8 -112 -34.5 -190.5t-71.5 -133.5t-107.5 -90t-141.5 -59t-174.5 -41t-205.5 -35zM175 -252q-5 11 -6.5 23t-1.5 24q0 25 8 48.5t23.5 42t39 29.5t53.5 11h111v-83l-111 1q-27 0 -39 -15.5t-12 -33.5q0 -17 11 -31t35 -16h125v-83h-274v83h38z"/>
    <glyph glyph-name="lamwithalefhamzabelowfinal" unicode="ﻠﺈ" horiz-adv-x="1076" arabic-form="final" d="M1091 143h-270q-45 0 -76 25q-57 -29 -122 -52t-134 -41t-140 -32t-138 -25l-42 246q71 8 128 18t104 21q-1 37 -4.5 81.5t-9.5 87.5q-15 89 -43 184t-70.5 188t-99.5 179.5t-128 157.5l174 175q88 -89 157.5 -192t120.5 -213t84 -223t50 -220q5 -25 7.5 -49.5t4.5 -51.5 q14 7 22.5 11.5t13.5 7.5t8.5 5t8.5 5v921h247v-966h147v-248zM175 -252q-5 11 -6.5 23t-1.5 24q0 25 8 48.5t23.5 42t39 29.5t53.5 11h111v-83l-111 1q-27 0 -39 -15.5t-12 -33.5q0 -17 11 -31t35 -16h125v-83h-274v83h38z"/>
    <glyph glyph-name="lamwithalefisolated" unicode="ﻟﺎ" horiz-adv-x="1012" arabic-form="isolated" d="M167 264q71 8 127.5 18t104.5 21q-1 38 -4.5 81t-9.5 88q-15 89 -43 184t-70.5 188t-99.5 179.5t-128 157.5l174 175q88 -89 157.5 -192t120.5 -213t84 -223t50 -220q2 -15 3.5 -25t3 -19.5t2.5 -20t2 -26.5q23 29 37.5 70.5t18.5 95.5v774h247v-790 q-8 -112 -34.5 -190.5t-71.5 -133.5t-107.5 -90t-141.5 -59t-174.5 -41t-205.5 -35z"/>
    <glyph glyph-name="lamwithaleffinal" unicode="ﻠﺎ" horiz-adv-x="1076" arabic-form="final" d="M1091 143h-270q-45 0 -76 25q-57 -29 -122 -52t-134 -41t-140 -32t-138 -25l-42 246q71 8 128 18t104 21q-1 37 -4.5 81.5t-9.5 87.5q-14 89 -42.5 184t-71.5 188t-99.5 179.5t-127.5 157.5l174 175q88 -89 157.5 -192t120.5 -213t84 -223t50 -220q4 -25 7 -49.5t5 -51.5 q14 7 22.5 11.5t13.5 7.5t8.5 5t8.5 5v921h247v-966h147v-248z"/>
    <glyph glyph-name="bullet_ara" unicode="ﳴ" arabic-form="medial" d="M424 1178q-11 -23 -37.5 -52.5t-62.5 -55t-78.5 -42.5t-85.5 -15q-29 2 -47.5 3t-28.5 2t-12.5 1.5t-0.5 1.5q61 25 105.5 43t79 36t62.5 39.5t56 54.5q-47 11 -69 34t-25.5 51t9 57.5t34 53.5t49.5 38.5t56 13.5q16 -1 25 -12.5t12.5 -29t2.5 -39t-3.5 -41.5t-6.5 -36.5 t-7 -24.5l44 -13l-19 -80zM399 1355q-5 6 -12 8t-12 2q-17 2 -27 -8.5t-11 -24.5q-2 -25 20 -37t51 -23q2 20 2 38q0 15 -2 28.5t-9 18.5v-2z"/>
    <glyph glyph-name="fathatanisolated" unicode="ﹰ" arabic-form="isolated" d="M389 1675l-340 -193l17 91l340 193zM403 1842l-340 -193l17 91l340 193z"/>
    <glyph glyph-name="fathatanabove" unicode="ﹱ" arabic-form="medial" d="M383 1154q-97 -52 -191 -102.5t-191 -102.5q5 23 8 39t7 38q99 52 191.5 101.5t191.5 102.5zM416 1345q-97 -52 -191.5 -102.5t-191.5 -102.5q5 23 8.5 38.5t7.5 38.5q99 52 191 101.5t191 102.5z"/>
    <glyph glyph-name="dammatanisolated" unicode="ﹲ" arabic-form="isolated" d="M409 1632q-6 -14 -19.5 -33.5t-32 -40t-40.5 -39.5t-45.5 -31t-47.5 -15t-46 8t-24 31.5t3 42t10.5 42t-2 32t-34.5 10.5t-86 -20q19 27 44.5 43.5t50.5 22t47 -1t34 -24.5t10.5 -48t-23.5 -72q46 20 85.5 44t71.5 62q-41 10 -60.5 31.5t-22 47.5t8 53t30 49.5t44 36 t49.5 12.5q21 -2 28 -24.5t6.5 -51t-6 -55.5t-8.5 -37l38 -12l-17 -76zM388 1793q-10 10 -23 10q-14 1 -22.5 -8.5t-8.5 -21.5q-2 -11 3 -19t14 -14t20.5 -11.5t24.5 -11.5q2 19 2 35q0 14 -2.5 26.5t-7.5 16.5v-2z"/>
    <glyph glyph-name="kasratanisolated" unicode="ﹴ" arabic-form="isolated" d="M384 -83q-97 -52 -191.5 -102.5t-191.5 -102.5q5 23 8 38.5t7 38.5q99 52 191.5 101.5t191.5 102.5zM416 107q-97 -52 -191.5 -102.5t-191.5 -102.5q5 24 8.5 39.5t7.5 38.5q99 52 191 101t191 102z"/>
    <glyph glyph-name="fathaisolated" unicode="ﹶ" arabic-form="isolated" d="M396 1583q-97 -52 -191.5 -102.5t-191.5 -102.5q5 24 8 39.5t7 37.5q99 52 191.5 101.5t191.5 102.5z"/>
    <glyph glyph-name="dammaisolated" unicode="ﹸ" arabic-form="isolated" d="M366 1664q-11 -23 -37.5 -52.5t-62.5 -55t-78.5 -42.5t-85.5 -15q-29 2 -47.5 3t-28.5 2t-12.5 1.5t-0.5 1.5q61 25 105.5 43t79 36t62.5 39.5t56 54.5q-47 11 -69 34t-25.5 51t9 57.5t34 53.5t49.5 38.5t56 13.5q16 -1 25 -12.5t12.5 -29t2.5 -39t-3.5 -41.5t-6.5 -36.5 t-7 -24.5l44 -13l-19 -80zM341 1841q-5 6 -12 8t-12 2q-17 2 -27 -8.5t-11 -24.5q-2 -25 20 -37t51 -23q2 20 2 38q0 15 -2 28.5t-9 18.5v-2z"/>
    <glyph glyph-name="kasraisolated" unicode="ﹺ" arabic-form="isolated" d="M392 -363q-97 -52 -191.5 -102.5t-191.5 -102.5q5 23 8 39t7 38q99 52 191.5 101.5t191.5 102.5z"/>
    <glyph glyph-name="shaddaisolated" unicode="ﹼ" arabic-form="isolated" d="M398 1823q11 -17 17.5 -36t11.5 -38q6 -33 3 -67t-15 -62t-33 -45.5t-51 -17.5q-25 0 -37.5 9t-27.5 23q-6 -10 -15 -23t-22 -25t-31 -21t-40 -11q-35 -3 -56 10t-31 35t-11.5 49.5t2 53.5t10.5 47.5t14 31.5q0 -3 5 1t11.5 9t11.5 8.5t5 0.5q-8 -20 -13.5 -46.5t-3 -50 t14 -39.5t37.5 -15q28 0 43.5 15.5t24 37t13 44.5t12.5 38q1 -3 5.5 0.5t9 8t9 8t5.5 0.5q-8 -29 -2.5 -54t19.5 -40t35.5 -18t46.5 14q6 9 5.5 22t-4.5 26.5t-11 27t-14 23.5q13 18 24.5 34t22.5 32z"/>
    <glyph glyph-name="sukunisolated" unicode="ﹾ" arabic-form="isolated" d="M347 1696q5 -34 -10 -71.5t-41 -87.5v1q0 1 1 2l-3 -5h1h-1q-24 -14 -61.5 -26.5t-74 -15t-65 11t-34.5 51.5q-5 33 3.5 75.5t27 81.5t46 67t59.5 33q28 4 54 -6.5t46.5 -28.5t34.5 -40.5t17 -41.5zM283 1628q-3 14 -13.5 30t-25 29.5t-31.5 22t-35 5.5q-30 -5 -44 -27 t-11 -45q3 -22 21 -32.5t42 -11t50 6.5t46 21zM295 1536h1h-1z"/>
    <glyph glyph-name="logo" unicode="ﹿ" horiz-adv-x="2797" arabic-form="medial" d="M90 727h2611v-504h-2611v504zM1364 886q-21 -12 -45 -26t-49.5 -25.5t-50.5 -19.5t-49 -8q-31 0 -55.5 20.5t-43.5 65.5q-17 -12 -30 -20.5t-25.5 -15.5t-25.5 -12t-30 -11q-18 -6 -32 -6q-17 0 -33 11.5t-16 33.5q0 7 2.5 15t6.5 17q18 40 49 76.5t68.5 64t77.5 44 t76 16.5q27 0 48 -16t21 -52q0 -14 -9.5 -30.5t-27.5 -36.5q-20 -20 -35 -44.5t-15 -46.5q0 -15 9 -21.5t23 -6.5q21 0 49.5 10t56.5 23t51.5 25.5t33.5 18.5q8 37 32.5 68.5t55.5 54.5t63.5 36.5t57.5 13.5q14 0 20 -5t6 -13q0 -10 -11 -20.5t-30 -12.5q-19 -7 -44 -19 t-47.5 -30t-38 -41t-15.5 -52q0 -32 16.5 -45t42.5 -13t59 10t64.5 23.5t58 27.5t41.5 21q0 36 19 71t48.5 62.5t66.5 44t73 16.5q22 0 36.5 -4.5t22 -11t10.5 -15t3 -15.5q0 -26 -29 -52t-67 -49t-74.5 -40.5t-52.5 -25.5q16 -23 41 -33.5t57 -10.5q30 0 64.5 8.5t70 23.5 t70 35.5t64.5 43.5q19 14 38 32t40 33q4 3 13 8t19.5 10.5t21.5 9t20 3.5q15 0 15 -13q0 -5 -4 -16.5t-10 -22.5q-16 -45 -25.5 -75t-11.5 -47q0 -5 6 -5q7 0 20 6.5t29.5 16t34 22t32.5 24.5q4 2 23 15t43 27.5t48 26.5t38 12q12 0 12 -12q-3 -29 -3 -57q0 -12 1 -24.5 t4.5 -22t10 -15.5t17.5 -6q17 0 31 5.5t27 13.5t25.5 18t27.5 19l8 -21q-12 -9 -30 -25t-38.5 -31.5t-42.5 -27t-42 -11.5q-15 0 -25 6t-15 15t-7 19t-2 19t1 18.5t1 17.5q0 11 -3.5 21t-14.5 10q-10 0 -27.5 -9.5t-38.5 -24t-45 -31t-48 -31t-46 -24.5t-40 -10q-11 2 -22 8 t-11 19q0 23 4.5 44.5t18.5 62.5q0 1 -15.5 -10t-43 -28t-64 -37t-77 -37.5t-83 -29t-82.5 -11.5q-41 0 -76.5 16.5t-49.5 46.5q-19 -8 -47.5 -22t-62 -27.5t-68.5 -23t-66 -9.5q-35 0 -61.5 16.5t-35.5 60.5zM524 1295q8 37 25.5 64t46.5 27q10 0 19.5 -3.5t9.5 -17.5 q0 -9 -8 -24.5t-17 -28.5l-97 -192q105 5 209 36t189 97q35 31 61.5 43.5t43.5 12.5q25 0 25 -21q0 -19 -23 -47.5t-73 -54.5q-33 -34 -63 -72t-54 -82t-40 -96t-20 -115q0 -19 -15 -19q-12 0 -18 13.5t-6 45.5q0 73 22.5 140.5t56.5 124.5q-76 -25 -155 -36.5t-161 -11.5 l-80 -160q-15 -31 -39 -54t-56 -23q-24 0 -50 18.5t-47 49t-35 68.5t-14 77q0 34 16.5 56.5t54.5 22.5q6 0 12 -0.5t13 -1.5q46 -5 92.5 -10t94.5 -5zM1103 265h91v320l318 -320h109v421h-91v-320l-313 320h-114v-421zM1709 265h430v76h-331v108h299v75h-299v87h322v75h-421 v-421zM2202 686v-77h183v-344h89v344h183v77h-455zM427 1080q-108 3 -214 21q-13 -10 -13 -35q0 -23 9.5 -52.5t25.5 -56t36 -45t40 -18.5q15 0 29 12t26 40zM1183 1059q-5 1 -10 1h-10q-36 0 -70.5 -17t-65 -43.5t-56 -58.5t-43.5 -61q41 0 77.5 16.5t68.5 42t59 57.5 t50 63zM880 390v-125h126v125h-126zM1914 1091q-50 -5 -99 -38t-78 -99q40 17 73.5 34t58.5 33t39 30t14 25q0 10 -8 15z"/>
    <glyph glyph-name="hamzaisolated" unicode="ء" horiz-adv-x="1002" arabic-form="isolated" d="M93 143v248h100q-8 24 -11 49t-3 51q0 65 24 128t71 112.5t117 80t162 30.5h336v-249l-336 1q-33 0 -56.5 -9t-39.5 -23t-23.5 -33t-7.5 -38q0 -37 27 -66.5t87 -33.5h376v-248h-823z"/>
    <glyph glyph-name="alefwithmaddaaboveisolated" unicode="آ" horiz-adv-x="506" arabic-form="isolated" d="M373 145h-247v1174l247 42v-1216zM44 1400q-8 -2 -13.5 4.5t-5.5 14.5l3 49q0 11 6 17.5t14 8.5l384 68q17 3 19 -19l-3 -49q0 -9 -6 -17t-14 -9z"/>
    <glyph glyph-name="alefwithmaddaabovefinal" unicode="آ" horiz-adv-x="516" arabic-form="final" d="M524 143h-315q-26 0 -48.5 9.5t-39.5 26.5t-27 39.5t-10 48.5q0 2 -0.5 4t1.5 7v1036l247 47v-970h192v-248zM44 1400q-8 -2 -13.5 4.5t-5.5 14.5l3 49q0 11 6 17.5t14 8.5l384 68q17 3 19 -19l-3 -49q0 -9 -6 -17t-14 -9z"/>
    <glyph glyph-name="alefwithhamzaaboveisolated" unicode="أ" horiz-adv-x="506" arabic-form="isolated" d="M373 145h-247v1212h247v-1212zM151 1533q-5 11 -6.5 23t-1.5 24q0 25 8 48.5t23.5 42t39 29.5t53.5 11h111v-83l-111 1q-27 0 -39 -15.5t-12 -33.5q0 -17 11 -31t35 -16h125v-83h-274v83h38z"/>
    <glyph glyph-name="alefwithhamzaabovefinal" unicode="أ" horiz-adv-x="521" arabic-form="final" d="M525 143h-315q-26 0 -48.5 9.5t-39.5 26.5t-27 39.5t-10 48.5q0 2 -0.5 4t1.5 7v1079h247v-966h192v-248zM96 1533q-5 11 -6.5 23t-1.5 24q0 25 8 48.5t23.5 42t39 29.5t53.5 11h111v-83l-111 1q-27 0 -39 -15.5t-12 -33.5q0 -17 11 -31t35 -16h125v-83h-274v83h38z"/>
    <glyph glyph-name="wawwithhamzaaboveisolated" unicode="ؤ" horiz-adv-x="962" arabic-form="isolated" d="M731 1013q32 0 59.5 -12t48 -32.5t32.5 -48.5t12 -60q-1 -24 -0.5 -64.5t0.5 -89.5q0 -48 0.5 -100t0 -97t-2 -79t-3.5 -48q-7 -210 -50.5 -348.5t-120.5 -220.5t-185 -115.5t-243 -33.5v248q149 0 230.5 57t100.5 175q-49 -7 -110 -12.5t-123.5 2t-121.5 32.5t-104 78 t-70 140t-19 217q0 85 32 160t87.5 131t130.5 88.5t160 32.5h259zM638 765q-42 0 -83 0.5t-83 0.5q-33 0 -62.5 -13.5t-52 -36t-35.5 -52.5t-13 -63q-4 -71 2.5 -117.5t26.5 -74t54 -39.5t84 -15q54 1 87 6t50.5 20.5t23.5 45t6 79.5zM336 1231q-6 14 -9 30.5t-3 33.5 q0 33 12.5 65t36.5 57t59.5 40.5t82.5 15.5h170v-113l-170 1q-42 0 -60.5 -21t-18.5 -45t17 -43t54 -21h193v-113h-422v113h58z"/>
    <glyph glyph-name="wawwithhamzaabovefinal" unicode="ؤ" horiz-adv-x="1042" arabic-form="final" d="M859 143q-23 -99 -66 -186.5t-112 -152.5t-168 -102.5t-234 -37.5v248q149 0 230.5 57t100.5 175q-49 -7 -110 -12.5t-123.5 2t-121.5 32.5t-104 78t-70 140t-19 217q0 85 32 160t87.5 131t130.5 88.5t160 32.5h259q32 0 59.5 -12t48 -32.5t32.5 -48.5t12 -60 q0 -36 1 -75t3 -83q2 -48 4 -102t2 -106q0 -26 -0.5 -51.5t-1.5 -51.5h154v-248h-186zM638 765q-42 0 -83 0.5t-83 0.5q-33 0 -62.5 -13.5t-52 -36t-35.5 -52.5t-13 -63q-4 -71 2.5 -117.5t26.5 -74t54 -39.5t84 -15q54 1 87 6t50.5 20.5t23.5 45t6 79.5zM336 1231 q-6 14 -9 30.5t-3 33.5q0 33 12.5 65t36.5 57t59.5 40.5t82.5 15.5h170v-113l-170 1q-42 0 -60.5 -21t-18.5 -45t17 -43t54 -21h193v-113h-422v113h58z"/>
    <glyph glyph-name="alefwithhamzabelowisolated" unicode="إ" horiz-adv-x="506" arabic-form="isolated" d="M373 145h-247v1212h247v-1212zM151 -137q-5 11 -6.5 23t-1.5 24q0 25 8 48.5t23.5 42t39 29.5t53.5 11h111v-83l-111 1q-27 0 -39 -15.5t-12 -33.5q0 -17 11 -31t35 -16h125v-83h-274v83h38z"/>
    <glyph glyph-name="alefwithhamzabelowfinal" unicode="إ" horiz-adv-x="531" arabic-form="final" d="M540 143h-316q-26 0 -48.5 9.5t-39 26.5t-26.5 39.5t-10 48.5q0 2 -0.5 4t1.5 7v1079h247v-966h192v-248zM151 -137q-5 11 -6.5 23t-1.5 24q0 25 8 48.5t23.5 42t39 29.5t53.5 11h111v-83l-111 1q-27 0 -39 -15.5t-12 -33.5q0 -17 11 -31t35 -16h125v-83h-274v83h38z"/>
    <glyph glyph-name="yehwithhamzaaboveisolated" unicode="ئ" horiz-adv-x="1148" arabic-form="isolated" d="M342 417q-20 -25 -33 -56t-17 -62.5t3 -61.5t27 -52.5t54.5 -35t85.5 -10.5h286q51 0 69 23t18 54q0 29 -10.5 49.5t-30 35.5t-47.5 26.5t-62 23.5q-56 19 -109.5 41t-95 58t-67 92t-25.5 143q0 100 35.5 171t93.5 116.5t131.5 66.5t148.5 21t150.5 -20.5t136.5 -53.5 l-120 -217q-38 20 -82.5 32t-86.5 12q-32 0 -61 -6.5t-51 -21.5t-35 -40.5t-13 -64.5q0 -19 11 -33t29 -24.5t40.5 -19t46.5 -16.5q36 -12 72 -25t69.5 -31.5t63.5 -44.5t55 -63q29 -45 45 -98.5t16 -107.5q0 -60 -20 -118.5t-62 -105t-106 -75t-151 -28.5l-282 2 q-117 0 -197.5 35t-129.5 91.5t-70.5 128.5t-21.5 147q0 42 6.5 72.5t17.5 57t25.5 51.5t30.5 56zM53 1125q-6 14 -9 30.5t-3 33.5q0 33 12.5 65t36.5 57t59.5 40.5t82.5 15.5h170v-113l-170 1q-42 0 -60.5 -21t-18.5 -45t17 -43t54 -21h193v-113h-422v113h58z"/>
    <glyph glyph-name="yehwithhamzaabovefinal" unicode="ئ" horiz-adv-x="1498" arabic-form="final" d="M341 746q-21 -40 -36.5 -95t-15.5 -108q1 -31 7.5 -59t24.5 -49t51.5 -33t87.5 -12l238 1v261q0 86 24 153.5t70.5 113.5t113.5 70t154 24l178 -4q26 0 48 -10.5t38.5 -28t26 -40.5t9.5 -48v-491h148v-248h-272q-26 0 -48 9.5t-39 26.5t-26.5 39.5t-9.5 48.5v497 q-14 1 -28.5 1.5t-28.5 0.5q-32 0 -53.5 -6t-34 -19.5t-18 -35t-5.5 -53.5l1 -376q0 -27 -8.5 -51.5t-24.5 -42.5t-39 -28.5t-52 -10.5h-362q-116 0 -196 34.5t-129.5 91t-71.5 129t-22 147.5q0 42 6.5 84.5t18 83.5t26 78.5t30.5 68.5zM177 1070q-6 14 -9 30.5t-3 33.5 q0 33 12.5 65t36.5 57t59.5 40.5t82.5 15.5h170v-113l-170 1q-42 0 -60.5 -21t-18.5 -45t17 -43t54 -21h193v-113h-422v113h58z"/>
    <glyph glyph-name="yehwithhamzaaboveinitial" unicode="ئ" horiz-adv-x="595" arabic-form="initial" d="M-8 391h274v411h247v-524q1 -3 1 -6v-5q0 -26 -10 -48.5t-27 -39.5t-39.5 -26.5t-48.5 -9.5h-397v248zM157 1011q-6 14 -9 30.5t-3 33.5q0 33 12.5 65t36.5 57t59.5 40.5t82.5 15.5h170v-113l-170 1q-42 0 -60.5 -21t-18.5 -45t17 -43t54 -21h193v-113h-422v113h58z"/>
    <glyph glyph-name="yehwithhamzaabovemedial" unicode="ئ" horiz-adv-x="610" arabic-form="medial" d="M-6 143v248h196v410h247v-410h177v-248h-620zM157 1011q-6 14 -9 30.5t-3 33.5q0 33 12.5 65t36.5 57t59.5 40.5t82.5 15.5h170v-113l-170 1q-42 0 -60.5 -21t-18.5 -45t17 -43t54 -21h193v-113h-422v113h58z"/>
    <glyph glyph-name="alefisolated" unicode="ا" horiz-adv-x="506" arabic-form="isolated" d="M374 145h-248v1212h248v-1212z"/>
    <glyph glyph-name="aleffinal" unicode="ا" horiz-adv-x="526" arabic-form="final" d="M535 143h-315q-26 0 -48.5 9.5t-39.5 26.5t-27 39.5t-10 48.5q0 2 -0.5 4t1.5 7v1079h247v-966h192v-248z"/>
    <glyph glyph-name="behisolated" unicode="ب" horiz-adv-x="1275" arabic-form="isolated" d="M1199 981v-714q0 -26 -9.5 -48.5t-26.5 -39.5t-39.5 -26.5t-48.5 -9.5h-601q-118 0 -198 35t-129 92t-70 129t-21 146q0 42 6.5 84.5t18 83.5t26 78.5t30.5 68.5l219 -114q-22 -41 -37.5 -95.5t-15.5 -108.5q0 -31 6.5 -58.5t24.5 -48t49.5 -32.5t81.5 -13 q126 0 243.5 0.5t243.5 0.5v590h247zM526 -124q0 28 10 52t28 42t42 28t51 10q28 0 52 -10t42 -28t28.5 -42t10.5 -52q0 -27 -10.5 -51t-28.5 -42t-42 -28.5t-52 -10.5q-27 0 -51 10.5t-42 28.5t-28 42t-10 51z"/>
    <glyph glyph-name="behfinal" unicode="ب" horiz-adv-x="1359" arabic-form="final" d="M477 143q-118 0 -198.5 35t-129.5 92t-70 129t-21 146q0 42 6.5 84.5t18 83.5t26 78.5t30.5 68.5l219 -114q-21 -41 -37 -95.5t-16 -108.5q0 -31 6.5 -58.5t24.5 -48t49.5 -32.5t81.5 -13q126 0 243.5 0.5t243.5 0.5v590h247v-590h167v-248h-891zM585 -124q0 28 10 52 t28 42t42 28t51 10q28 0 52 -10t42 -28t28.5 -42t10.5 -52q0 -27 -10.5 -51t-28.5 -42t-42 -28.5t-52 -10.5q-27 0 -51 10.5t-42 28.5t-28 42t-10 51z"/>
    <glyph glyph-name="behinitial" unicode="ب" horiz-adv-x="598" arabic-form="initial" d="M-5 391h274v590h247v-703q1 -3 1 -6v-5q0 -26 -10 -48.5t-27 -39.5t-39.5 -26.5t-48.5 -9.5h-397v248zM94 -124q0 28 10 52t28 42t42 28t51 10q28 0 52 -10t42 -28t28.5 -42t10.5 -52q0 -27 -10.5 -51t-28.5 -42t-42 -28.5t-52 -10.5q-27 0 -51 10.5t-42 28.5t-28 42 t-10 51z"/>
    <glyph glyph-name="behmedial" unicode="ب" horiz-adv-x="610" arabic-form="medial" d="M-6 143v248h196v590h247v-590h177v-248h-620zM188 -124q0 28 10 52t28 42t42 28t51 10q28 0 52 -10t42 -28t28.5 -42t10.5 -52q0 -27 -10.5 -51t-28.5 -42t-42 -28.5t-52 -10.5q-27 0 -51 10.5t-42 28.5t-28 42t-10 51z"/>
    <glyph glyph-name="tehmarbutaisolated" unicode="ة" horiz-adv-x="962" arabic-form="isolated" d="M735 1013q31 0 58.5 -11.5t48.5 -32t33 -48.5t12 -61l1 -567q0 -45 -28.5 -79t-71.5 -43q-74 -20 -153 -30t-159 -10q-34 0 -76.5 1t-86 5t-85.5 14t-76.5 28t-57.5 46t-29 68v308q0 85 32 160t88 131t130.5 88.5t160.5 32.5h259zM476 379q81 0 163 14v372q-40 0 -81 0.5 t-82 0.5q-33 0 -63 -13.5t-52.5 -36t-35 -52.5t-12.5 -63l1 -209q46 -10 79.5 -11.5t72.5 -1.5h10zM218 1252q0 28 10 52t28 42t42 28t51 10q28 0 52 -10t42 -28t28.5 -42t10.5 -52q0 -27 -10.5 -51t-28.5 -42t-42 -28.5t-52 -10.5q-27 0 -51 10.5t-42 28.5t-28 42t-10 51z M516 1252q0 28 10 52t28 42t42 28t51 10q28 0 52 -10t42 -28t28.5 -42t10.5 -52q0 -27 -10.5 -51t-28.5 -42t-42 -28.5t-52 -10.5q-27 0 -51 10.5t-42 28.5t-28 42t-10 51z"/>
    <glyph glyph-name="tehmarbutafinal" unicode="ة" horiz-adv-x="1032" arabic-form="final" d="M1042 143h-290q-29 0 -52 10.5t-39 28.5t-24.5 42t-8.5 51l-2 490q-42 0 -82.5 0.5t-82.5 0.5q-33 0 -62.5 -13.5t-52 -36t-35.5 -52.5t-13 -63l1 -208q18 -3 47.5 -7t61 -7t61 -5t47.5 -2v-248q-38 0 -88 4t-101 10.5t-98.5 15t-81.5 18.5l2 -1q-42 9 -70 43t-28 79v308 q0 85 32 160t87.5 131t130.5 88.5t160 32.5h259q30 0 57.5 -11.5t48.5 -32t33.5 -47t12.5 -56.5l3 -475h167v-248zM516 1252q0 28 10 52t28 42t42 28t51 10q28 0 52 -10t42 -28t28.5 -42t10.5 -52q0 -27 -10.5 -51t-28.5 -42t-42 -28.5t-52 -10.5q-27 0 -51 10.5t-42 28.5 t-28 42t-10 51zM218 1252q0 28 10 52t28 42t42 28t51 10q28 0 52 -10t42 -28t28.5 -42t10.5 -52q0 -27 -10.5 -51t-28.5 -42t-42 -28.5t-52 -10.5q-27 0 -51 10.5t-42 28.5t-28 42t-10 51z"/>
    <glyph glyph-name="tehisolated" unicode="ت" horiz-adv-x="1275" arabic-form="isolated" d="M1199 981v-714q0 -26 -9.5 -48.5t-26.5 -39.5t-39.5 -26.5t-48.5 -9.5h-601q-118 0 -198 35t-129 92t-70 129t-21 146q0 42 6.5 84.5t18 83.5t26 78.5t30.5 68.5l219 -114q-22 -41 -37.5 -95.5t-15.5 -108.5q0 -31 6.5 -58.5t24.5 -48t49.5 -32.5t81.5 -13 q126 0 243.5 0.5t243.5 0.5v590h247zM593 1108q0 28 10 52t28 42t42 28t51 10q28 0 52 -10t42 -28t28.5 -42t10.5 -52q0 -27 -10.5 -51t-28.5 -42t-42 -28.5t-52 -10.5q-27 0 -51 10.5t-42 28.5t-28 42t-10 51zM295 1108q0 28 10 52t28 42t42 28t51 10q28 0 52 -10t42 -28 t28.5 -42t10.5 -52q0 -27 -10.5 -51t-28.5 -42t-42 -28.5t-52 -10.5q-27 0 -51 10.5t-42 28.5t-28 42t-10 51z"/>
    <glyph glyph-name="tehfinal" unicode="ت" horiz-adv-x="1364" arabic-form="final" d="M477 143q-118 0 -198.5 35t-129.5 92t-70 129t-21 146q0 42 6.5 84.5t18 83.5t26 78.5t30.5 68.5l219 -114q-21 -41 -37 -95.5t-16 -108.5q0 -31 6.5 -58.5t24.5 -48t49.5 -32.5t81.5 -13q126 0 243.5 0.5t243.5 0.5v590h247v-590h167v-248h-891zM593 1108q0 28 10 52 t28 42t42 28t51 10q28 0 52 -10t42 -28t28.5 -42t10.5 -52q0 -27 -10.5 -51t-28.5 -42t-42 -28.5t-52 -10.5q-27 0 -51 10.5t-42 28.5t-28 42t-10 51zM295 1108q0 28 10 52t28 42t42 28t51 10q28 0 52 -10t42 -28t28.5 -42t10.5 -52q0 -27 -10.5 -51t-28.5 -42t-42 -28.5 t-52 -10.5q-27 0 -51 10.5t-42 28.5t-28 42t-10 51z"/>
    <glyph glyph-name="tehinitial" unicode="ت" horiz-adv-x="597" arabic-form="initial" d="M-5 391h273v590h247v-703q1 -3 1 -6v-5q0 -26 -9.5 -48.5t-26.5 -39.5t-39.5 -26.5t-48.5 -9.5h-397v248zM321 1252q0 28 10 52t28 42t42 28t51 10q28 0 52 -10t42 -28t28.5 -42t10.5 -52q0 -27 -10.5 -51t-28.5 -42t-42 -28.5t-52 -10.5q-27 0 -51 10.5t-42 28.5t-28 42 t-10 51zM23 1252q0 28 10 52t28 42t42 28t51 10q28 0 52 -10t42 -28t28.5 -42t10.5 -52q0 -27 -10.5 -51t-28.5 -42t-42 -28.5t-52 -10.5q-27 0 -51 10.5t-42 28.5t-28 42t-10 51z"/>
    <glyph glyph-name="tehmedial" unicode="ت" horiz-adv-x="605" arabic-form="medial" d="M-6 143v248h196v590h247v-590h177v-248h-620zM321 1252q0 28 10 52t28 42t42 28t51 10q28 0 52 -10t42 -28t28.5 -42t10.5 -52q0 -27 -10.5 -51t-28.5 -42t-42 -28.5t-52 -10.5q-27 0 -51 10.5t-42 28.5t-28 42t-10 51zM23 1252q0 28 10 52t28 42t42 28t51 10 q28 0 52 -10t42 -28t28.5 -42t10.5 -52q0 -27 -10.5 -51t-28.5 -42t-42 -28.5t-52 -10.5q-27 0 -51 10.5t-42 28.5t-28 42t-10 51z"/>
    <glyph glyph-name="thehisolated" unicode="ث" horiz-adv-x="1275" arabic-form="isolated" d="M1199 981v-714q0 -26 -9.5 -48.5t-26.5 -39.5t-39.5 -26.5t-48.5 -9.5h-601q-118 0 -198 35t-129 92t-70 129t-21 146q0 42 6.5 84.5t18 83.5t26 78.5t30.5 68.5l219 -114q-22 -41 -37.5 -95.5t-15.5 -108.5q0 -31 6.5 -58.5t24.5 -48t49.5 -32.5t81.5 -13 q126 0 243.5 0.5t243.5 0.5v590h247zM302 1145q0 28 10 52t28 42t42 28t51 10q28 0 52 -10t42 -28t28.5 -42t10.5 -52q0 -27 -10.5 -51t-28.5 -42t-42 -28t-52 -10q-27 0 -51 10t-42 28t-28 42t-10 51zM614 1145q0 28 10.5 52t28.5 42t42 28t51 10q28 0 52 -10t42 -28 t28 -42t10 -52q0 -27 -10 -51t-28 -42t-42 -28t-52 -10q-27 0 -51 10t-42 28t-28.5 42t-10.5 51zM459 1397q0 28 10 52t28 42t42 28t51 10q28 0 52 -10t42 -28t28 -42t10 -52q0 -27 -10 -51t-28 -42t-42 -28t-52 -10q-27 0 -51 10t-42 28t-28 42t-10 51z"/>
    <glyph glyph-name="thehfinal" unicode="ث" horiz-adv-x="1359" arabic-form="final" d="M477 143q-118 0 -198.5 35t-129.5 92t-70 129t-21 146q0 42 6.5 84.5t18 83.5t26 78.5t30.5 68.5l219 -114q-21 -41 -37 -95.5t-16 -108.5q0 -31 6.5 -58.5t24.5 -48t49.5 -32.5t81.5 -13q126 0 243.5 0.5t243.5 0.5v590h247v-590h167v-248h-891zM286 1142q0 28 10 52 t28 42t42 28t51 10q28 0 52 -10t42 -28t28.5 -42t10.5 -52q0 -27 -10.5 -51t-28.5 -42t-42 -28t-52 -10q-27 0 -51 10t-42 28t-28 42t-10 51zM598 1142q0 28 10.5 52t28.5 42t42 28t51 10t51 -10t42 -28t28.5 -42t10.5 -52q0 -27 -10.5 -51t-28.5 -42t-42 -28t-51 -10 t-51 10t-42 28t-28.5 42t-10.5 51zM443 1394q0 28 10 52t28 42t42 28t51 10q28 0 52 -10t42 -28t28 -42t10 -52q0 -27 -10 -51t-28 -42t-42 -28t-52 -10q-27 0 -51 10t-42 28t-28 42t-10 51z"/>
    <glyph glyph-name="thehinitial" unicode="ث" horiz-adv-x="592" arabic-form="initial" d="M-10 391h274v590h247v-703q1 -3 1 -6v-5q0 -26 -10 -48.5t-27 -39.5t-39.5 -26.5t-48.5 -9.5h-397v248zM321 1216q0 28 10 52t28 42t42 28t51 10q28 0 52 -10t42 -28t28.5 -42t10.5 -52q0 -27 -10.5 -51t-28.5 -42t-42 -28t-52 -10q-27 0 -51 10t-42 28t-28 42t-10 51z M165 1468q0 28 10.5 52t28.5 42t42 28t51 10q28 0 52 -10t42 -28t28 -42t10 -52q0 -27 -10 -51t-28 -42t-42 -28t-52 -10q-27 0 -51 10t-42 28t-28.5 42t-10.5 51zM9 1216q0 28 10 52t28 42t42 28t51 10q28 0 52 -10t42 -28t28 -42t10 -52q0 -27 -10 -51t-28 -42t-42 -28 t-52 -10q-27 0 -51 10t-42 28t-28 42t-10 51z"/>
    <glyph glyph-name="thehmedial" unicode="ث" horiz-adv-x="605" arabic-form="medial" d="M-6 143v248h196v590h247v-590h177v-248h-620zM17 1214q0 28 10 52t28 42t42 28t51 10q28 0 52 -10t42 -28t28.5 -42t10.5 -52q0 -27 -10.5 -51t-28.5 -42t-42 -28t-52 -10q-27 0 -51 10t-42 28t-28 42t-10 51zM329 1214q0 28 10.5 52t28.5 42t42 28t51 10q28 0 52 -10 t42 -28t28 -42t10 -52q0 -27 -10 -51t-28 -42t-42 -28t-52 -10q-27 0 -51 10t-42 28t-28.5 42t-10.5 51zM174 1466q0 28 10 52t28 42t42 28t51 10q28 0 52 -10t42 -28t28 -42t10 -52q0 -27 -10 -51t-28 -42t-42 -28t-52 -10q-27 0 -51 10t-42 28t-28 42t-10 51z"/>
    <glyph glyph-name="jeemisolated" unicode="ج" horiz-adv-x="1250" arabic-form="isolated" d="M545 391h285q-7 91 -33.5 154t-66 104t-89 63t-102 32.5t-105 12.5t-98.5 3q-22 0 -44.5 0.5t-57.5 3.5l21 247q13 -1 29 -2t33.5 -2t34.5 -2t32 -2q69 -3 145.5 -11.5t151.5 -31t144 -62.5t123 -107t89 -165t41 -235h87v-248h-619q-62 -4 -107.5 -21t-75.5 -42.5 t-45 -57.5t-15 -65q0 -47 30 -95.5t90 -90.5l-139 -205q-116 79 -172.5 182.5t-56.5 209.5q0 79 32.5 154.5t95 135t152.5 98t205 44.5zM526 -124q0 28 10 52t28 42t42 28t51 10q28 0 52 -10t42 -28t28.5 -42t10.5 -52q0 -27 -10.5 -51t-28.5 -42t-42 -28.5t-52 -10.5 q-27 0 -51 10.5t-42 28.5t-28 42t-10 51z"/>
    <glyph glyph-name="jeemfinal" unicode="ج" horiz-adv-x="1265" arabic-form="final" d="M546 391h285q-7 91 -33.5 154t-66 104t-88.5 63t-101.5 32.5t-105.5 12.5t-99 3q-21 0 -44 0.5t-58 3.5l21 247q13 -1 29.5 -2t34 -2t34.5 -2t32 -2q69 -3 145 -11.5t151 -31t144 -62.5t123 -107t89 -165t41 -235h197v-248h-729q-61 -4 -106.5 -21t-76 -42.5t-45.5 -57.5 t-15 -65q0 -47 30.5 -95.5t90.5 -90.5l-139 -205q-116 79 -173 182.5t-57 209.5q0 79 32.5 154.5t95 135t152.5 98t205 44.5zM526 -124q0 28 10 52t28 42t42 28t51 10q28 0 52 -10t42 -28t28.5 -42t10.5 -52q0 -27 -10.5 -51t-28.5 -42t-42 -28.5t-52 -10.5q-27 0 -51 10.5 t-42 28.5t-28 42t-10 51z"/>
    <glyph glyph-name="jeeminitial" unicode="ج" horiz-adv-x="1081" arabic-form="initial" d="M102 1011q26 -2 63 -4t66 -4q69 -3 145.5 -11.5t151.5 -31t144 -62.5t123 -107t89 -165t41 -235h88v-248h-1027v248h691q-7 91 -33.5 154t-66 104t-88.5 63t-101.5 32.5t-105.5 12.5t-99 3q-21 0 -44 0.5t-58 3.5zM305 -124q0 28 10 52t28 42t42 28t51 10q28 0 52 -10 t42 -28t28.5 -42t10.5 -52q0 -27 -10.5 -51t-28.5 -42t-42 -28.5t-52 -10.5q-27 0 -51 10.5t-42 28.5t-28 42t-10 51z"/>
    <glyph glyph-name="jeemmedial" unicode="ج" horiz-adv-x="1121" arabic-form="medial" d="M154 1011q13 -1 29.5 -2t34 -2t34.5 -2t32 -2q69 -3 145 -11.5t151 -31t144 -62.5t123 -107t89 -165t41 -235h158v-248h-1153v248h747q-7 91 -33.5 154t-66 104t-88.5 63t-101.5 32.5t-105.5 12.5t-99 3q-21 0 -44 0.5t-58 3.5zM305 -124q0 28 10 52t28 42t42 28t51 10 q28 0 52 -10t42 -28t28.5 -42t10.5 -52q0 -27 -10.5 -51t-28.5 -42t-42 -28.5t-52 -10.5q-27 0 -51 10.5t-42 28.5t-28 42t-10 51z"/>
    <glyph glyph-name="hahisolated" unicode="ح" horiz-adv-x="1250" arabic-form="isolated" d="M545 391h285q-7 91 -33.5 154t-66 104t-89 63t-102 32.5t-105 12.5t-98.5 3q-22 0 -44.5 0.5t-57.5 3.5l21 247q13 -1 29 -2t33.5 -2t34.5 -2t32 -2q69 -3 145.5 -11.5t151.5 -31t144 -62.5t123 -107t89 -165t41 -235h87v-248h-619q-62 -4 -107.5 -21t-75.5 -42.5 t-45 -57.5t-15 -65q0 -47 30 -95.5t90 -90.5l-139 -205q-116 79 -172.5 182.5t-56.5 209.5q0 79 32.5 154.5t95 135t152.5 98t205 44.5z"/>
    <glyph glyph-name="hahfinal" unicode="ح" horiz-adv-x="1265" arabic-form="final" d="M546 391h285q-7 91 -33.5 154t-66 104t-88.5 63t-101.5 32.5t-105.5 12.5t-99 3q-21 0 -44 0.5t-58 3.5l21 247q13 -1 29.5 -2t34 -2t34.5 -2t32 -2q69 -3 145 -11.5t151 -31t144 -62.5t123 -107t89 -165t41 -235h197v-248h-729q-61 -4 -106.5 -21t-76 -42.5t-45.5 -57.5 t-15 -65q0 -47 30.5 -95.5t90.5 -90.5l-139 -205q-116 79 -173 182.5t-57 209.5q0 79 32.5 154.5t95 135t152.5 98t205 44.5z"/>
    <glyph glyph-name="hahinitial" unicode="ح" horiz-adv-x="1081" arabic-form="initial" d="M102 1011q26 -2 63 -4t66 -4q69 -3 145.5 -11.5t151.5 -31t144 -62.5t123 -107t89 -165t41 -235h88v-248h-1027v248h691q-7 91 -33.5 154t-66 104t-88.5 63t-101.5 32.5t-105.5 12.5t-99 3q-21 0 -44 0.5t-58 3.5z"/>
    <glyph glyph-name="hahmedial" unicode="ح" horiz-adv-x="1121" arabic-form="medial" d="M154 1011q13 -1 29.5 -2t34 -2t34.5 -2t32 -2q69 -3 145 -11.5t151 -31t144 -62.5t123 -107t89 -165t41 -235h158v-248h-1153v248h747q-7 91 -33.5 154t-66 104t-88.5 63t-101.5 32.5t-105.5 12.5t-99 3q-21 0 -44 0.5t-58 3.5z"/>
    <glyph glyph-name="khahisolated" unicode="خ" horiz-adv-x="1250" arabic-form="isolated" d="M545 391h285q-7 91 -33.5 154t-66 104t-89 63t-102 32.5t-105 12.5t-98.5 3q-22 0 -44.5 0.5t-57.5 3.5l21 247q13 -1 29 -2t33.5 -2t34.5 -2t32 -2q69 -3 145.5 -11.5t151.5 -31t144 -62.5t123 -107t89 -165t41 -235h87v-248h-619q-62 -4 -107.5 -21t-75.5 -42.5 t-45 -57.5t-15 -65q0 -47 30 -95.5t90 -90.5l-139 -205q-116 79 -172.5 182.5t-56.5 209.5q0 79 32.5 154.5t95 135t152.5 98t205 44.5zM392 1252q0 28 10 52t28 42t42 28t51 10q28 0 52 -10t42 -28t28.5 -42t10.5 -52q0 -27 -10.5 -51t-28.5 -42t-42 -28t-52 -10 q-27 0 -51 10t-42 28t-28 42t-10 51z"/>
    <glyph glyph-name="khahfinal" unicode="خ" horiz-adv-x="1265" arabic-form="final" d="M546 391h285q-7 91 -33.5 154t-66 104t-88.5 63t-101.5 32.5t-105.5 12.5t-99 3q-21 0 -44 0.5t-58 3.5l21 247q13 -1 29.5 -2t34 -2t34.5 -2t32 -2q69 -3 145 -11.5t151 -31t144 -62.5t123 -107t89 -165t41 -235h197v-248h-729q-61 -4 -106.5 -21t-76 -42.5t-45.5 -57.5 t-15 -65q0 -47 30.5 -95.5t90.5 -90.5l-139 -205q-116 79 -173 182.5t-57 209.5q0 79 32.5 154.5t95 135t152.5 98t205 44.5zM392 1252q0 28 10 52t28 42t42 28t51 10q28 0 52 -10t42 -28t28.5 -42t10.5 -52q0 -27 -10.5 -51t-28.5 -42t-42 -28t-52 -10q-27 0 -51 10t-42 28 t-28 42t-10 51z"/>
    <glyph glyph-name="khahinitial" unicode="خ" horiz-adv-x="1081" arabic-form="initial" d="M102 1011q26 -2 63 -4t66 -4q69 -3 145.5 -11.5t151.5 -31t144 -62.5t123 -107t89 -165t41 -235h88v-248h-1027v248h691q-7 91 -33.5 154t-66 104t-88.5 63t-101.5 32.5t-105.5 12.5t-99 3q-21 0 -44 0.5t-58 3.5zM243 1252q0 28 10 52t28 42t42 28t51 10q28 0 52 -10 t42 -28t28.5 -42t10.5 -52q0 -27 -10.5 -51t-28.5 -42t-42 -28t-52 -10q-27 0 -51 10t-42 28t-28 42t-10 51z"/>
    <glyph glyph-name="khahmedial" unicode="خ" horiz-adv-x="1121" arabic-form="medial" d="M154 1011q13 -1 29.5 -2t34 -2t34.5 -2t32 -2q69 -3 145 -11.5t151 -31t144 -62.5t123 -107t89 -165t41 -235h158v-248h-1153v248h747q-7 91 -33.5 154t-66 104t-88.5 63t-101.5 32.5t-105.5 12.5t-99 3q-21 0 -44 0.5t-58 3.5zM243 1252q0 28 10 52t28 42t42 28t51 10 q28 0 52 -10t42 -28t28.5 -42t10.5 -52q0 -27 -10.5 -51t-28.5 -42t-42 -28t-52 -10q-27 0 -51 10t-42 28t-28 42t-10 51z"/>
    <glyph glyph-name="dalisolated" unicode="د" horiz-adv-x="957" arabic-form="isolated" d="M148 1009q217 3 362 -43.5t230 -138.5q78 -95 111 -236t33 -328q0 -26 -10 -48.5t-26.5 -39t-39.5 -26.5t-48 -10h-677v248h550q-7 92 -26 164.5t-54 112.5q-46 52 -143 76t-260 22z"/>
    <glyph glyph-name="dalfinal" unicode="د" horiz-adv-x="992" arabic-form="final" d="M85 144v248h549q-6 91 -25 161.5t-54 110.5q-23 26 -58.5 45t-84.5 31t-113.5 17.5t-146.5 4.5l-2 247q111 1 201 -8.5t162.5 -32t129 -57.5t98.5 -84q68 -78 100 -185t41 -251h122v-248z"/>
    <glyph glyph-name="thalisolated" unicode="ذ" horiz-adv-x="957" arabic-form="isolated" d="M148 1009q217 3 362 -43.5t230 -138.5q78 -95 111 -236t33 -328q0 -26 -10 -48.5t-26.5 -39t-39.5 -26.5t-48 -10h-677v248h550q-7 92 -26 164.5t-54 112.5q-46 52 -143 76t-260 22zM243 1252q0 28 10 52t28 42t42 28t51 10q28 0 52 -10t42 -28t28.5 -42t10.5 -52 q0 -27 -10.5 -51t-28.5 -42t-42 -28t-52 -10q-27 0 -51 10t-42 28t-28 42t-10 51z"/>
    <glyph glyph-name="thalfinal" unicode="ذ" horiz-adv-x="997" arabic-form="final" d="M85 144v248h549q-6 91 -25 161.5t-54 110.5q-23 26 -58.5 45t-84.5 31t-113.5 17.5t-146.5 4.5l-2 247q111 1 201 -8.5t162.5 -32t129 -57.5t98.5 -84q68 -78 100 -185t41 -251h122v-248zM243 1252q0 28 10 52t28 42t42 28t51 10q28 0 52 -10t42 -28t28.5 -42t10.5 -52 q0 -27 -10.5 -51t-28.5 -42t-42 -28t-52 -10q-27 0 -51 10t-42 28t-28 42t-10 51z"/>
    <glyph glyph-name="rehisolated" unicode="ر" horiz-adv-x="655" arabic-form="isolated" d="M576 879q0 -93 4.5 -190.5t4.5 -194.5q0 -81 -5 -165t-22 -165q-21 -105 -62.5 -196t-111 -158.5t-170.5 -106.5t-242 -39v248q84 0 143.5 24.5t100 66.5t64.5 99t36.5 122.5t16 136.5t3.5 141q0 94 -3.5 190t-3.5 187h247z"/>
    <glyph glyph-name="rehfinal" unicode="ر" horiz-adv-x="719" arabic-form="final" d="M578 860q1 -88 5 -180.5t4 -185.5q0 -31 -0.5 -51.5t-1.5 -51.5h143v-248h-174q-23 -100 -66 -187t-112 -152t-168 -102.5t-234 -37.5v248q84 0 143.5 24.5t100 66.5t64.5 99t36.5 122.5t16 136.5t3.5 141q0 94 -3.5 190t-3.5 187h249z"/>
    <glyph glyph-name="zainisolated" unicode="ز" horiz-adv-x="624" arabic-form="isolated" d="M576 879q0 -93 4.5 -190.5t4.5 -194.5q0 -81 -5 -165t-22 -165q-21 -105 -62.5 -196t-111 -158.5t-170.5 -106.5t-242 -39v248q84 0 143.5 24.5t100 66.5t64.5 99t36.5 122.5t16 136.5t3.5 141q0 94 -3.5 190t-3.5 187h247zM310 1157q0 28 10 52t28 42t42 28t51 10 q28 0 52 -10t42 -28t28.5 -42t10.5 -52q0 -27 -10.5 -51t-28.5 -42t-42 -28.5t-52 -10.5q-27 0 -51 10.5t-42 28.5t-28 42t-10 51z"/>
    <glyph glyph-name="zainfinal" unicode="ز" horiz-adv-x="724" arabic-form="final" d="M578 860q1 -88 5 -180.5t4 -185.5q0 -31 -0.5 -51.5t-1.5 -51.5h143v-248h-174q-23 -100 -66 -187t-112 -152t-168 -102.5t-234 -37.5v248q84 0 143.5 24.5t100 66.5t64.5 99t36.5 122.5t16 136.5t3.5 141q0 94 -3.5 190t-3.5 187h249zM312 1157q0 28 10 52t28 42t42 28 t51 10q28 0 52 -10t42 -28t28.5 -42t10.5 -52q0 -27 -10.5 -51t-28.5 -42t-42 -28.5t-52 -10.5q-27 0 -51 10.5t-42 28.5t-28 42t-10 51z"/>
    <glyph glyph-name="seenisolated" unicode="س" horiz-adv-x="1850" arabic-form="isolated" d="M302 604v-378q0 -42 15.5 -72.5t41.5 -50.5t59.5 -30t69.5 -10t69.5 10t59.5 30t41.5 50.5t15.5 72.5v755h249v-590h179v590h247v-590h180v590h247v-714q0 -26 -9.5 -48.5t-26.5 -39.5t-39.5 -26.5t-48.5 -9.5h-737q-14 -82 -55 -143.5t-99.5 -102.5t-129 -61.5 t-143.5 -20.5q-82 0 -160 26.5t-139 78.5t-98 128.5t-37 177.5v378h248z"/>
    <glyph glyph-name="seenfinal" unicode="س" horiz-adv-x="1920" arabic-form="final" d="M917 143q-14 -82 -54.5 -143.5t-99 -102.5t-129.5 -61.5t-144 -20.5q-82 0 -160 26.5t-139 78.5t-98 128.5t-37 177.5v378h248v-378q0 -42 15.5 -72.5t41.5 -50.5t59.5 -30t69.5 -10t69.5 10t59.5 30t41.5 50.5t15.5 72.5v755h249v-590h179v590h247v-590h180v590h247 v-590h148v-248h-1009z"/>
    <glyph glyph-name="seeninitial" unicode="س" horiz-adv-x="1364" arabic-form="initial" d="M-12 391h206v590h249v-590h179v590h247v-590h180v590h247v-714q0 -26 -10 -48.5t-26.5 -39.5t-39.5 -26.5t-48 -9.5h-1184v248z"/>
    <glyph glyph-name="seenmedial" unicode="س" horiz-adv-x="1399" arabic-form="medial" d="M-10 143v248h158v590h248v-590h179v590h248v-590h180v590h247v-590h157v-248h-1417z"/>
    <glyph glyph-name="sheenisolated" unicode="ش" horiz-adv-x="1850" arabic-form="isolated" d="M302 604v-378q0 -42 15.5 -72.5t41.5 -50.5t59.5 -30t69.5 -10t69.5 10t59.5 30t41.5 50.5t15.5 72.5v755h249v-590h179v590h247v-590h180v590h247v-714q0 -26 -9.5 -48.5t-26.5 -39.5t-39.5 -26.5t-48.5 -9.5h-737q-14 -82 -55 -143.5t-99.5 -102.5t-129 -61.5 t-143.5 -20.5q-82 0 -160 26.5t-139 78.5t-98 128.5t-37 177.5v378h248zM1090 1468q0 28 10 52t28 42t42 28t51 10q28 0 52 -10t42 -28t28.5 -42t10.5 -52q0 -27 -10.5 -51t-28.5 -42t-42 -28t-52 -10q-27 0 -51 10t-42 28t-28 42t-10 51zM933 1216q0 28 10.5 52t28.5 42 t42 28t51 10q28 0 52 -10t42 -28t28 -42t10 -52q0 -27 -10 -51t-28 -42t-42 -28t-52 -10q-27 0 -51 10t-42 28t-28.5 42t-10.5 51zM1246 1216q0 28 10 52t28 42t42 28t51 10q28 0 52 -10t42 -28t28 -42t10 -52q0 -27 -10 -51t-28 -42t-42 -28t-52 -10q-27 0 -51 10t-42 28 t-28 42t-10 51z"/>
    <glyph glyph-name="sheenfinal" unicode="ش" horiz-adv-x="1920" arabic-form="final" d="M917 143q-14 -82 -54.5 -143.5t-99 -102.5t-129.5 -61.5t-144 -20.5q-82 0 -160 26.5t-139 78.5t-98 128.5t-37 177.5v378h248v-378q0 -42 15.5 -72.5t41.5 -50.5t59.5 -30t69.5 -10t69.5 10t59.5 30t41.5 50.5t15.5 72.5v755h249v-590h179v590h247v-590h180v590h247 v-590h148v-248h-1009zM1092 1468q0 28 10.5 52t28.5 42t42 28t51 10t51 -10t42 -28t28.5 -42t10.5 -52q0 -27 -10.5 -51t-28.5 -42t-42 -28t-51 -10t-51 10t-42 28t-28.5 42t-10.5 51zM1248 1216q0 28 10 52t28 42t42 28t51 10q28 0 52 -10t42 -28t28 -42t10 -52 q0 -27 -10 -51t-28 -42t-42 -28t-52 -10q-27 0 -51 10t-42 28t-28 42t-10 51zM936 1216q0 28 10 52t28 42t42 28t51 10q28 0 52 -10t42 -28t28 -42t10 -52q0 -27 -10 -51t-28 -42t-42 -28t-52 -10q-27 0 -51 10t-42 28t-28 42t-10 51z"/>
    <glyph glyph-name="sheeninitial" unicode="ش" horiz-adv-x="1364" arabic-form="initial" d="M-12 391h206v590h249v-590h179v590h247v-590h180v590h247v-714q0 -26 -10 -48.5t-26.5 -39.5t-39.5 -26.5t-48 -9.5h-1184v248zM608 1468q0 28 10 52t28 42t42 28t51 10q28 0 52 -10t42 -28t28.5 -42t10.5 -52q0 -27 -10.5 -51t-28.5 -42t-42 -28t-52 -10q-27 0 -51 10 t-42 28t-28 42t-10 51zM451 1216q0 28 10.5 52t28.5 42t42 28t51 10q28 0 52 -10t42 -28t28 -42t10 -52q0 -27 -10 -51t-28 -42t-42 -28t-52 -10q-27 0 -51 10t-42 28t-28.5 42t-10.5 51zM764 1216q0 28 10 52t28 42t42 28t51 10q28 0 52 -10t42 -28t28 -42t10 -52 q0 -27 -10 -51t-28 -42t-42 -28t-52 -10q-27 0 -51 10t-42 28t-28 42t-10 51z"/>
    <glyph glyph-name="sheenmedial" unicode="ش" horiz-adv-x="1399" arabic-form="medial" d="M-10 143v248h158v590h248v-590h179v590h248v-590h180v590h247v-590h157v-248h-1417zM411 1216q0 28 10 52t28 42t42 28t51 10q28 0 52 -10t42 -28t28.5 -42t10.5 -52q0 -27 -10.5 -51t-28.5 -42t-42 -28t-52 -10q-27 0 -51 10t-42 28t-28 42t-10 51zM723 1216 q0 28 10.5 52t28.5 42t42 28t51 10q28 0 52 -10t42 -28t28 -42t10 -52q0 -27 -10 -51t-28 -42t-42 -28t-52 -10q-27 0 -51 10t-42 28t-28.5 42t-10.5 51zM568 1468q0 28 10 52t28 42t42 28t51 10q28 0 52 -10t42 -28t28 -42t10 -52q0 -27 -10 -51t-28 -42t-42 -28t-52 -10 q-27 0 -51 10t-42 28t-28 42t-10 51z"/>
    <glyph glyph-name="sadisolated" unicode="ص" horiz-adv-x="1776" arabic-form="isolated" d="M305 604v-378q0 -42 15.5 -72.5t41.5 -50.5t59.5 -30t69.5 -10t69.5 10t59.5 30t41.5 50.5t15.5 72.5l-2 788h247v-121q41 53 111.5 86.5t158.5 33.5l384 -4q25 0 47.5 -10t39.5 -26.5t26.5 -39t9.5 -47.5v-610q0 -27 -8.5 -51.5t-24.5 -42.5t-39 -28.5t-51 -10.5h-658 q-14 -82 -55 -143.5t-99.5 -102.5t-129 -61.5t-143.5 -20.5q-82 0 -160 26.5t-139 78.5t-98 128.5t-37 177.5v378h248zM1187 766q-50 0 -96.5 -13t-83 -39t-59.5 -64.5t-26 -90.5v-168h529v372q-135 2 -197.5 2.5t-66.5 0.5z"/>
    <glyph glyph-name="sadfinal" unicode="ص" horiz-adv-x="1840" arabic-form="final" d="M920 143q-14 -82 -55 -143.5t-99.5 -102.5t-129 -61.5t-143.5 -20.5q-82 0 -160 26.5t-139 78.5t-98 128.5t-37 177.5v378h248v-378q0 -42 15.5 -72.5t41.5 -50.5t59.5 -30t69.5 -10t69.5 10t59.5 30t41.5 50.5t15.5 72.5l-2 788h247v-121q41 53 111.5 86.5t158.5 33.5 l384 -4q25 0 47.5 -10t39.5 -26.5t26.5 -39t9.5 -47.5v-495h144v-248h-925zM1189 766q-50 0 -96.5 -13t-83 -39t-59.5 -64.5t-26 -90.5v-168h529v372q-135 2 -197.5 2.5t-66.5 0.5z"/>
    <glyph glyph-name="sadinitial" unicode="ص" horiz-adv-x="1250" arabic-form="initial" d="M402 893q42 53 112.5 86.5t158.5 33.5l383 -4q25 0 47.5 -10t39.5 -26.5t26.5 -39t9.5 -47.5v-610q0 -27 -8.5 -51.5t-24.5 -42.5t-39 -28.5t-51 -10.5h-1067v248h166v623h247v-121zM668 766q-50 0 -97 -13t-83.5 -39t-59.5 -64.5t-26 -90.5v-168h529v372 q-135 2 -197 2.5t-66 0.5z"/>
    <glyph glyph-name="sadmedial" unicode="ص" horiz-adv-x="1319" arabic-form="medial" d="M-4 143v248h166v612h247v-110q42 53 112.5 86.5t157.5 33.5l384 -4q25 0 47.5 -10t39.5 -26.5t26.5 -39t9.5 -47.5v-495h141v-248h-1331zM675 766q-50 0 -97 -13t-83.5 -39t-59.5 -64.5t-26 -90.5v-168h529v372q-135 2 -197.5 2.5t-65.5 0.5z"/>
    <glyph glyph-name="dadisolated" unicode="ض" horiz-adv-x="1776" arabic-form="isolated" d="M305 604v-378q0 -42 15.5 -72.5t41.5 -50.5t59.5 -30t69.5 -10t69.5 10t59.5 30t41.5 50.5t15.5 72.5l-2 788h247v-121q41 53 111.5 86.5t158.5 33.5l384 -4q25 0 47.5 -10t39.5 -26.5t26.5 -39t9.5 -47.5v-610q0 -27 -8.5 -51.5t-24.5 -42.5t-39 -28.5t-51 -10.5h-658 q-14 -82 -55 -143.5t-99.5 -102.5t-129 -61.5t-143.5 -20.5q-82 0 -160 26.5t-139 78.5t-98 128.5t-37 177.5v378h248zM1187 766q-50 0 -96.5 -13t-83 -39t-59.5 -64.5t-26 -90.5v-168h529v372q-135 2 -197.5 2.5t-66.5 0.5zM1061 1252q0 28 10 52t28 42t42 28t51 10 q28 0 52 -10t42 -28t28.5 -42t10.5 -52q0 -27 -10.5 -51t-28.5 -42t-42 -28t-52 -10q-27 0 -51 10t-42 28t-28 42t-10 51z"/>
    <glyph glyph-name="dadfinal" unicode="ض" horiz-adv-x="1840" arabic-form="final" d="M920 143q-14 -82 -55 -143.5t-99.5 -102.5t-129 -61.5t-143.5 -20.5q-82 0 -160 26.5t-139 78.5t-98 128.5t-37 177.5v378h248v-378q0 -42 15.5 -72.5t41.5 -50.5t59.5 -30t69.5 -10t69.5 10t59.5 30t41.5 50.5t15.5 72.5l-2 788h247v-121q41 53 111.5 86.5t158.5 33.5 l384 -4q25 0 47.5 -10t39.5 -26.5t26.5 -39t9.5 -47.5v-495h144v-248h-925zM1189 766q-50 0 -96.5 -13t-83 -39t-59.5 -64.5t-26 -90.5v-168h529v372q-135 2 -197.5 2.5t-66.5 0.5zM1061 1252q0 28 10 52t28 42t42 28t51 10q28 0 52 -10t42 -28t28.5 -42t10.5 -52 q0 -27 -10.5 -51t-28.5 -42t-42 -28t-52 -10q-27 0 -51 10t-42 28t-28 42t-10 51z"/>
    <glyph glyph-name="dadinitial" unicode="ض" horiz-adv-x="1255" arabic-form="initial" d="M407 893q42 53 112.5 86.5t158.5 33.5l383 -4q25 0 47.5 -10t39.5 -26.5t26.5 -39t9.5 -47.5v-610q0 -27 -8.5 -51.5t-24.5 -42.5t-39 -28.5t-51 -10.5h-1067v248h166v623h247v-121zM673 766q-50 0 -97 -13t-83.5 -39t-59.5 -64.5t-26 -90.5v-168h529v372 q-135 2 -197 2.5t-66 0.5zM541 1252q0 28 10 52t28 42t42 28t51 10q28 0 52 -10t42 -28t28.5 -42t10.5 -52q0 -27 -10.5 -51t-28.5 -42t-42 -28t-52 -10q-27 0 -51 10t-42 28t-28 42t-10 51z"/>
    <glyph glyph-name="dadmedial" unicode="ض" horiz-adv-x="1319" arabic-form="medial" d="M-9 143v248h166v612h247v-110q42 53 112.5 86.5t157.5 33.5l384 -4q25 0 47.5 -10t39.5 -26.5t26.5 -39t9.5 -47.5v-495h141v-248h-1331zM670 766q-50 0 -97 -13t-83.5 -39t-59.5 -64.5t-26 -90.5v-168h529v372q-135 2 -197.5 2.5t-65.5 0.5zM541 1252q0 28 10 52t28 42 t42 28t51 10q28 0 52 -10t42 -28t28.5 -42t10.5 -52q0 -27 -10.5 -51t-28.5 -42t-42 -28t-52 -10q-27 0 -51 10t-42 28t-28 42t-10 51z"/>
    <glyph glyph-name="tahisolated" unicode="ط" horiz-adv-x="1260" arabic-form="isolated" d="M413 893q41 53 112 86.5t158 33.5l384 -4q25 0 47.5 -10t39.5 -26.5t26.5 -39t9.5 -47.5v-610q0 -27 -8.5 -51.5t-24.5 -42.5t-39 -28.5t-51 -10.5h-1001v248h100v966h247v-464zM679 766q-50 0 -97 -13t-83.5 -39t-59.5 -64.5t-26 -90.5v-168h529v372q-135 2 -197.5 2.5 t-65.5 0.5z"/>
    <glyph glyph-name="tahfinal" unicode="ط" horiz-adv-x="1339" arabic-form="final" d="M88 143v248h95v966h247v-464q41 53 112 86.5t158 33.5l384 -4q25 0 47.5 -10t39.5 -26.5t26.5 -39t9.5 -47.5v-495h140v-248h-1259zM696 766q-50 0 -97 -13t-83.5 -39t-59.5 -64.5t-26 -90.5v-168h529v372q-135 2 -197.5 2.5t-65.5 0.5z"/>
    <glyph glyph-name="tahinitial" unicode="ط" horiz-adv-x="1255" arabic-form="initial" d="M407 893q42 53 112.5 86.5t158.5 33.5l383 -4q25 0 47.5 -10t39.5 -26.5t26.5 -39t9.5 -47.5v-610q0 -27 -8.5 -51.5t-24.5 -42.5t-39 -28.5t-51 -10.5h-1067v248h166v966h247v-464zM673 766q-50 0 -97 -13t-83.5 -39t-59.5 -64.5t-26 -90.5v-168h529v372 q-135 2 -197 2.5t-66 0.5z"/>
    <glyph glyph-name="tahmedial" unicode="ط" horiz-adv-x="1314" arabic-form="medial" d="M-5 143v248h166v966h247v-464q42 53 112.5 86.5t157.5 33.5l384 -4q25 0 47.5 -10t39.5 -26.5t26.5 -39t9.5 -47.5v-495h141v-248h-1331zM674 766q-50 0 -97 -13t-83.5 -39t-59.5 -64.5t-26 -90.5v-168h529v372q-135 2 -197.5 2.5t-65.5 0.5z"/>
    <glyph glyph-name="zahisolated" unicode="ظ" horiz-adv-x="1260" arabic-form="isolated" d="M413 893q41 53 112 86.5t158 33.5l384 -4q25 0 47.5 -10t39.5 -26.5t26.5 -39t9.5 -47.5v-610q0 -27 -8.5 -51.5t-24.5 -42.5t-39 -28.5t-51 -10.5h-1001v248h100v966h247v-464zM679 766q-50 0 -97 -13t-83.5 -39t-59.5 -64.5t-26 -90.5v-168h529v372q-135 2 -197.5 2.5 t-65.5 0.5zM561 1252q0 28 10 52t28 42t42 28t51 10q28 0 52 -10t42 -28t28.5 -42t10.5 -52q0 -27 -10.5 -51t-28.5 -42t-42 -28t-52 -10q-27 0 -51 10t-42 28t-28 42t-10 51z"/>
    <glyph glyph-name="zahfinal" unicode="ظ" horiz-adv-x="1344" arabic-form="final" d="M88 143v248h95v966h247v-464q42 53 112.5 86.5t157.5 33.5l384 -4q25 0 47.5 -10t39.5 -26.5t26.5 -39t9.5 -47.5v-495h141v-248h-1260zM696 766q-50 0 -97 -13t-83.5 -39t-59.5 -64.5t-26 -90.5v-168h529v372q-135 2 -197.5 2.5t-65.5 0.5zM561 1252q0 28 10 52t28 42 t42 28t51 10q28 0 52 -10t42 -28t28.5 -42t10.5 -52q0 -27 -10.5 -51t-28.5 -42t-42 -28t-52 -10q-27 0 -51 10t-42 28t-28 42t-10 51z"/>
    <glyph glyph-name="zahinitial" unicode="ظ" horiz-adv-x="1250" arabic-form="initial" d="M402 893q42 53 112.5 86.5t158.5 33.5l383 -4q25 0 47.5 -10t39.5 -26.5t26.5 -39t9.5 -47.5v-610q0 -27 -8.5 -51.5t-24.5 -42.5t-39 -28.5t-51 -10.5h-1067v248h166v966h247v-464zM668 766q-50 0 -97 -13t-83.5 -39t-59.5 -64.5t-26 -90.5v-168h529v372 q-135 2 -197 2.5t-66 0.5zM521 1252q0 28 10 52t28 42t42 28t51 10q28 0 52 -10t42 -28t28.5 -42t10.5 -52q0 -27 -10.5 -51t-28.5 -42t-42 -28t-52 -10q-27 0 -51 10t-42 28t-28 42t-10 51z"/>
    <glyph glyph-name="zahmedial" unicode="ظ" horiz-adv-x="1314" arabic-form="medial" d="M-4 143v248h166v966h247v-464q41 53 112 86.5t158 33.5l384 -4q25 0 47.5 -10t39.5 -26.5t26.5 -39t9.5 -47.5v-495h138v-248h-1328zM675 766q-50 0 -97 -13t-83.5 -39t-59.5 -64.5t-26 -90.5v-168h529v372q-135 2 -197.5 2.5t-65.5 0.5zM521 1252q0 28 10 52t28 42 t42 28t51 10q28 0 52 -10t42 -28t28.5 -42t10.5 -52q0 -27 -10.5 -51t-28.5 -42t-42 -28t-52 -10q-27 0 -51 10t-42 28t-28 42t-10 51z"/>
    <glyph glyph-name="ainisolated" unicode="ع" horiz-adv-x="1131" arabic-form="isolated" d="M545 143q-55 -5 -100 -22.5t-76.5 -42.5t-49 -56t-17.5 -64q0 -46 29.5 -95.5t91.5 -91.5l-139 -205q-57 39 -100 85.5t-71.5 96.5t-43 102.5t-14.5 105.5q0 57 15.5 111.5t46 104t75.5 90.5t105 71q-16 27 -32 56.5t-28.5 60t-20 62.5t-7.5 65q0 83 30 161.5t85.5 139.5 t135 98t178.5 37h375v-248h-375q-41 0 -74.5 -16.5t-57.5 -43t-37 -60.5t-13 -68q0 -35 13 -68.5t37 -59.5t57.5 -42t74.5 -16h404v-248h-497z"/>
    <glyph glyph-name="ainfinal" unicode="ع" horiz-adv-x="1156" arabic-form="final" d="M541 143q-62 -4 -107.5 -21t-75.5 -42.5t-45 -57.5t-15 -65q0 -47 30 -95.5t90 -90.5l-139 -205q-116 79 -172.5 182.5t-56.5 209.5q0 63 20 124.5t59.5 114.5t97 95.5t132.5 66.5q-29 44 -57.5 87.5t-56.5 87.5q-27 43 -40.5 89t-13.5 88q0 61 24 116t67.5 96.5 t104 65.5t132.5 24h216q73 0 134 -24t105 -65t68 -95.5t24 -115.5q0 -44 -13.5 -89.5t-42.5 -89.5l-93 -143h243v-248h-619zM627 400q45 67 88 134.5t87 134.5q7 11 11.5 23t4.5 21q0 23 -22.5 38t-60.5 15h-215q-39 -2 -61 -16.5t-22 -36.5q0 -9 4 -20.5t11 -23.5z"/>
    <glyph glyph-name="aininitial" unicode="ع" horiz-adv-x="1061" arabic-form="initial" d="M199 391q-13 17 -24.5 39t-20.5 46.5t-14 50.5t-5 50q0 83 30.5 161.5t87.5 139.5t137 98t179 37h375v-248h-375q-41 0 -75 -16.5t-59 -43t-39 -60.5t-14 -68q0 -35 14 -68.5t38.5 -59.5t59 -42t75.5 -16h404v-248h-980v248h206z"/>
    <glyph glyph-name="ainmedial" unicode="ع" horiz-adv-x="1086" arabic-form="medial" d="M-5 391h262q-23 37 -46.5 72t-46.5 71q-30 46 -44 92t-14 90q0 57 23.5 110.5t67 95t104.5 66.5t137 25h216q68 0 128.5 -22t106 -62t72 -95t26.5 -122q0 -43 -15.5 -88.5t-43.5 -89.5q-13 -20 -24 -37t-21.5 -33.5t-22 -34t-24.5 -38.5h260v-248h-1101v248zM546 400 q44 67 87.5 134.5t87.5 134.5q18 29 18 47q0 12 -7.5 21.5t-20 16t-27.5 9.5t-30 3h-216q-33 1 -58.5 -14.5t-25.5 -35.5q0 -19 17 -47z"/>
    <glyph glyph-name="ghainisolated" unicode="غ" horiz-adv-x="1131" arabic-form="isolated" d="M545 143q-55 -5 -100 -22.5t-76.5 -42.5t-49 -56t-17.5 -64q0 -46 29.5 -95.5t91.5 -91.5l-139 -205q-57 39 -100 85.5t-71.5 96.5t-43 102.5t-14.5 105.5q0 57 15.5 111.5t46 104t75.5 90.5t105 71q-32 54 -57.5 116.5t-25.5 127.5q0 83 29 161.5t84 139.5t133.5 98 t177.5 37h375v-248h-375q-41 0 -73.5 -16.5t-55.5 -43t-35.5 -60.5t-12.5 -68q0 -35 12.5 -68.5t35.5 -59.5t55.5 -42t73.5 -16h404v-248h-497zM476 1252q0 28 10 52t28 42t42 28t51 10q28 0 52 -10t42 -28t28.5 -42t10.5 -52q0 -27 -10.5 -51t-28.5 -42t-42 -28t-52 -10 q-27 0 -51 10t-42 28t-28 42t-10 51z"/>
    <glyph glyph-name="ghainfinal" unicode="غ" horiz-adv-x="1151" arabic-form="final" d="M541 143q-62 -4 -107.5 -21t-75.5 -42.5t-45 -57.5t-15 -65q0 -47 30 -95.5t90 -90.5l-139 -205q-116 79 -172.5 182.5t-56.5 209.5q0 63 20 124.5t59.5 114.5t97 95.5t132.5 66.5q-29 44 -57.5 87.5t-56.5 87.5q-27 43 -40.5 89t-13.5 88q0 61 24 116t67.5 96.5 t104 65.5t132.5 24h216q73 0 134 -24t105 -65t68 -95.5t24 -115.5q0 -44 -13.5 -89.5t-42.5 -89.5l-93 -143h243v-248h-619zM627 400q45 67 88 134.5t87 134.5q7 11 11.5 23t4.5 21q0 23 -22.5 38t-60.5 15h-215q-39 -2 -61 -16.5t-22 -36.5q0 -9 4 -20.5t11 -23.5z M476 1252q0 28 10 52t28 42t42 28t51 10q28 0 52 -10t42 -28t28.5 -42t10.5 -52q0 -27 -10.5 -51t-28.5 -42t-42 -28t-52 -10q-27 0 -51 10t-42 28t-28 42t-10 51z"/>
    <glyph glyph-name="ghaininitial" unicode="غ" horiz-adv-x="1076" arabic-form="initial" d="M199 391q-13 17 -24.5 39t-20.5 46.5t-14 50.5t-5 50q0 83 30.5 161.5t87.5 139.5t137 98t179 37h375v-248h-375q-41 0 -75 -16.5t-59 -43t-39 -60.5t-14 -68q0 -35 14 -68.5t38.5 -59.5t59 -42t75.5 -16h404v-248h-980v248h206zM407 1252q0 28 10 52t28 42t42 28t51 10 q28 0 52 -10t42 -28t28.5 -42t10.5 -52q0 -27 -10.5 -51t-28.5 -42t-42 -28t-52 -10q-27 0 -51 10t-42 28t-28 42t-10 51z"/>
    <glyph glyph-name="ghainmedial" unicode="غ" horiz-adv-x="1086" arabic-form="medial" d="M-5 391h262q-23 37 -46.5 72t-46.5 71q-30 46 -44 92t-14 90q0 57 23.5 110.5t67 95t104.5 66.5t137 25h216q68 0 128.5 -22t106 -62t72 -95t26.5 -122q0 -43 -15.5 -88.5t-43.5 -89.5q-13 -20 -24 -37t-21.5 -33.5t-22 -34t-24.5 -38.5h260v-248h-1101v248zM546 400 q44 67 87.5 134.5t87.5 134.5q18 29 18 47q0 12 -7.5 21.5t-20 16t-27.5 9.5t-30 3h-216q-33 1 -58.5 -14.5t-25.5 -35.5q0 -19 17 -47zM407 1252q0 28 10 52t28 42t42 28t51 10q28 0 52 -10t42 -28t28.5 -42t10.5 -52q0 -27 -10.5 -51t-28.5 -42t-42 -28t-52 -10 q-27 0 -51 10t-42 28t-28 42t-10 51z"/>
    <glyph glyph-name="fehisolated" unicode="ف" horiz-adv-x="1419" arabic-form="isolated" d="M567 391q-19 44 -27 90.5t-8 95.5q0 83 26 161.5t77 139.5t126.5 98t174.5 37h256q32 0 59.5 -12.5t48 -33.5t32.5 -49.5t12 -59.5l1 -591q0 -26 -10 -48.5t-26.5 -39.5t-39.5 -26.5t-48 -9.5h-758q-116 0 -196 34.5t-129.5 91t-71.5 129t-22 147.5q0 42 7 84.5t18 83.5 t26 78.5t31 68.5l219 -114q-21 -41 -37 -95.5t-16 -108.5q0 -30 6.5 -57.5t23.5 -48t48 -33t81 -13.5q3 1 6 1h6h104zM794 492q16 -43 51 -72t91 -29h161v374h-161q-41 0 -70.5 -16.5t-48.5 -43.5t-28.5 -60.5t-9.5 -67.5q0 -43 15 -85zM821 1252q0 28 10 52t28 42t42 28 t51 10q28 0 52 -10t42 -28t28.5 -42t10.5 -52q0 -27 -10.5 -51t-28.5 -42t-42 -28t-52 -10q-27 0 -51 10t-42 28t-28 42t-10 51z"/>
    <glyph glyph-name="fehfinal" unicode="ف" horiz-adv-x="1483" arabic-form="final" d="M465 143q-116 0 -196 34.5t-129.5 91t-71.5 129t-22 147.5q0 42 7 84.5t18 83.5t26 78.5t31 68.5l219 -114q-21 -41 -37 -95.5t-16 -108.5q0 -30 6.5 -57.5t23.5 -48t48 -33t81 -13.5q3 1 6 1h6h104q-19 44 -27 90.5t-8 95.5q0 83 26 161.5t77 139.5t126.5 98t174.5 37 h256q32 0 59.5 -12.5t48 -33.5t32.5 -49.5t12 -59.5v-467h147v-248h-1028zM796 492q16 -43 51 -72t91 -29h161v374h-161q-41 0 -70.5 -16.5t-48.5 -43.5t-28.5 -60.5t-9.5 -67.5q0 -43 15 -85zM821 1252q0 28 10 52t28 42t42 28t51 10q28 0 52 -10t42 -28t28.5 -42t10.5 -52 q0 -27 -10.5 -51t-28.5 -42t-42 -28t-52 -10q-27 0 -51 10t-42 28t-28 42t-10 51z"/>
    <glyph glyph-name="fehinitial" unicode="ف" horiz-adv-x="1037" arabic-form="initial" d="M-6 143v248h195q-18 44 -26.5 90.5t-8.5 95.5q0 83 26 161.5t77.5 139.5t127 98t174.5 37h256q31 0 59 -12.5t48 -33.5t32 -49.5t12 -59.5l1 -591q0 -26 -9.5 -48.5t-26.5 -39.5t-39.5 -26.5t-47.5 -9.5h-850zM417 492q15 -43 50.5 -72t91.5 -29h160v374h-160 q-41 0 -70.5 -16.5t-49 -43.5t-29 -60.5t-9.5 -67.5q0 -44 16 -85zM428 1252q0 28 10 52t28 42t42 28t51 10q28 0 52 -10t42 -28t28.5 -42t10.5 -52q0 -27 -10.5 -51t-28.5 -42t-42 -28t-52 -10q-27 0 -51 10t-42 28t-28 42t-10 51z"/>
    <glyph glyph-name="fehmedial" unicode="ف" horiz-adv-x="1076" arabic-form="medial" d="M-10 143v248h176q-18 44 -26.5 90.5t-8.5 95.5q0 83 26 161.5t77.5 139.5t127 98t174.5 37h256q32 0 59.5 -12.5t48 -33.5t32.5 -49.5t12 -59.5v-467h145v-248h-1099zM394 492q15 -43 50.5 -72t91.5 -29h161v374h-161q-41 0 -70.5 -16.5t-49 -43.5t-29 -60.5t-9.5 -67.5 q0 -44 16 -85zM428 1252q0 28 10 52t28 42t42 28t51 10q28 0 52 -10t42 -28t28.5 -42t10.5 -52q0 -27 -10.5 -51t-28.5 -42t-42 -28t-52 -10q-27 0 -51 10t-42 28t-28 42t-10 51z"/>
    <glyph glyph-name="qafisolated" unicode="ق" horiz-adv-x="1419" arabic-form="isolated" d="M567 391q-19 44 -27 90.5t-8 95.5q0 83 26 161.5t77 139.5t126.5 98t174.5 37h256q32 0 59.5 -12.5t48 -33.5t32.5 -49.5t12 -59.5l1 -591q0 -26 -10 -48.5t-26.5 -39.5t-39.5 -26.5t-48 -9.5h-758q-116 0 -196 34.5t-129.5 91t-71.5 129t-22 147.5q0 42 7 84.5t18 83.5 t26 78.5t31 68.5l219 -114q-21 -41 -37 -95.5t-16 -108.5q0 -30 6.5 -57.5t23.5 -48t48 -33t81 -13.5q3 1 6 1h6h104zM794 492q16 -43 51 -72t91 -29h161v374h-161q-41 0 -70.5 -16.5t-48.5 -43.5t-28.5 -60.5t-9.5 -67.5q0 -43 15 -85zM677 1252q0 28 10 52t28 42t42 28 t51 10q28 0 52 -10t42 -28t28.5 -42t10.5 -52q0 -27 -10.5 -51t-28.5 -42t-42 -28.5t-52 -10.5q-27 0 -51 10.5t-42 28.5t-28 42t-10 51zM975 1252q0 28 10 52t28 42t42 28t51 10q28 0 52 -10t42 -28t28.5 -42t10.5 -52q0 -27 -10.5 -51t-28.5 -42t-42 -28.5t-52 -10.5 q-27 0 -51 10.5t-42 28.5t-28 42t-10 51z"/>
    <glyph glyph-name="qaffinal" unicode="ق" horiz-adv-x="1483" arabic-form="final" d="M465 143q-116 0 -196 34.5t-129.5 91t-71.5 129t-22 147.5q0 42 7 84.5t18 83.5t26 78.5t31 68.5l219 -114q-21 -41 -37 -95.5t-16 -108.5q0 -30 6.5 -57.5t23.5 -48t48 -33t81 -13.5q3 1 6 1h6h104q-19 44 -27 90.5t-8 95.5q0 83 26 161.5t77 139.5t126.5 98t174.5 37 h256q32 0 59.5 -12.5t48 -33.5t32.5 -49.5t12 -59.5v-467h147v-248h-1028zM796 492q16 -43 51 -72t91 -29h161v374h-161q-41 0 -70.5 -16.5t-48.5 -43.5t-28.5 -60.5t-9.5 -67.5q0 -43 15 -85zM677 1252q0 28 10 52t28 42t42 28t51 10q28 0 52 -10t42 -28t28.5 -42t10.5 -52 q0 -27 -10.5 -51t-28.5 -42t-42 -28.5t-52 -10.5q-27 0 -51 10.5t-42 28.5t-28 42t-10 51zM975 1252q0 28 10 52t28 42t42 28t51 10q28 0 52 -10t42 -28t28.5 -42t10.5 -52q0 -27 -10.5 -51t-28.5 -42t-42 -28.5t-52 -10.5q-27 0 -51 10.5t-42 28.5t-28 42t-10 51z"/>
    <glyph glyph-name="qafinitial" unicode="ق" horiz-adv-x="1037" arabic-form="initial" d="M-6 143v248h195q-18 44 -26.5 90.5t-8.5 95.5q0 83 26 161.5t77.5 139.5t127 98t174.5 37h256q31 0 59 -12.5t48 -33.5t32 -49.5t12 -59.5l1 -591q0 -26 -9.5 -48.5t-26.5 -39.5t-39.5 -26.5t-47.5 -9.5h-850zM417 492q15 -43 50.5 -72t91.5 -29h160v374h-160 q-41 0 -70.5 -16.5t-49 -43.5t-29 -60.5t-9.5 -67.5q0 -44 16 -85zM285 1252q0 28 10 52t28 42t42 28t51 10q28 0 52 -10t42 -28t28.5 -42t10.5 -52q0 -27 -10.5 -51t-28.5 -42t-42 -28.5t-52 -10.5q-27 0 -51 10.5t-42 28.5t-28 42t-10 51zM583 1252q0 28 10 52t28 42 t42 28t51 10q28 0 52 -10t42 -28t28.5 -42t10.5 -52q0 -27 -10.5 -51t-28.5 -42t-42 -28.5t-52 -10.5q-27 0 -51 10.5t-42 28.5t-28 42t-10 51z"/>
    <glyph glyph-name="qafmedial" unicode="ق" horiz-adv-x="1086" arabic-form="medial" d="M-10 143v248h176q-18 44 -26.5 90.5t-8.5 95.5q0 83 26 161.5t77.5 139.5t127 98t174.5 37h256q32 0 59.5 -12.5t48 -33.5t32.5 -49.5t12 -59.5v-467h147v-248h-1101zM394 492q16 -43 51 -72t91 -29h161v374h-161q-41 0 -70.5 -16.5t-48.5 -43.5t-28.5 -60.5t-9.5 -67.5 q0 -21 3.5 -42.5t11.5 -42.5zM285 1252q0 28 10 52t28 42t42 28t51 10q28 0 52 -10t42 -28t28.5 -42t10.5 -52q0 -27 -10.5 -51t-28.5 -42t-42 -28.5t-52 -10.5q-27 0 -51 10.5t-42 28.5t-28 42t-10 51zM583 1252q0 28 10 52t28 42t42 28t51 10q28 0 52 -10t42 -28t28.5 -42 t10.5 -52q0 -27 -10.5 -51t-28.5 -42t-42 -28.5t-52 -10.5q-27 0 -51 10.5t-42 28.5t-28 42t-10 51z"/>
    <glyph glyph-name="kafisolated" unicode="ك" horiz-adv-x="1300" arabic-form="isolated" d="M1202 1357v-1090q0 -26 -9.5 -48.5t-26.5 -39.5t-39.5 -26.5t-48.5 -9.5h-601q-118 0 -198 35t-129 92t-70 129t-21 146q0 42 6.5 84.5t18 83.5t26 78.5t30.5 68.5l219 -114q-22 -41 -37.5 -95.5t-15.5 -108.5q0 -31 6.5 -58.5t24.5 -48t49.5 -32.5t81.5 -13 q126 0 243.5 0.5t243.5 0.5v966h247zM485 975q-3 13 -5 26.5t-2 26.5q0 42 15 81.5t45 71t74 50.5t102 19h128v-167l-128 1q-36 0 -53 -17.5t-17 -38.5q0 -20 15 -35.5t48 -17.5h151v-168h-432v168h59z"/>
    <glyph glyph-name="arabickaffinal" unicode="ك" horiz-adv-x="1364" arabic-form="final" d="M480 143q-118 0 -198.5 35t-129.5 92t-70 129t-21 146q0 42 6.5 84.5t18 83.5t26 78.5t30.5 68.5l219 -114q-21 -41 -37 -95.5t-16 -108.5q0 -31 6.5 -58.5t24.5 -48t49.5 -32.5t81.5 -13q126 0 243.5 0.5t243.5 0.5v966h247v-966h174v-248h-898zM485 975q-3 13 -5 26.5 t-2 26.5q0 42 15 81.5t45 71t74 50.5t102 19h128v-167l-128 1q-36 0 -53 -17.5t-17 -38.5q0 -20 15 -35.5t48 -17.5h151v-168h-432v168h59z"/>
    <glyph glyph-name="kafinitial" unicode="ك" horiz-adv-x="1250" arabic-form="initial" d="M-10 391h944v82q0 46 -3 71.5t-13.5 37.5t-31 15t-56.5 3q-127 0 -252 1t-253 1q-46 0 -79.5 14.5t-55.5 38.5t-33 55.5t-11 67.5q0 32 8.5 65.5t24.5 67.5q52 105 136.5 185t188 134.5t218.5 82t226 27.5h12t16 -0.5t15 -0.5h11l-8 -248q-79 7 -161.5 -3.5t-158 -40.5 t-139.5 -79.5t-105 -119.5h334q122 0 203 -7t129 -40t67.5 -102t19.5 -192v-112q0 -29 -0.5 -60.5t-0.5 -67.5q0 -26 -9.5 -48.5t-26.5 -39.5t-39.5 -26.5t-47.5 -9.5h-1069v248z"/>
    <glyph glyph-name="kafmedial" unicode="ك" horiz-adv-x="1329" arabic-form="medial" d="M-8 391h945v82q0 46 -3 71.5t-13.5 37.5t-31.5 15t-57 3q-127 0 -252 1t-252 1q-46 0 -80 14.5t-56 38.5t-32.5 55.5t-10.5 67.5q0 65 33 133q52 105 136.5 185t188 134.5t218 82t225.5 27.5h12t16 -0.5t15 -0.5h12l-9 -248q-74 11 -153 2t-154.5 -39t-142 -81.5 t-113.5 -124.5h333q122 0 203 -7t129 -40t68 -102t20 -192v-116h160v-248h-1354v248z"/>
    <glyph glyph-name="lamisolated" unicode="ل" horiz-adv-x="1027" arabic-form="isolated" d="M320 604v-378q0 -42 16 -72.5t42 -50.5t59.5 -30t68.5 -10q36 0 69.5 10t59.5 30t41.5 50.5t15.5 72.5v1131h249v-1131q0 -101 -37.5 -177.5t-98.5 -128.5t-139.5 -78.5t-159.5 -26.5q-82 0 -160 26.5t-139 78.5t-98 128.5t-37 177.5v378h248z"/>
    <glyph glyph-name="lamfinal" unicode="ل" horiz-adv-x="1106" arabic-form="final" d="M936 143q-14 -82 -55 -143.5t-99.5 -102.5t-129.5 -61.5t-144 -20.5q-82 0 -160 26.5t-138.5 78.5t-97.5 128.5t-37 177.5v378h248v-378q0 -42 15.5 -72.5t41.5 -50.5t59.5 -30t68.5 -10q36 0 69.5 10t59.5 30t41.5 50.5t15.5 72.5v1131h249v-966h178v-248h-185z"/>
    <glyph glyph-name="laminitial" unicode="ل" horiz-adv-x="516" arabic-form="initial" d="M-10 391h187v966h247v-1079q3 -27 -6 -51.5t-26 -43t-41 -29.5t-51 -11h-310v248z"/>
    <glyph glyph-name="lammedial" unicode="ل" horiz-adv-x="605" arabic-form="medial" d="M-6 143v248h192v966h247v-966h178v-248h-617z"/>
    <glyph glyph-name="meemisolated" unicode="م" horiz-adv-x="1230" arabic-form="isolated" d="M345 609q1 70 33 143t87.5 131.5t130 95t158.5 34.5q74 -1 147.5 -2t147.5 -2q25 0 47.5 -10t39.5 -26.5t26.5 -39t9.5 -47.5v-619q0 -26 -9.5 -48.5t-26.5 -39.5t-39.5 -26.5t-47.5 -9.5h-590q-36 0 -64.5 -3.5t-49 -16.5t-31.5 -37t-11 -64v-354h-248v354q0 81 22 143 t60.5 105.5t91.5 71t116 39.5v228zM594 390h330v373q-68 1 -103 1.5t-50.5 1t-17.5 0.5h-2q-30 0 -58.5 -13t-50.5 -35t-35 -51.5t-13 -62.5v-214z"/>
    <glyph glyph-name="meemfinal" unicode="م" horiz-adv-x="1309" arabic-form="final" d="M348 609q0 47 15 96t41.5 94t64 85t83 69t97.5 45t108 15q73 -1 146.5 -2t147.5 -2q25 0 47.5 -10t39.5 -26.5t26.5 -39t9.5 -47.5v-495h147v-248h-860q-36 0 -64.5 -3.5t-49 -16.5t-31.5 -37t-11 -64v-354h-248v354q0 81 22 143t60.5 105.5t92 71t116.5 39.5v228z M596 390q85 0 164 0.5t166 0.5v372q-68 1 -103 1.5t-50.5 1t-17.5 0.5h-2q-30 0 -58.5 -13t-50.5 -35t-35 -51.5t-13 -62.5v-214z"/>
    <glyph glyph-name="meeminitial" unicode="م" horiz-adv-x="1057" arabic-form="initial" d="M-9 391h164v218q0 72 32 145t87.5 131.5t130 94.5t160.5 33l146 -2t148 -2q25 0 47.5 -10t39.5 -26.5t26.5 -39t9.5 -47.5v-610q0 -27 -8.5 -51.5t-24.5 -42.5t-39 -28.5t-51 -10.5h-868v248zM403 391h331v372q-52 1 -88 1.5t-53 0.5q-12 0 -18.5 0.5t-9.5 0.5h-4h-2 q-29 0 -57.5 -13.5t-50.5 -35.5t-35 -49.5t-13 -57.5v-219z"/>
    <glyph glyph-name="meemmedial" unicode="م" horiz-adv-x="1116" arabic-form="medial" d="M-8 143v248h160v218q0 71 31.5 144.5t87 132t130 94.5t160.5 33q74 -1 147 -2t148 -2q25 0 47.5 -10t39.5 -26.5t26.5 -39t9.5 -47.5v-495h147v-248h-1134zM400 391h331v372q-52 1 -88 1.5t-53 0.5q-12 0 -18.5 0.5t-9.5 0.5h-4h-2q-29 0 -57.5 -13.5t-50.5 -35.5 t-35 -49.5t-13 -57.5v-219z"/>
    <glyph glyph-name="noonisolated" unicode="ن" horiz-adv-x="982" arabic-form="isolated" d="M305 604v-378q0 -42 15.5 -72.5t41.5 -50.5t59.5 -30t69.5 -10t69.5 10t59.5 30t41.5 50.5t15.5 72.5v742h249v-742q0 -101 -37.5 -177.5t-98.5 -128.5t-139.5 -78.5t-159.5 -26.5q-82 0 -160 26.5t-139 78.5t-98 128.5t-37 177.5v378h248zM360 1173q0 28 10 52t28 42 t42 28t51 10q28 0 52 -10t42 -28t28.5 -42t10.5 -52q0 -27 -10.5 -51t-28.5 -42t-42 -28t-52 -10q-27 0 -51 10t-42 28t-28 42t-10 51z"/>
    <glyph glyph-name="noonfinal" unicode="ن" horiz-adv-x="1066" arabic-form="final" d="M920 143q-14 -82 -54.5 -143.5t-99 -102.5t-129.5 -61.5t-144 -20.5q-82 0 -160 26.5t-139 78.5t-98 128.5t-37 177.5v378h248v-378q0 -42 15.5 -72.5t41.5 -50.5t59.5 -30t69.5 -10t69.5 10t59.5 30t41.5 50.5t15.5 72.5v742h249v-577h148v-248h-156zM365 1168 q0 28 10 52t28 42t42 28t51 10q28 0 52 -10t42 -28t28.5 -42t10.5 -52q0 -27 -10.5 -51t-28.5 -42t-42 -28t-52 -10q-27 0 -51 10t-42 28t-28 42t-10 51z"/>
    <glyph glyph-name="nooninitial" unicode="ن" horiz-adv-x="595" arabic-form="initial" d="M-8 391h274v590h247v-703q1 -3 1 -6v-5q0 -26 -10 -48.5t-27 -39.5t-39.5 -26.5t-48.5 -9.5h-397v248zM184 1252q0 28 10 52t28 42t42 28t51 10q28 0 52 -10t42 -28t28.5 -42t10.5 -52q0 -27 -10.5 -51t-28.5 -42t-42 -28t-52 -10q-27 0 -51 10t-42 28t-28 42t-10 51z "/>
    <glyph glyph-name="noonmedial" unicode="ن" horiz-adv-x="605" arabic-form="medial" d="M190 391v590h247v-586h178v-249l-621 -3v248h196zM184 1252q0 28 10 52t28 42t42 28t51 10q28 0 52 -10t42 -28t28.5 -42t10.5 -52q0 -27 -10.5 -51t-28.5 -42t-42 -28t-52 -10q-27 0 -51 10t-42 28t-28 42t-10 51z"/>
    <glyph glyph-name="hehisolated" unicode="ه" horiz-adv-x="962" arabic-form="isolated" d="M735 1013q31 0 58.5 -11.5t48.5 -32t33 -48.5t12 -61l1 -567q0 -45 -28.5 -79t-71.5 -43q-74 -20 -153 -30t-159 -10q-34 0 -76.5 1t-86 5t-85.5 14t-76.5 28t-57.5 46t-29 68v308q0 85 32 160t88 131t130.5 88.5t160.5 32.5h259zM476 379q81 0 163 14v372q-40 0 -81 0.5 t-82 0.5q-33 0 -63 -13.5t-52.5 -36t-35 -52.5t-12.5 -63l1 -209q46 -10 79.5 -11.5t72.5 -1.5h10z"/>
    <glyph glyph-name="hehfinal" unicode="ه" horiz-adv-x="1032" arabic-form="final" d="M1042 143h-290q-29 0 -52 10.5t-39 28.5t-24.5 42t-8.5 51l-2 490q-42 0 -82.5 0.5t-82.5 0.5q-33 0 -62.5 -13.5t-52 -36t-35.5 -52.5t-13 -63l1 -208q18 -3 47.5 -7t61 -7t61 -5t47.5 -2v-248q-38 0 -88 4t-101 10.5t-98.5 15t-81.5 18.5l2 -1q-42 9 -70 43t-28 79v308 q0 85 32 160t87.5 131t130.5 88.5t160 32.5h259q30 0 57.5 -11.5t48.5 -32t33.5 -47t12.5 -56.5l3 -475h167v-248z"/>
    <glyph glyph-name="hehinitial" unicode="ه" horiz-adv-x="1389" arabic-form="initial" d="M-13 143v248h153q-4 28 -4.5 60.5t-0.5 57.5q0 90 30.5 173t82.5 149t120 110.5t143 58.5q31 5 67.5 7.5t78.5 2.5q68 0 142 -10.5t146.5 -38.5t138.5 -76.5t117 -125t83 -183t36 -251.5l1 -179zM641 641q0 46 -18 76.5t-44 37.5q-32 3 -62.5 -12t-56.5 -43t-45 -66 t-29 -80v1q-1 -9 -1.5 -18.5t-0.5 -17.5q0 -22 4.5 -43.5t14.5 -39.5t26.5 -29t40.5 -12q31 5 62 28t55 56.5t39 75.5t15 86zM1071 393q-5 69 -21.5 121t-41.5 90t-56.5 63.5t-67.5 42.5q2 -17 3.5 -34t1.5 -34q0 -66 -15.5 -129.5t-46.5 -119.5h244z"/>
    <glyph glyph-name="hehmedial" unicode="ه" horiz-adv-x="1463" arabic-form="medial" d="M-11 143v248h165q-8 29 -12.5 60t-4.5 58q0 90 30.5 173t82.5 149t120 110.5t143 58.5q31 5 67.5 7.5t77.5 2.5q65 0 136.5 -9.5t141.5 -35t134.5 -70t116.5 -113t87 -165t46 -226.5h153v-248h-1484zM569 757q-29 0 -57.5 -17t-52.5 -45t-42 -64.5t-28 -76.5 q-5 -25 -5 -43q0 -22 5 -42t15.5 -36t27 -26.5t40.5 -11.5q31 5 62 28t55 56.5t39 75.5t15 86q0 48 -17 79t-45 36zM1073 392q-5 69 -21.5 121.5t-41.5 90.5t-56.5 63.5t-67.5 42.5q6 -33 6 -68q0 -66 -16 -130.5t-47 -119.5h244z"/>
    <glyph glyph-name="wawisolated" unicode="و" horiz-adv-x="982" arabic-form="isolated" d="M731 1013q32 0 59.5 -12t48 -32.5t32.5 -48.5t12 -60q-1 -24 -0.5 -64.5t0.5 -89.5q0 -48 0.5 -100t0 -97t-2 -79t-3.5 -48q-7 -210 -50.5 -348.5t-120.5 -220.5t-185 -115.5t-243 -33.5v248q149 0 230.5 57t100.5 175q-49 -7 -110 -12.5t-123.5 2t-121.5 32.5t-104 78 t-70 140t-19 217q0 85 32 160t87.5 131t130.5 88.5t160 32.5h259zM638 765q-42 0 -83 0.5t-83 0.5q-33 0 -62.5 -13.5t-52 -36t-35.5 -52.5t-13 -63q-4 -71 2.5 -117.5t26.5 -74t54 -39.5t84 -15q54 1 87 6t50.5 20.5t23.5 45t6 79.5z"/>
    <glyph glyph-name="wawfinal" unicode="و" horiz-adv-x="1037" arabic-form="final" d="M859 143q-23 -99 -66 -186.5t-112 -152.5t-168 -102.5t-234 -37.5v248q149 0 230.5 57t100.5 175q-49 -7 -110 -12.5t-123.5 2t-121.5 32.5t-104 78t-70 140t-19 217q0 85 32 160t87.5 131t130.5 88.5t160 32.5h259q32 0 59.5 -12t48 -32.5t32.5 -48.5t12 -60 q0 -36 1 -75t3 -83q2 -48 4 -102t2 -106q0 -26 -0.5 -51.5t-1.5 -51.5h154v-248h-186zM638 765q-42 0 -83 0.5t-83 0.5q-33 0 -62.5 -13.5t-52 -36t-35.5 -52.5t-13 -63q-4 -71 2.5 -117.5t26.5 -74t54 -39.5t84 -15q54 1 87 6t50.5 20.5t23.5 45t6 79.5z"/>
    <glyph glyph-name="alefmaksuraisolated" unicode="ى" horiz-adv-x="1148" arabic-form="isolated" d="M342 417q-20 -25 -33 -56t-17 -62.5t3 -61.5t27 -52.5t54.5 -35t85.5 -10.5h286q51 0 69 23t18 54q0 29 -10.5 49.5t-30 35.5t-47.5 26.5t-62 23.5q-56 19 -109.5 41t-95 58t-67 92t-25.5 143q0 100 35.5 171t93.5 116.5t131.5 66.5t148.5 21t150.5 -20.5t136.5 -53.5 l-120 -217q-38 20 -82.5 32t-86.5 12q-32 0 -61 -6.5t-51 -21.5t-35 -40.5t-13 -64.5q0 -19 11 -33t29 -24.5t40.5 -19t46.5 -16.5q36 -12 72 -25t69.5 -31.5t63.5 -44.5t55 -63q29 -45 45 -98.5t16 -107.5q0 -60 -20 -118.5t-62 -105t-106 -75t-151 -28.5l-282 2 q-117 0 -197.5 35t-129.5 91.5t-70.5 128.5t-21.5 147q0 42 6.5 72.5t17.5 57t25.5 51.5t30.5 56z"/>
    <glyph glyph-name="alefmaksurafinal" unicode="ى" horiz-adv-x="1493" arabic-form="final" d="M341 746q-21 -40 -36.5 -95t-15.5 -108q1 -31 7.5 -59t24.5 -49t51.5 -33t87.5 -12l238 1v261q0 86 24 153.5t70.5 113.5t113.5 70t154 24l178 -4q26 0 48 -10.5t38.5 -28t26 -40.5t9.5 -48v-491h148v-248h-272q-26 0 -48 9.5t-39 26.5t-26.5 39.5t-9.5 48.5v497 q-14 1 -28.5 1.5t-28.5 0.5q-32 0 -53.5 -6t-34 -19.5t-18 -35t-5.5 -53.5l1 -376q0 -27 -8.5 -51.5t-24.5 -42.5t-39 -28.5t-52 -10.5h-362q-116 0 -196 34.5t-129.5 91t-71.5 129t-22 147.5q0 42 6.5 84.5t18 83.5t26 78.5t30.5 68.5z"/>
    <glyph glyph-name="yehisolated" unicode="ي" horiz-adv-x="1148" arabic-form="isolated" d="M342 417q-20 -25 -33 -56t-17 -62.5t3 -61.5t27 -52.5t54.5 -35t85.5 -10.5h286q51 0 69 23t18 54q0 29 -10.5 49.5t-30 35.5t-47.5 26.5t-62 23.5q-56 19 -109.5 41t-95 58t-67 92t-25.5 143q0 100 35.5 171t93.5 116.5t131.5 66.5t148.5 21t150.5 -20.5t136.5 -53.5 l-120 -217q-38 20 -82.5 32t-86.5 12q-32 0 -61 -6.5t-51 -21.5t-35 -40.5t-13 -64.5q0 -19 11 -33t29 -24.5t40.5 -19t46.5 -16.5q36 -12 72 -25t69.5 -31.5t63.5 -44.5t55 -63q29 -45 45 -98.5t16 -107.5q0 -60 -20 -118.5t-62 -105t-106 -75t-151 -28.5l-282 2 q-117 0 -197.5 35t-129.5 91.5t-70.5 128.5t-21.5 147q0 42 6.5 72.5t17.5 57t25.5 51.5t30.5 56zM320 -350q0 28 10 52t28 42t42 28t51 10q28 0 52 -10t42 -28t28.5 -42t10.5 -52q0 -27 -10.5 -51t-28.5 -42t-42 -28.5t-52 -10.5q-27 0 -51 10.5t-42 28.5t-28 42t-10 51z M618 -350q0 28 10 52t28 42t42 28t51 10q28 0 52 -10t42 -28t28.5 -42t10.5 -52q0 -27 -10.5 -51t-28.5 -42t-42 -28.5t-52 -10.5q-27 0 -51 10.5t-42 28.5t-28 42t-10 51z"/>
    <glyph glyph-name="yehfinal" unicode="ي" horiz-adv-x="1493" arabic-form="final" d="M341 746q-21 -40 -36.5 -95t-15.5 -108q1 -31 7.5 -59t24.5 -49t51.5 -33t87.5 -12l238 1v261q0 86 24 153.5t70.5 113.5t113.5 70t154 24l178 -4q26 0 48 -10.5t38.5 -28t26 -40.5t9.5 -48v-491h148v-248h-272q-26 0 -48 9.5t-39 26.5t-26.5 39.5t-9.5 48.5v497 q-14 1 -28.5 1.5t-28.5 0.5q-32 0 -53.5 -6t-34 -19.5t-18 -35t-5.5 -53.5l1 -376q0 -27 -8.5 -51.5t-24.5 -42.5t-39 -28.5t-52 -10.5h-362q-116 0 -196 34.5t-129.5 91t-71.5 129t-22 147.5q0 42 6.5 84.5t18 83.5t26 78.5t30.5 68.5zM568 -124q0 28 10 52t28 42t42 28 t51 10q28 0 52 -10t42 -28t28.5 -42t10.5 -52q0 -27 -10.5 -51t-28.5 -42t-42 -28.5t-52 -10.5q-27 0 -51 10.5t-42 28.5t-28 42t-10 51zM270 -124q0 28 10 52t28 42t42 28t51 10q28 0 52 -10t42 -28t28.5 -42t10.5 -52q0 -27 -10.5 -51t-28.5 -42t-42 -28.5t-52 -10.5 q-27 0 -51 10.5t-42 28.5t-28 42t-10 51z"/>
    <glyph glyph-name="yehinitial" unicode="ي" horiz-adv-x="704" arabic-form="initial" d="M-10 391h385v590h247v-703q1 -3 1 -6v-5q0 -26 -9.5 -48.5t-26.5 -39.5t-39.5 -26.5t-48.5 -9.5h-509v248zM314 -124q0 28 10 52t28 42t42 28t51 10q28 0 52 -10t42 -28t28.5 -42t10.5 -52q0 -27 -10.5 -51t-28.5 -42t-42 -28.5t-52 -10.5q-27 0 -51 10.5t-42 28.5 t-28 42t-10 51zM16 -124q0 28 10 52t28 42t42 28t51 10q28 0 52 -10t42 -28t28.5 -42t10.5 -52q0 -27 -10.5 -51t-28.5 -42t-42 -28.5t-52 -10.5q-27 0 -51 10.5t-42 28.5t-28 42t-10 51z"/>
    <glyph glyph-name="yehmedial" unicode="ي" horiz-adv-x="580" arabic-form="medial" d="M175 391v590h247v-590h178v-248h-621v248h196zM305 -124q0 28 10 52t28 42t42 28t51 10q28 0 52 -10t42 -28t28.5 -42t10.5 -52q0 -27 -10.5 -51t-28.5 -42t-42 -28.5t-52 -10.5q-27 0 -51 10.5t-42 28.5t-28 42t-10 51zM7 -124q0 28 10 52t28 42t42 28t51 10 q28 0 52 -10t42 -28t28.5 -42t10.5 -52q0 -27 -10.5 -51t-28.5 -42t-42 -28.5t-52 -10.5q-27 0 -51 10.5t-42 28.5t-28 42t-10 51z"/>
    <glyph glyph-name=".null"/>
    <glyph glyph-name="nonmarkingreturn" horiz-adv-x="682"/>
    <glyph glyph-name="space" unicode=" " horiz-adv-x="435"/>
    <glyph glyph-name="exclam" unicode="!" horiz-adv-x="637" d="M167 1247q0 19 7.5 36.5t20 30t29.5 20t37 7.5h125q19 0 36.5 -7.5t30 -20t20 -30t7.5 -36.5l-44 -622q0 -20 -7.5 -37t-20 -29.5t-30 -20t-36.5 -7.5h-37q-20 0 -37 7.5t-29.5 20t-20 29.5t-7.5 37zM481 296q0 -33 -12 -61.5t-33 -49.5t-49.5 -33.5t-61.5 -12.5 t-61.5 12.5t-49.5 33.5t-33 49.5t-12 61.5q0 32 12 60.5t33 49.5t49.5 33.5t61.5 12.5t61.5 -12.5t49.5 -33.5t33 -49.5t12 -60.5z"/>
    <glyph glyph-name="quotedbl" unicode="&quot;" horiz-adv-x="620" d="M501 1541l11 -384q0 -19 -10.5 -33t-27 -23t-37 -13.5t-39.5 -4.5l-68 363q0 19 7.5 36.5t20 30.5t29.5 20.5t37 7.5h77zM251 1541l11 -384q0 -19 -10.5 -33t-27 -23t-37 -13.5t-39.5 -4.5l-68 363q0 19 7.5 36.5t20 30.5t29.5 20.5t37 7.5h77z"/>
    <glyph glyph-name="numbersign" unicode="#" horiz-adv-x="991" d="M497 1393l-50 -348h173l50 348h170l-50 -348h168l-23 -163h-169l-31 -218h170l-23 -163h-169l-51 -353h-170l51 353h-173l-51 -353h-169l50 353h-168l23 163h168l31 218h-169l23 163h170l49 348h170zM424 882l-32 -218h174l31 218h-173z"/>
    <glyph glyph-name="dollar" unicode="$" horiz-adv-x="991" d="M528 1535v-123q173 -8 271 -94q108 -96 108 -272h-228q0 98 -43 141q-34 34 -108 40v-337l22 -7q209 -60 296 -147t87 -238q0 -176 -120 -279q-108 -95 -285 -103v-173h-81v172q-189 12 -291.5 107.5t-102.5 276.5l1 31h242q-5 -114 43 -169q39 -41 108 -52v373 q-189 60 -275 137q-92 84 -92 224q0 170 111 270q98 87 256 97v125h81zM528 308q69 7 112 46q53 46 53 127q0 69 -47 114q-37 35 -118 61v-348zM447 1225q-56 -8 -91 -38q-50 -42 -50 -117q0 -62 57 -106q31 -24 84 -46v307z"/>
    <glyph glyph-name="percent" unicode="%" horiz-adv-x="829" d="M719 1446l-419 -1391l-238 -127l418 1391zM640 361q28 0 53 -11t43.5 -29.5t29.5 -44t11 -53.5t-11 -53t-29.5 -43.5t-43.5 -29t-53 -10.5t-52.5 10.5t-43 29t-29 43.5t-10.5 53t10.5 53.5t29 44t43 29.5t52.5 11zM147 1265q28 0 53 -10.5t43.5 -29t29 -43.5t10.5 -53 t-10.5 -53t-29 -43.5t-43.5 -29.5t-53 -11t-53 11t-43.5 29.5t-29.5 43.5t-11 53t11 53t29.5 43.5t43.5 29t53 10.5z"/>
    <glyph glyph-name="ampersand" unicode="&amp;" horiz-adv-x="1287" d="M258 1119q0 142 90 225.5t245 83.5q143 0 227 -81.5t84 -219.5q0 -103 -71 -185q-49 -59 -142 -116l189 -230l17 34q43 92 52 183h220q-12 -128 -75 -261q-33 -69 -73 -127l228 -275h-295l-87 104q-73 -63 -134 -92q-89 -41 -231 -41q-186 0 -295.5 97t-109.5 263 q0 141 84 239q59 70 187 147l-7 8q-48 57 -75.5 123t-27.5 121zM537 326q60 0 117 33q36 21 79 58l-78 94l-160 198q-48 -34 -81 -67q-67 -68 -67 -147q0 -80 51 -125q50 -44 139 -44zM485 1138q0 -27 10.5 -56t30.5 -52l51 -63q35 25 62 51q55 56 55 110q0 52 -27.5 81.5 t-76.5 29.5q-50 0 -78 -27q-27 -26 -27 -74z"/>
    <glyph glyph-name="quotesingle" unicode="'" horiz-adv-x="390" d="M251 1541l11 -384q0 -19 -10.5 -33t-27 -23t-37 -13.5t-39.5 -4.5l-68 363q0 19 7.5 36.5t20 30.5t29.5 20.5t37 7.5h77z"/>
    <glyph glyph-name="parenleft" unicode="(" horiz-adv-x="612" d="M64 577q0 216 79.5 420t256.5 449h178q-132 -212 -189.5 -416t-57.5 -453q1 -249 58.5 -453t188.5 -415h-178q-177 244 -256 449q-80 203 -80 419z"/>
    <glyph glyph-name="parenright" unicode=")" horiz-adv-x="612" d="M548 577q0 -216 -79 -420t-258 -448h-176q131 212 189 416t57 452q-1 249 -58.5 453.5t-187.5 415.5h176q179 -245 257 -449q80 -204 80 -420z"/>
    <glyph glyph-name="asterisk" unicode="*" horiz-adv-x="891" d="M444 976l-152 -219l-121 81l171 213l-247 68l44 138l239 -82v257h134v-257l236 82l48 -138l-251 -68l173 -211l-119 -88z"/>
    <glyph glyph-name="plus" unicode="+" horiz-adv-x="1041" d="M418 499h-347v205h347v346h205v-346h346v-205h-346v-346h-205v346z"/>
    <glyph glyph-name="comma" unicode="," horiz-adv-x="495" d="M114 150v259h267v-223q0 -139 -65 -221t-202 -115v96q90 30 121 88q23 40 27 116h-148z"/>
    <glyph glyph-name="hyphenminus" unicode="-" horiz-adv-x="593" d="M48 767h497v-235h-497v235z"/>
    <glyph glyph-name="period" unicode="." horiz-adv-x="497" d="M254 398q28 0 53 -10.5t43.5 -29.5t29.5 -44t11 -53t-11 -52.5t-29.5 -43t-43.5 -29t-53 -10.5t-53 10.5t-43.5 29t-29 43t-10.5 52.5t10.5 53t29 44t43.5 29.5t53 10.5z"/>
    <glyph glyph-name="slash" unicode="/" horiz-adv-x="658" d="M658 1446l-420 -1391l-238 -127l419 1391z"/>
    <glyph glyph-name="zero" unicode="0" horiz-adv-x="1019" d="M59 721q-1 78 8.5 157.5t32 152.5t57.5 136.5t85.5 110t116.5 73.5t150 27t150 -27t116 -73.5t85 -110t57 -136.5t32 -152t10 -158q0 -78 -10 -157t-32 -152t-57 -137t-85 -111t-116 -74t-150 -27t-150 27t-116.5 73.5t-85.5 110t-57.5 137t-32 152.5t-8.5 158zM339 721 q0 -225 42 -331.5t128 -106.5q87 0 129 107.5t42 330.5q0 224 -42 332t-129 108q-86 0 -128 -107t-42 -333z"/>
    <glyph glyph-name="one" unicode="1" horiz-adv-x="1019" d="M457 87v986q-54 -36 -113.5 -78t-109.5 -76l-80 191l295 247h276v-1270h-268z"/>
    <glyph glyph-name="two" unicode="2" horiz-adv-x="1019" d="M935 87h-805l-29 212q43 45 96 95.5t107.5 104.5t107 110.5t94.5 114t70 114t33 111.5q-4 62 -27.5 102.5t-59.5 62.5t-81 27t-93 -4.5t-94.5 -31t-84.5 -53.5l-89 202q101 66 198 96t201 30q94 0 171 -32t131.5 -86.5t84.5 -126t30 -150.5q0 -67 -22 -130t-59.5 -122 t-85.5 -114t-100.5 -106t-104.5 -97t-97 -88h508v-241z"/>
    <glyph glyph-name="three" unicode="3" horiz-adv-x="1019" d="M132 1314q58 31 134.5 48.5t156 18t156.5 -17t137.5 -56t97.5 -99t37 -146.5q0 -85 -52 -163t-157 -133q125 -57 184.5 -139t59.5 -197q0 -98 -40.5 -168.5t-107 -115t-151 -65t-173 -19.5t-173.5 22.5t-151 61.5l58 182q37 -27 87 -41t103 -16t104 7t91 29.5t65 51 t25 71.5q0 36 -22 72.5t-66.5 65.5t-112 48t-157.5 20l-10 187q46 6 102.5 21.5t107 41.5t86 61.5t38.5 82.5q-4 44 -25 74t-53 47.5t-72 23t-81.5 2t-81.5 -15.5t-71 -30z"/>
    <glyph glyph-name="four" unicode="4" horiz-adv-x="1019" d="M565 87v288h-532v235l613 763h173v-750h122v-248h-122v-288h-254zM566 623l4 353l-291 -353h287z"/>
    <glyph glyph-name="five" unicode="5" horiz-adv-x="1019" d="M212 295q80 -29 160.5 -26t144.5 30.5t103.5 75.5t39.5 108q0 70 -33 109.5t-89 59t-130.5 24t-158.5 4.5h-67l-2 677h673v-231h-441v-204q122 -2 218 -32t162.5 -86t101 -137t33.5 -184q1 -99 -36 -173.5t-100 -126t-144.5 -81t-169.5 -38t-176 3.5t-163 42z"/>
    <glyph glyph-name="six" unicode="6" horiz-adv-x="1019" d="M87 529q0 113 37.5 231t106.5 230t166.5 211.5t217.5 175.5q12 -14 30 -37.5t37 -48t36.5 -46.5t26.5 -33q-223 -145 -312 -316q23 6 49 9.5t51 3.5q75 0 147.5 -27t130.5 -79.5t93.5 -130.5t35.5 -179q0 -94 -31.5 -172.5t-88 -135.5t-134.5 -88.5t-172 -31.5 q-103 0 -182.5 34t-134 95.5t-82.5 147t-28 187.5zM538 301q40 0 71.5 18t53 45t33 58t11.5 58q-5 43 -27 78t-54.5 60.5t-72.5 39.5t-82 14q-32 0 -63.5 -9t-59.5 -28q-15 -54 -9.5 -113.5t29.5 -109t67 -81.5t103 -30z"/>
    <glyph glyph-name="seven" unicode="7" horiz-adv-x="1019" d="M236 139l375 992h-529v226h814l-9 -212l-417 -1094z"/>
    <glyph glyph-name="eight" unicode="8" horiz-adv-x="1019" d="M509 1378q86 0 156 -31.5t119.5 -82t76.5 -114.5t27 -130q0 -75 -37 -143.5t-119 -116.5q115 -56 167 -136t52 -184q0 -85 -31.5 -154t-89.5 -120q-60 -50 -140.5 -76.5t-180.5 -26.5q-103 0 -183.5 26.5t-140.5 74.5q-57 51 -87.5 121.5t-30.5 154.5q0 50 14 95.5 t39.5 84.5t61.5 71.5t79 55.5q-77 54 -113 128.5t-36 152.5q0 67 26 130t76 112t124.5 78.5t170.5 29.5zM502 615q-43 0 -75.5 -15.5t-54 -40t-32 -56t-10.5 -63.5q0 -30 9.5 -59t29 -52t48.5 -37.5t68 -15.5q44 -1 80 7t61.5 28.5t39.5 55t14 87.5q0 7 -2.5 21.5t-9 32.5 t-18.5 37t-32 34.5t-48.5 25.5t-67.5 10zM352 1016q0 -32 19 -62.5t45 -54t53.5 -36t45.5 -6.5h-1q21 8 44.5 21.5t43 33t32.5 44.5t13 55q0 32 -13 58t-34.5 44t-50 28t-58.5 10q-27 0 -52 -8.5t-44.5 -25t-31 -42t-11.5 -59.5z"/>
    <glyph glyph-name="nine" unicode="9" horiz-adv-x="1019" d="M926 907q0 -113 -38 -231t-107 -229.5t-167 -211t-218 -175.5q-43 58 -78.5 100t-50.5 62q222 146 311 317q-23 -6 -48.5 -9.5t-49.5 -3.5q-75 0 -147.5 27t-130.5 80t-93.5 130.5t-35.5 178.5q0 94 31.5 173t87.5 136t134.5 88.5t171.5 31.5q103 0 183 -34.5t134.5 -96 t82.5 -146.5t28 -187zM474 1135q-42 0 -74.5 -18t-54 -44.5t-31.5 -58t-8 -58.5q4 -43 25.5 -78.5t54 -60.5t73 -39t82.5 -14q66 0 123 37q5 20 7.5 42t2.5 44q0 49 -13.5 94t-39 79t-62.5 54.5t-85 20.5z"/>
    <glyph glyph-name="colon" unicode=":" horiz-adv-x="624" d="M310 1053q36 0 67.5 -14t55 -38t37.5 -56t14 -69q0 -35 -14 -66.5t-37.5 -55t-55 -37.5t-67.5 -14t-67.5 14t-55.5 37.5t-37.5 55t-13.5 66.5q0 37 13.5 69t37.5 56t55.5 38t67.5 14zM310 555q36 0 67.5 -13.5t55 -37.5t37.5 -55.5t14 -67.5t-14 -68t-37.5 -55.5 t-55 -37.5t-67.5 -14t-67.5 14t-55.5 37.5t-37.5 55.5t-13.5 68t13.5 67.5t37.5 55.5t55.5 37.5t67.5 13.5z"/>
    <glyph glyph-name="semicolon" unicode=";" horiz-adv-x="593" d="M164 150v260h267v-194q0 -156 -64 -244.5t-197 -116.5v96q84 26 114 83q20 39 25 116h-145zM164 1063h266v-259h-266v259z"/>
    <glyph glyph-name="less" unicode="&lt;" horiz-adv-x="1041" d="M68 516v171l905 383v-197l-643 -271l643 -272v-197z"/>
    <glyph glyph-name="equal" unicode="=" horiz-adv-x="810" d="M60 515l66 205l621 -3l-66 -205zM60 139l66 205l621 -3l-66 -205z"/>
    <glyph glyph-name="greater" unicode="&gt;" horiz-adv-x="1041" d="M973 516l-905 -383v197l643 272l-643 271v197l905 -383v-171z"/>
    <glyph glyph-name="question" unicode="?" horiz-adv-x="1088" d="M549 1240q-96 0 -143.5 -53t-50.5 -164h-248q6 201 123 314.5t319 113.5q203 0 322 -102t119 -275q0 -92 -55 -173.5t-184 -178.5q-51 -38 -70.5 -82t-16.5 -115h-232q-3 123 41.5 207t153.5 161q52 37 74 77.5t22 103.5q0 76 -47 122q-47 44 -127 44zM418 399h261v-249 h-261v249z"/>
    <glyph glyph-name="at" unicode="@" horiz-adv-x="1737" d="M1170 552q89 0 150.5 99.5t61.5 244.5q0 178 -139 301.5t-340 123.5q-217 0 -367.5 -155t-150.5 -378q0 -224 146 -379t358 -155q132 0 245.5 43t167.5 112h157q-77 -134 -231 -215.5t-331 -81.5q-289 0 -487.5 196t-198.5 480q0 283 198 479.5t485 196.5 q266 0 448.5 -165t182.5 -403q0 -201 -136.5 -351.5t-317.5 -150.5q-57 0 -85 52q-12 20 -14 42q-87 -94 -190 -94q-126 0 -208 93t-81 235q-1 174 114.5 300t275.5 126q123 -1 196 -108l18 83h173l-116 -519q-5 -22 0 -37t16 -15zM897 972q-84 0 -146.5 -73t-62.5 -170 q0 -75 38 -115.5t107 -40.5q71 0 128 56t76 144t-20 143.5t-120 55.5z"/>
    <glyph glyph-name="A" unicode="A" horiz-adv-x="1287" d="M36 150l452 1279h310l453 -1279h-284l-86 260h-485l-85 -260h-275zM639 1144l-169 -514h340z"/>
    <glyph glyph-name="B" unicode="B" horiz-adv-x="1287" d="M136 150v1279h619q185 0 289.5 -85.5t104.5 -238.5q0 -159 -117 -242q-19 -14 -43 -25q45 -17 80 -42q123 -84 123 -246q0 -196 -121.5 -298t-354.5 -102h-580zM391 713v-341h325q104 0 156.5 45t52.5 137q0 80 -53.5 119.5t-160.5 39.5h-320zM391 1209v-281h306 q100 0 149.5 37.5t49.5 112.5q0 66 -52 98.5t-158 32.5h-295z"/>
    <glyph glyph-name="C" unicode="C" horiz-adv-x="1287" d="M1219 598q-24 -222 -173.5 -352.5t-379.5 -130.5q-270 0 -429 180t-159 487q0 314 159 498t429 184q227 0 377 -123.5t176 -333.5h-268q-13 103 -89 164t-194 61q-149 0 -233 -118.5t-84 -329.5q0 -205 84 -321t233 -116q118 0 194 67.5t89 183.5h268z"/>
    <glyph glyph-name="D" unicode="D" horiz-adv-x="1287" d="M136 150v1279h547q264 0 401 -155t137 -453q0 -329 -142.5 -500t-417.5 -171h-525zM403 370h225q163 0 244.5 110t81.5 330q0 200 -76 299.5t-228 99.5h-247v-839z"/>
    <glyph glyph-name="E" unicode="E" horiz-adv-x="1188" d="M136 150v1279h941v-227h-674v-272h625v-220h-625v-333h704v-227h-971z"/>
    <glyph glyph-name="F" unicode="F" horiz-adv-x="1088" d="M136 150v1279h910v-227h-643v-291h560v-220h-560v-541h-267z"/>
    <glyph glyph-name="G" unicode="G" horiz-adv-x="1386" d="M686 115q-280 0 -444 180t-164 487q0 314 170.5 498t461.5 184q233 0 384 -116.5t176 -315.5h-268q-10 84 -93.5 147t-184.5 63q-174 0 -272.5 -120.5t-98.5 -334.5q0 -218 94 -332q94 -113 276 -113q155 0 242 119q48 67 70 157v3h-301v220h536v-690h-178l-26 165 l-16 -21q-135 -180 -364 -180z"/>
    <glyph glyph-name="H" unicode="H" horiz-adv-x="1287" d="M126 150v1279h267v-479h500v479h268v-1279h-268v579h-500v-579h-267z"/>
    <glyph glyph-name="I" unicode="I" horiz-adv-x="495" d="M114 150v1279h267v-1279h-267z"/>
    <glyph glyph-name="J" unicode="J" horiz-adv-x="991" d="M596 1429h267v-920q0 -195 -104.5 -294.5t-307.5 -99.5q-217 0 -318 109.5t-94 338.5v77h254v-77q-3 -116 34.5 -172.5t120.5 -56.5q79 0 113.5 41t34.5 134v920z"/>
    <glyph glyph-name="K" unicode="K" horiz-adv-x="1287" d="M155 150v1279h267v-530l490 530h341l-511 -523l545 -756h-350l-385 563l-130 -133v-430h-267z"/>
    <glyph glyph-name="L" unicode="L" horiz-adv-x="1088" d="M136 150v1279h267v-1052h636v-227h-903z"/>
    <glyph glyph-name="M" unicode="M" horiz-adv-x="1484" d="M372 150h-249v1279h391l233 -1014l230 1014h386v-1279h-249v1075l-240 -1075h-262l-240 1099v-1099z"/>
    <glyph glyph-name="N" unicode="N" horiz-adv-x="1287" d="M372 150h-249v1279h280l513 -897v897h250v-1279h-266l-528 921v-921z"/>
    <glyph glyph-name="O" unicode="O" horiz-adv-x="1386" d="M693 115q-282 0 -448.5 180t-166.5 487q0 314 166.5 498t448.5 184q283 0 449 -184t166 -498q0 -307 -166 -487t-449 -180zM693 342q163 0 255.5 117t92.5 325q0 213 -92.5 333t-255.5 120t-255.5 -120t-92.5 -333q0 -208 92 -325t256 -117z"/>
    <glyph glyph-name="P" unicode="P" horiz-adv-x="1188" d="M136 150v1279h535q218 0 332 -102.5t114 -297.5q0 -207 -114 -314.5t-332 -107.5q-155 1 -268 -2v-455h-267zM403 827h223q112 0 168 49.5t56 149.5q0 91 -56 137t-168 46h-223v-382z"/>
    <glyph glyph-name="Q" unicode="Q" horiz-adv-x="1386" d="M1176 57l-153 142q-137 -84 -330 -84q-282 0 -448.5 180t-166.5 487q0 314 166.5 498t448.5 184q283 0 449 -184t166 -498q0 -277 -135 -450l139 -131zM705 492l135 143l140 -127q61 107 61 276q0 213 -92.5 333t-255.5 120t-255.5 -120t-92.5 -333q0 -208 92 -325 t256 -117q80 -1 143 29z"/>
    <glyph glyph-name="R" unicode="R" horiz-adv-x="1287" d="M136 150v1279h644q183 0 295 -98t112 -258q0 -184 -125 -270q-33 -22 -75 -38q24 -9 43 -21q110 -65 114 -219l6 -210q2 -62 13 -88.5t44 -41.5v-34h-295q-11 20 -18.5 85.5t-8.5 141.5l-2 118q-2 86 -51 122.5t-163 36.5h-266v-505h-267zM403 870h310q103 0 155 42.5 t52 127.5q0 84 -49.5 126.5t-147.5 42.5h-320v-339z"/>
    <glyph glyph-name="S" unicode="S" horiz-adv-x="1188" d="M829 1045q-7 92 -80 145.5t-190 53.5q-102 0 -159.5 -45t-57.5 -125q0 -57 60 -89q59 -31 251 -74q280 -62 374 -144q94 -81 94 -260q0 -180 -142 -286t-384 -106q-243 0 -379.5 112.5t-145.5 319.5h257q4 -102 74 -157t194 -55q128 0 200 41.5t72 114.5q0 72 -52 106 q-50 34 -216 71q-304 68 -407 147q-102 78 -102 244q0 186 135 295.5t365 109.5q215 0 349.5 -113.5t149.5 -305.5h-260z"/>
    <glyph glyph-name="T" unicode="T" horiz-adv-x="1088" d="M412 150v1052h-387v227h1040v-227h-386v-1052h-267z"/>
    <glyph glyph-name="U" unicode="U" horiz-adv-x="1287" d="M1161 632q0 -274 -121 -395.5t-395 -121.5q-263 0 -389.5 126.5t-127.5 390.5v797h267v-806q0 -137 62 -206t188 -69q134 0 191 63.5t57 211.5v806h268v-797z"/>
    <glyph glyph-name="V" unicode="V" horiz-adv-x="1188" d="M34 1429h284l281 -977l280 977h275l-433 -1279h-254z"/>
    <glyph glyph-name="W" unicode="W" horiz-adv-x="1682" d="M385 150l-356 1279h278l213 -936l183 936h284l186 -928l212 928h270l-356 -1279h-254l-205 1007l-201 -1007h-254z"/>
    <glyph glyph-name="X" unicode="X" horiz-adv-x="1188" d="M25 150l414 647l-386 632h316l225 -413l233 413h308l-389 -612l417 -667h-319l-251 440l-252 -440h-316z"/>
    <glyph glyph-name="Y" unicode="Y" horiz-adv-x="1188" d="M473 631l-446 798h318l266 -555l249 555h303l-423 -793v-486h-267v481z"/>
    <glyph glyph-name="Z" unicode="Z" horiz-adv-x="1088" d="M44 374l663 828h-641v227h978v-211l-675 -841h673v-227h-998v224z"/>
    <glyph glyph-name="bracketleft" unicode="[" horiz-adv-x="593" d="M112 -202v1640h439v-172h-216v-1297h216v-171h-439z"/>
    <glyph glyph-name="backslash" unicode="\" horiz-adv-x="495" d="M345 115l-403 1349h209l402 -1349h-208z"/>
    <glyph glyph-name="bracketright" unicode="]" horiz-adv-x="593" d="M481 -202h-438v171h215v1297h-215v172h438v-1640z"/>
    <glyph glyph-name="asciicircum" unicode="^" horiz-adv-x="1041" d="M611 1391l319 -663h-198l-212 464l-211 -464h-199l320 663h181z"/>
    <glyph glyph-name="underscore" unicode="_" horiz-adv-x="991" d="M0 -73v92h991v-92h-991z"/>
    <glyph glyph-name="grave" unicode="`" horiz-adv-x="593" d="M221 1227l-261 258h273l168 -258h-180z"/>
    <glyph glyph-name="a" unicode="a" horiz-adv-x="991" d="M343 126q-132 0 -212 75t-80 198q0 129 72.5 207t210.5 98l165 23q64 9 107 29q18 9 28 31.5t7 46.5q-5 40 -41 62q-42 27 -122 27q-72 0 -112 -34.5t-42 -98.5h-240q8 166 113.5 249t308.5 83q177 0 279 -74.5t102 -203.5v-529q0 -63 10.5 -89t42.5 -40v-35h-270 q-17 57 -22 112l-1 2q-117 -139 -304 -139zM643 500v108q-44 -24 -115 -39l-92 -17q-65 -12 -99 -44.5t-34 -82.5q0 -57 30.5 -89t84.5 -32q121 0 192 84q14 17 23 49q10 32 10 63z"/>
    <glyph glyph-name="b" unicode="b" horiz-adv-x="1088" d="M109 1429h249v-456l6 7q101 142 266 142q180 0 289.5 -133t109.5 -351q0 -230 -109.5 -371t-289.5 -141q-165 0 -266 132l-11 14v-122h-244v1279zM559 331q100 0 157 75t57 209q0 137 -57 214t-157 77t-156.5 -79t-56.5 -220q0 -130 57 -203q55 -73 156 -73z"/>
    <glyph glyph-name="c" unicode="c" horiz-adv-x="991" d="M934 501q-20 -177 -132 -276t-292 -99q-215 0 -332 127.5t-117 364.5q0 231 121.5 367.5t327.5 136.5q183 0 299.5 -101t124.5 -265h-255q-3 70 -49.5 113.5t-119.5 43.5q-94 0 -143 -75.5t-49 -219.5q0 -141 49 -214.5t143 -73.5q68 0 115 47t54 124h255z"/>
    <glyph glyph-name="d" unicode="d" horiz-adv-x="1088" d="M464 126q-181 0 -292 141t-111 371q0 218 110.5 351t290.5 133q161 0 259 -136l11 -14v457h249v-1279h-242v121l-4 -6q-103 -139 -271 -139zM531 906q-100 0 -156.5 -77t-56.5 -214q0 -134 56 -209t156 -75q101 0 157.5 79t56.5 220q0 130 -56.5 203t-156.5 73z"/>
    <glyph glyph-name="e" unicode="e" horiz-adv-x="991" d="M491 126q-216 0 -333 133t-117 379q0 227 119 355.5t331 128.5q216 0 333 -131t117 -373q2 -28 -4 -56h-645q9 -113 50 -168q52 -70 174 -70q56 0 104.5 32t58.5 78h254q-33 -145 -150 -226.5t-292 -81.5zM681 721q-8 85 -45 133q-48 63 -149 63q-96 0 -147 -74 q-31 -47 -45 -122h386z"/>
    <glyph glyph-name="f" unicode="f" horiz-adv-x="593" d="M405 922v-772h-249v772h-139v175h139v79q0 136 72.5 203t220.5 67q66 1 117 -6v-199h-79q-49 0 -65.5 -20t-16.5 -82v-42h161v-175h-161z"/>
    <glyph glyph-name="g" unicode="g" horiz-adv-x="1088" d="M543 -47q105 0 151 51t46 169v116l-20 -30q-82 -114 -237 -114q-185 0 -298.5 132.5t-113.5 350.5q0 222 110.5 358t290.5 136q160 0 247 -116q17 -22 31 -48v139h235v-897q0 -224 -111 -330.5t-346 -106.5q-193 0 -307 75t-122 208h272q3 -48 44.5 -70.5t127.5 -22.5z M535 906q-97 0 -152 -74.5t-55 -206.5q0 -130 55 -202.5t151 -72.5q98 0 153.5 74t55.5 204q0 131 -55.5 204.5t-152.5 73.5z"/>
    <glyph glyph-name="h" unicode="h" horiz-adv-x="1088" d="M116 150v1279h249v-453l20 28q93 118 268 118q150 0 235 -89t85 -246v-637h-250v592q0 87 -38 129.5t-116 42.5q-98 0 -151 -59t-53 -171v-534h-249z"/>
    <glyph glyph-name="i" unicode="i" horiz-adv-x="495" d="M125 150v947h250v-947h-250zM123 1438h254v-231h-254v231z"/>
    <glyph glyph-name="j" unicode="j" horiz-adv-x="495" d="M121 1097h250v-1051q0 -154 -66.5 -215.5t-231.5 -61.5l-68 1v199l31 -1q50 0 67.5 16t17.5 62v1051zM119 1438h254v-231h-254v231z"/>
    <glyph glyph-name="k" unicode="k" horiz-adv-x="991" d="M123 150v1279h249v-691l312 359h308l-342 -359l350 -588h-296l-228 407l-104 -109v-298h-249z"/>
    <glyph glyph-name="l" unicode="l" horiz-adv-x="495" d="M123 150v1279h249v-1279h-249z"/>
    <glyph glyph-name="m" unicode="m" horiz-adv-x="1584" d="M114 150v947h237v-153q17 40 42 72q83 106 240 106q126 0 206 -85q31 -32 49 -71l31 50q77 106 225 106q154 0 241 -91.5t87 -253.5v-627h-250v556q0 106 -34.5 157t-107.5 51q-79 0 -120 -48.5t-41 -138.5v-577h-250v597q0 85 -36.5 126t-112.5 41q-75 0 -115.5 -48.5 t-40.5 -138.5v-577h-250z"/>
    <glyph glyph-name="n" unicode="n" horiz-adv-x="1088" d="M116 150v947h237v-141q15 26 32 48q93 118 268 118q150 0 235 -89t85 -246v-637h-250v592q0 87 -38 129.5t-116 42.5q-98 0 -151 -59t-53 -171v-534h-249z"/>
    <glyph glyph-name="o" unicode="o" horiz-adv-x="1088" d="M545 126q-222 0 -353 133t-131 359q0 231 131 367.5t353 136.5q223 0 353.5 -136.5t130.5 -367.5q0 -226 -130.5 -359t-353.5 -133zM545 334q111 0 169.5 73.5t58.5 213.5q0 143 -58.5 217.5t-169.5 74.5q-112 0 -169.5 -74.5t-57.5 -217.5q0 -140 57.5 -213.5 t169.5 -73.5z"/>
    <glyph glyph-name="p" unicode="p" horiz-adv-x="1088" d="M110 1097h238v-141l17 24q100 142 266 142q180 0 289 -133t109 -351q0 -230 -109 -371t-289 -141q-165 0 -266 132l-5 7v-486h-250v1318zM559 331q100 0 157 75t57 209q0 137 -56.5 214t-156.5 77t-156 -79t-56 -220q0 -130 56 -203t155 -73z"/>
    <glyph glyph-name="q" unicode="q" horiz-adv-x="1088" d="M465 126q-181 0 -292.5 132.5t-111.5 349.5q0 232 115 373t302 141q154 0 248 -136q16 -22 27 -45v156h230v-1318h-250v482q-101 -136 -268 -135zM532 906q-101 0 -157.5 -77t-56.5 -214q0 -134 56.5 -209t156.5 -75q101 0 158 79t57 220q0 130 -57 203t-157 73z"/>
    <glyph glyph-name="r" unicode="r" horiz-adv-x="693" d="M114 150v947h237v-170q14 28 30 54q88 141 227 141l57 -1v-255q-33 3 -75 3q-114 0 -170 -56.5t-56 -170.5v-492h-250z"/>
    <glyph glyph-name="s" unicode="s" horiz-adv-x="991" d="M652 813q0 55 -45.5 88t-120.5 33q-72 0 -112.5 -25t-40.5 -69q0 -31 46 -54q46 -22 161 -48q230 -51 307 -112q78 -61 78 -192q0 -139 -113 -223.5t-297 -84.5q-218 0 -336 83.5t-126 243.5h254q3 -65 58 -102t150 -37q75 0 117 25.5t42 71.5q0 32 -41 55 q-41 22 -143 44q-240 54 -321 114q-81 59 -81 184q0 141 105 227.5t276 86.5q193 0 311.5 -85t118.5 -224h-247z"/>
    <glyph glyph-name="t" unicode="t" horiz-adv-x="593" d="M551 145q-63 -5 -154 -5q-133 0 -190.5 47t-57.5 155v580h-132v175h132v254h249v-254h153v-175h-153v-538q0 -33 20 -43.5t81 -10.5h52v-185z"/>
    <glyph glyph-name="u" unicode="u" horiz-adv-x="1088" d="M367 1097v-593q0 -87 37.5 -128.5t114.5 -41.5q98 0 150 59t52 170v534h250v-947h-238v142q-13 -26 -31 -49q-92 -117 -267 -117q-150 0 -234 88t-84 245v638h250z"/>
    <glyph glyph-name="v" unicode="v" horiz-adv-x="991" d="M23 1097h276l202 -706l204 706h262l-341 -947h-261z"/>
    <glyph glyph-name="w" unicode="w" horiz-adv-x="1386" d="M292 150l-275 947h265l151 -696l142 696h250l140 -697l154 697h251l-274 -947h-255l-145 705l-149 -705h-255z"/>
    <glyph glyph-name="x" unicode="x" horiz-adv-x="991" d="M27 150l322 484l-309 463h301l159 -280l159 280h292l-308 -468l321 -479h-307l-165 289l-164 -289h-301z"/>
    <glyph glyph-name="y" unicode="y" horiz-adv-x="991" d="M960 1097l-339 -967q-82 -239 -140 -300t-208 -61l-119 3v200q9 -4 48 -4q100 0 130 41q19 26 39 108l-354 980h276l206 -703l200 703h261z"/>
    <glyph glyph-name="z" unicode="z" horiz-adv-x="891" d="M36 344l479 548l6 7h-450v198h762v-205l-473 -538h495v-204h-819v194z"/>
    <glyph glyph-name="braceleft" unicode="{" horiz-adv-x="693" d="M651 -201q-207 -14 -303 54.5t-96 229.5v231q0 140 -26 175t-141 50v158q115 15 141 50t26 175v231q0 161 96 229.5t303 55.5v-160q-121 6 -149.5 -22t-28.5 -155v-232q0 -139 -83 -201q-39 -29 -106 -51q67 -19 106 -49q83 -62 83 -201v-232q0 -127 28.5 -155t149.5 -21 v-160z"/>
    <glyph glyph-name="bar" unicode="|" horiz-adv-x="499" d="M150 -295v1781h199v-1781h-199z"/>
    <glyph glyph-name="braceright" unicode="}" horiz-adv-x="693" d="M43 -201v160q121 -7 149 21t28 155v232q0 139 84 201q38 30 105 49q-67 22 -105 51q-84 62 -84 201v232q0 127 -28 155t-149 22v160q207 13 302.5 -55.5t95.5 -229.5v-231q0 -140 26 -175t141 -50v-158q-115 -15 -141 -50t-26 -175v-231q0 -161 -96 -230 q-95 -68 -302 -54z"/>
    <glyph glyph-name="asciitilde" unicode="~" horiz-adv-x="1041" d="M109 598q30 71 90 113.5t132 42.5q45 0 96 -15.5t131 -52.5q54 -25 95.5 -40.5t58.5 -15.5q41 0 78 31.5t77 100.5l65 -159q-39 -71 -99 -113t-123 -42q-48 0 -99 17.5t-128 62.5q-36 20 -79 31.5t-81 11.5q-42 0 -85 -38t-64 -93z"/>
    <glyph glyph-name="delete" horiz-adv-x="1392" d="M498 520q0 -110 -49 -177q-40 -56 -107 -72q-36 -9 -83 -9h-183v510h175q60 0 91 -7q97 -23 136 -123q20 -54 20 -122zM428 521q0 146 -90 181q-27 10 -87 10h-108v-390h109q89 0 125 36q51 51 51 163zM940 262h-381v510h368v-60h-301v-156h282v-60h-282v-174h314v-60z M1322 262h-318v510h68v-450h250v-60z"/>
    <glyph glyph-name="copyright" unicode="©" horiz-adv-x="1313" d="M657 1466q290 0 483.5 -192.5t193.5 -484.5q0 -290 -193 -483t-484 -193q-292 0 -484 193t-192 483q0 292 192.5 484.5t483.5 192.5zM1139 789q0 222 -137 369.5t-345 147.5q-207 0 -344 -147.5t-137 -369.5q0 -221 137.5 -368t343.5 -147q207 0 344.5 147t137.5 368z M1002 687q-25 -131 -111.5 -207t-209.5 -76q-166 0 -267.5 105t-101.5 277q0 179 100 284.5t269 105.5q132 0 219 -74.5t102 -200.5h-159q-7 55 -50.5 87t-111.5 32q-87 0 -136 -62t-49 -171q0 -105 50 -166t135 -61q64 0 107.5 34t54.5 93h159z"/>
    <glyph glyph-name="guillemotleft" unicode="«" horiz-adv-x="880" d="M763 22h-72q-82 97 -164 192.5t-164 192.5q84 97 164.5 189.5t164.5 189.5h64l-217 -378zM461 22h-68q-82 97 -163 192.5t-164 192.5q84 97 164.5 189.5t165.5 189.5h65l-219 -378z"/>
    <glyph glyph-name="registered" unicode="®" horiz-adv-x="1313" d="M656 1465q291 0 483.5 -192.5t192.5 -483.5q0 -290 -192.5 -482.5t-483.5 -192.5t-483 192.5t-192 482.5q0 291 192.5 483.5t482.5 192.5zM1140 789q0 223 -137.5 371t-346.5 148q-208 0 -345.5 -148t-137.5 -371q0 -222 138 -369.5t345 -147.5q208 0 346 147.5 t138 369.5zM367 426v728h283q139 0 211.5 -52.5t72.5 -154.5q0 -117 -67 -169q-38 -29 -100 -42l179 -310h-180l-168 300h-72v-300h-159zM526 851h124q63 0 93.5 23.5t30.5 70.5q0 43 -30.5 64t-93.5 21h-124v-179z"/>
    <glyph glyph-name="dagger" unicode="°" horiz-adv-x="1024" d="M509 1094l456 -457l-456 -456l-457 456zM128 637l381 -380l380 380l-380 381zM509 855l217 -218l-217 -217l-217 217z"/>
    <glyph glyph-name="daggerdbl" unicode="±" horiz-adv-x="901" d="M450 1043l201 -146l201 -145l-77 -237l-76 -236h-497l-77 236l-77 237l201 145zM592 430l141 103l-54 167l-54 166h-350l-54 -166l-54 -167l142 -103l141 -102zM528 727l79 -56l-31 -92l-29 -92h-193l-60 184l78 56l78 57z"/>
    <glyph glyph-name="paragraph" unicode="¶" horiz-adv-x="891" d="M830 1379h-106v-1229h-80v1229h-173v-1229h-82v690q-155 6 -242 87q-86 81 -86 211q0 65 24.5 120t66.5 97q47 40 109 61.5t137 21.5h432v-59z"/>
    <glyph glyph-name="nonbreakingspace" unicode="·" horiz-adv-x="1082" d="M549 98l-198 219l198 199l201 -199zM1025 581l-214 -205l-198 205l198 198zM549 1056l196 -215l-196 -198l-198 198zM74 581l212 198l198 -198l-198 -198z"/>
    <glyph glyph-name="periodcentered" unicode="º" horiz-adv-x="983" d="M253 1047h454l114 -197l113 -196l-113 -197l-114 -197h-454l-114 197l-113 197l113 196zM298 968l-182 -314l91 -158l91 -157h364l90 157l91 158l-91 157l-90 157h-364zM361 859h238l59 -102l59 -103l-118 -206h-238l-118 206l59 103z"/>
    <glyph glyph-name="guillemotright" unicode="»" horiz-adv-x="880" d="M335 408q-54 94 -108 189t-109 189h65q81 -95 163.5 -189.5t165.5 -189.5q-84 -99 -165 -193t-163 -192h-74zM632 408q-54 94 -109.5 189t-109.5 189h65q83 -95 165.5 -189.5t164.5 -189.5q-83 -99 -163 -193t-164 -192h-68z"/>
    <glyph glyph-name="questiondown" unicode="¿" horiz-adv-x="774" d="M77 979h675v-675h-675v675z"/>
    <glyph glyph-name="multiply" unicode="×" horiz-adv-x="1041" d="M520 457l-304 -304l-145 144l305 305l-305 304l145 144l304 -304l305 304l144 -144l-304 -304l304 -305l-144 -144z"/>
    <glyph glyph-name="agrave" unicode="à" horiz-adv-x="991" d="M343 126q-132 0 -212 75t-80 198q0 129 72.5 207t210.5 98l165 23q64 9 107 29q18 9 28 31.5t7 46.5q-5 40 -41 62q-42 27 -122 27q-72 0 -112 -34.5t-42 -98.5h-240q8 166 113.5 249t308.5 83q177 0 279 -74.5t102 -203.5v-529q0 -63 10.5 -89t42.5 -40v-35h-270 q-17 57 -22 112l-1 2q-117 -139 -304 -139zM643 500v108q-44 -24 -115 -39l-92 -17q-65 -12 -99 -44.5t-34 -82.5q0 -57 30.5 -89t84.5 -32q121 0 192 84q14 17 23 49q10 32 10 63zM429 1227l-261 258h273l168 -258h-180z"/>
    <glyph glyph-name="aacute" unicode="á" horiz-adv-x="991" d="M343 126q-132 0 -212 75t-80 198q0 129 72.5 207t210.5 98l165 23q64 9 107 29q18 9 28 31.5t7 46.5q-5 40 -41 62q-42 27 -122 27q-72 0 -112 -34.5t-42 -98.5h-240q8 166 113.5 249t308.5 83q177 0 279 -74.5t102 -203.5v-529q0 -63 10.5 -89t42.5 -40v-35h-270 q-17 57 -22 112l-1 2q-117 -139 -304 -139zM643 500v108q-44 -24 -115 -39l-92 -17q-65 -12 -99 -44.5t-34 -82.5q0 -57 30.5 -89t84.5 -32q121 0 192 84q14 17 23 49q10 32 10 63zM319 1227l191 258h273l-284 -258h-180z"/>
    <glyph glyph-name="ccedilla" unicode="ç" horiz-adv-x="991" d="M934 501q-20 -177 -132 -276q-110 -97 -285 -99l-47 -72l49 6q71 0 114 -38.5t43 -101.5q0 -81 -60 -128.5t-162 -47.5q-49 0 -104 12.5t-100 34.5l39 83q43 -14 79.5 -21.5t57.5 -7.5q35 0 59.5 20.5t24.5 49.5t-19.5 46.5t-50.5 17.5q-14 0 -32.5 -3.5t-38.5 -10.5 l-38 36l87 131q-150 22 -240 121q-117 128 -117 365q0 231 121.5 367.5t327.5 136.5q183 0 299.5 -101t124.5 -265h-255q-3 70 -49.5 113.5t-119.5 43.5q-94 0 -143 -75.5t-49 -219.5q0 -141 49 -214.5t143 -73.5q68 0 115 47t54 124h255z"/>
    <glyph glyph-name="egrave" unicode="è" horiz-adv-x="991" d="M491 126q-216 0 -333 133t-117 379q0 227 119 355.5t331 128.5q216 0 333 -131t117 -373q2 -28 -4 -56h-645q9 -113 50 -168q52 -70 174 -70q56 0 104.5 32t58.5 78h254q-33 -145 -150 -226.5t-292 -81.5zM681 721q-8 85 -45 133q-48 63 -149 63q-96 0 -147 -74 q-31 -47 -45 -122h386zM444 1227l-261 258h273l168 -258h-180z"/>
    <glyph glyph-name="eacute" unicode="é" horiz-adv-x="991" d="M491 126q-216 0 -333 133t-117 379q0 227 119 355.5t331 128.5q216 0 333 -131t117 -373q2 -28 -4 -56h-645q9 -113 50 -168q52 -70 174 -70q56 0 104.5 32t58.5 78h254q-33 -145 -150 -226.5t-292 -81.5zM681 721q-8 85 -45 133q-48 63 -149 63q-96 0 -147 -74 q-31 -47 -45 -122h386zM403 1227l168 258h273l-261 -258h-180z"/>
    <glyph glyph-name="ecircumflex" unicode="ê" horiz-adv-x="991" d="M491 126q-216 0 -333 133t-117 379q0 227 119 355.5t331 128.5q216 0 333 -131t117 -373q2 -28 -4 -56h-645q9 -113 50 -168q52 -70 174 -70q56 0 104.5 32t58.5 78h254q-33 -145 -150 -226.5t-292 -81.5zM620 1485l202 -258h-200l-113 145l-113 -145h-200l202 258h222z M681 721q-8 85 -45 133q-48 63 -149 63q-96 0 -147 -74q-31 -47 -45 -122h386z"/>
    <glyph glyph-name="ocircumflex" unicode="ô" horiz-adv-x="1088" d="M545 126q-222 0 -353 133t-131 359q0 231 131 367.5t353 136.5q223 0 353.5 -136.5t130.5 -367.5q0 -226 -130.5 -359t-353.5 -133zM545 334q111 0 169.5 73.5t58.5 213.5q0 143 -58.5 217.5t-169.5 74.5q-112 0 -169.5 -74.5t-57.5 -217.5q0 -140 57.5 -213.5 t169.5 -73.5zM656 1485l202 -258h-200l-113 145l-113 -145h-201l202 258h223z"/>
    <glyph glyph-name="divide" unicode="÷" horiz-adv-x="1041" d="M71 705h898v-207h-898v207zM520 1131q66 0 112.5 -46t46.5 -112t-46.5 -112t-112.5 -46t-112 46t-46 112t46 112t112 46zM520 388q66 0 112.5 -46t46.5 -112t-46.5 -112t-112.5 -46t-112 46t-46 112t46 112t112 46z"/>
    <glyph glyph-name="oe" unicode="œ" horiz-adv-x="1682" d="M525 1122q201 -1 324 -121q119 120 325 121q216 0 333 -131t117 -373q2 -28 -4 -56h-630q9 -113 51 -168q52 -70 175 -70q50 0 93 32t53 78h254q-33 -145 -150 -226.5t-292 -81.5q-206 -1 -322 121q-124 -122 -327 -121q-214 0 -339 133t-125 359q0 231 125 368 q125 136 339 136zM534 913q-106 0 -161 -74.5t-55 -217.5q0 -140 55 -213.5t161 -73.5t161.5 73.5t55.5 213.5q0 143 -56 218q-55 74 -161 74zM1382 721q-8 85 -45 133q-49 63 -150 63q-98 0 -149 -74q-32 -47 -44 -122h388z"/>
    <glyph glyph-name="arabiccomma" unicode="،" horiz-adv-x="471" d="M333 160q-149 -40 -227.5 92t18 320t284.5 224q-264 -378 -3 -432z"/>
    <glyph glyph-name="arabicsemicolon" unicode="؛" horiz-adv-x="592" d="M381 565q-129 -34 -196.5 80t16 276.5t244.5 193.5q-227 -327 -2 -373zM481 296q0 -33 -12 -61.5t-33 -49.5t-49.5 -33.5t-61.5 -12.5t-61.5 12.5t-49.5 33.5t-33 49.5t-12 61.5q0 32 12 60.5t33 49.5t49.5 33.5t61.5 12.5t61.5 -12.5t49.5 -33.5t33 -49.5t12 -60.5z"/>
    <glyph glyph-name="arabicquestionmark" unicode="؟" horiz-adv-x="961" d="M704 1337q66 -17 100 -46t44.5 -62.5t1.5 -67t-30 -58.5t-49.5 -37.5t-56.5 -3.5q-42 13 -91.5 26t-95 11.5t-80 -24t-46.5 -79.5q7 -55 27.5 -82.5t47.5 -41.5t55.5 -23t50.5 -28q35 -14 56 -40t27 -56.5t-3 -61.5t-33 -55.5t-64 -37.5t-96 -8q-30 8 -68.5 21.5 t-78.5 35t-79 52.5t-70.5 76t-52 105t-24.5 138q13 119 61 200t126.5 123.5t185 48.5t235.5 -25zM657 296q0 -33 -12.5 -61.5t-33.5 -49.5t-49.5 -33.5t-61.5 -12.5q-32 0 -60.5 12.5t-49.5 33.5t-33 49.5t-12 61.5q0 32 12 60.5t33 49.5t49.5 33.5t60.5 12.5 q33 0 61.5 -12.5t49.5 -33.5t33.5 -49.5t12.5 -60.5z"/>
    <glyph glyph-name="hamza" unicode="ء" horiz-adv-x="1002" d="M93 143v248h100q-8 24 -11 49t-3 51q0 65 24 128t71 112.5t117 80t162 30.5h336v-249l-336 1q-33 0 -56.5 -9t-39.5 -23t-23.5 -33t-7.5 -38q0 -37 27 -66.5t87 -33.5h376v-248h-823z"/>
    <glyph glyph-name="alefwithmaddaabove" unicode="آ" horiz-adv-x="506" d="M373 145h-247v1174l247 42v-1216zM44 1400q-8 -2 -13.5 4.5t-5.5 14.5l3 49q0 11 6 17.5t14 8.5l384 68q17 3 19 -19l-3 -49q0 -9 -6 -17t-14 -9z"/>
    <glyph glyph-name="alefwithhamzaabove" unicode="أ" horiz-adv-x="506" d="M373 145h-247v1212h247v-1212zM151 1533q-5 11 -6.5 23t-1.5 24q0 25 8 48.5t23.5 42t39 29.5t53.5 11h111v-83l-111 1q-27 0 -39 -15.5t-12 -33.5q0 -17 11 -31t35 -16h125v-83h-274v83h38z"/>
    <glyph glyph-name="wawwithhamzaabove" unicode="ؤ" horiz-adv-x="962" d="M731 1013q32 0 59.5 -12t48 -32.5t32.5 -48.5t12 -60q-1 -24 -0.5 -64.5t0.5 -89.5q0 -48 0.5 -100t0 -97t-2 -79t-3.5 -48q-7 -210 -50.5 -348.5t-120.5 -220.5t-185 -115.5t-243 -33.5v248q149 0 230.5 57t100.5 175q-49 -7 -110 -12.5t-123.5 2t-121.5 32.5t-104 78 t-70 140t-19 217q0 85 32 160t87.5 131t130.5 88.5t160 32.5h259zM638 765q-42 0 -83 0.5t-83 0.5q-33 0 -62.5 -13.5t-52 -36t-35.5 -52.5t-13 -63q-4 -71 2.5 -117.5t26.5 -74t54 -39.5t84 -15q54 1 87 6t50.5 20.5t23.5 45t6 79.5zM336 1231q-6 14 -9 30.5t-3 33.5 q0 33 12.5 65t36.5 57t59.5 40.5t82.5 15.5h170v-113l-170 1q-42 0 -60.5 -21t-18.5 -45t17 -43t54 -21h193v-113h-422v113h58z"/>
    <glyph glyph-name="alefwithhamzabelow" unicode="إ" horiz-adv-x="506" d="M373 145h-247v1212h247v-1212zM151 -137q-5 11 -6.5 23t-1.5 24q0 25 8 48.5t23.5 42t39 29.5t53.5 11h111v-83l-111 1q-27 0 -39 -15.5t-12 -33.5q0 -17 11 -31t35 -16h125v-83h-274v83h38z"/>
    <glyph glyph-name="yehwithhamzaabove" unicode="ئ" horiz-adv-x="1148" d="M342 417q-20 -25 -33 -56t-17 -62.5t3 -61.5t27 -52.5t54.5 -35t85.5 -10.5h286q51 0 69 23t18 54q0 29 -10.5 49.5t-30 35.5t-47.5 26.5t-62 23.5q-56 19 -109.5 41t-95 58t-67 92t-25.5 143q0 100 35.5 171t93.5 116.5t131.5 66.5t148.5 21t150.5 -20.5t136.5 -53.5 l-120 -217q-38 20 -82.5 32t-86.5 12q-32 0 -61 -6.5t-51 -21.5t-35 -40.5t-13 -64.5q0 -19 11 -33t29 -24.5t40.5 -19t46.5 -16.5q36 -12 72 -25t69.5 -31.5t63.5 -44.5t55 -63q29 -45 45 -98.5t16 -107.5q0 -60 -20 -118.5t-62 -105t-106 -75t-151 -28.5l-282 2 q-117 0 -197.5 35t-129.5 91.5t-70.5 128.5t-21.5 147q0 42 6.5 72.5t17.5 57t25.5 51.5t30.5 56zM53 1125q-6 14 -9 30.5t-3 33.5q0 33 12.5 65t36.5 57t59.5 40.5t82.5 15.5h170v-113l-170 1q-42 0 -60.5 -21t-18.5 -45t17 -43t54 -21h193v-113h-422v113h58z"/>
    <glyph glyph-name="arabicalef" unicode="ا" horiz-adv-x="506" d="M374 145h-248v1212h248v-1212z"/>
    <glyph glyph-name="beh" unicode="ب" horiz-adv-x="1275" d="M1199 981v-714q0 -26 -9.5 -48.5t-26.5 -39.5t-39.5 -26.5t-48.5 -9.5h-601q-118 0 -198 35t-129 92t-70 129t-21 146q0 42 6.5 84.5t18 83.5t26 78.5t30.5 68.5l219 -114q-22 -41 -37.5 -95.5t-15.5 -108.5q0 -31 6.5 -58.5t24.5 -48t49.5 -32.5t81.5 -13 q126 0 243.5 0.5t243.5 0.5v590h247zM526 -124q0 28 10 52t28 42t42 28t51 10q28 0 52 -10t42 -28t28.5 -42t10.5 -52q0 -27 -10.5 -51t-28.5 -42t-42 -28.5t-52 -10.5q-27 0 -51 10.5t-42 28.5t-28 42t-10 51z"/>
    <glyph glyph-name="tehmarbuta" unicode="ة" horiz-adv-x="962" d="M735 1013q31 0 58.5 -11.5t48.5 -32t33 -48.5t12 -61l1 -567q0 -45 -28.5 -79t-71.5 -43q-74 -20 -153 -30t-159 -10q-34 0 -76.5 1t-86 5t-85.5 14t-76.5 28t-57.5 46t-29 68v308q0 85 32 160t88 131t130.5 88.5t160.5 32.5h259zM476 379q81 0 163 14v372q-40 0 -81 0.5 t-82 0.5q-33 0 -63 -13.5t-52.5 -36t-35 -52.5t-12.5 -63l1 -209q46 -10 79.5 -11.5t72.5 -1.5h10zM218 1252q0 28 10 52t28 42t42 28t51 10q28 0 52 -10t42 -28t28.5 -42t10.5 -52q0 -27 -10.5 -51t-28.5 -42t-42 -28.5t-52 -10.5q-27 0 -51 10.5t-42 28.5t-28 42t-10 51z M516 1252q0 28 10 52t28 42t42 28t51 10q28 0 52 -10t42 -28t28.5 -42t10.5 -52q0 -27 -10.5 -51t-28.5 -42t-42 -28.5t-52 -10.5q-27 0 -51 10.5t-42 28.5t-28 42t-10 51z"/>
    <glyph glyph-name="teh" unicode="ت" horiz-adv-x="1275" d="M1199 981v-714q0 -26 -9.5 -48.5t-26.5 -39.5t-39.5 -26.5t-48.5 -9.5h-601q-118 0 -198 35t-129 92t-70 129t-21 146q0 42 6.5 84.5t18 83.5t26 78.5t30.5 68.5l219 -114q-22 -41 -37.5 -95.5t-15.5 -108.5q0 -31 6.5 -58.5t24.5 -48t49.5 -32.5t81.5 -13 q126 0 243.5 0.5t243.5 0.5v590h247zM593 1108q0 28 10 52t28 42t42 28t51 10q28 0 52 -10t42 -28t28.5 -42t10.5 -52q0 -27 -10.5 -51t-28.5 -42t-42 -28.5t-52 -10.5q-27 0 -51 10.5t-42 28.5t-28 42t-10 51zM295 1108q0 28 10 52t28 42t42 28t51 10q28 0 52 -10t42 -28 t28.5 -42t10.5 -52q0 -27 -10.5 -51t-28.5 -42t-42 -28.5t-52 -10.5q-27 0 -51 10.5t-42 28.5t-28 42t-10 51z"/>
    <glyph glyph-name="theh" unicode="ث" horiz-adv-x="1275" d="M1199 981v-714q0 -26 -9.5 -48.5t-26.5 -39.5t-39.5 -26.5t-48.5 -9.5h-601q-118 0 -198 35t-129 92t-70 129t-21 146q0 42 6.5 84.5t18 83.5t26 78.5t30.5 68.5l219 -114q-22 -41 -37.5 -95.5t-15.5 -108.5q0 -31 6.5 -58.5t24.5 -48t49.5 -32.5t81.5 -13 q126 0 243.5 0.5t243.5 0.5v590h247zM302 1145q0 28 10 52t28 42t42 28t51 10q28 0 52 -10t42 -28t28.5 -42t10.5 -52q0 -27 -10.5 -51t-28.5 -42t-42 -28t-52 -10q-27 0 -51 10t-42 28t-28 42t-10 51zM614 1145q0 28 10.5 52t28.5 42t42 28t51 10q28 0 52 -10t42 -28 t28 -42t10 -52q0 -27 -10 -51t-28 -42t-42 -28t-52 -10q-27 0 -51 10t-42 28t-28.5 42t-10.5 51zM459 1397q0 28 10 52t28 42t42 28t51 10q28 0 52 -10t42 -28t28 -42t10 -52q0 -27 -10 -51t-28 -42t-42 -28t-52 -10q-27 0 -51 10t-42 28t-28 42t-10 51z"/>
    <glyph glyph-name="jeem" unicode="ج" horiz-adv-x="1250" d="M545 391h285q-7 91 -33.5 154t-66 104t-89 63t-102 32.5t-105 12.5t-98.5 3q-22 0 -44.5 0.5t-57.5 3.5l21 247q13 -1 29 -2t33.5 -2t34.5 -2t32 -2q69 -3 145.5 -11.5t151.5 -31t144 -62.5t123 -107t89 -165t41 -235h87v-248h-619q-62 -4 -107.5 -21t-75.5 -42.5 t-45 -57.5t-15 -65q0 -47 30 -95.5t90 -90.5l-139 -205q-116 79 -172.5 182.5t-56.5 209.5q0 79 32.5 154.5t95 135t152.5 98t205 44.5zM526 -124q0 28 10 52t28 42t42 28t51 10q28 0 52 -10t42 -28t28.5 -42t10.5 -52q0 -27 -10.5 -51t-28.5 -42t-42 -28.5t-52 -10.5 q-27 0 -51 10.5t-42 28.5t-28 42t-10 51z"/>
    <glyph glyph-name="hah" unicode="ح" horiz-adv-x="1250" d="M545 391h285q-7 91 -33.5 154t-66 104t-89 63t-102 32.5t-105 12.5t-98.5 3q-22 0 -44.5 0.5t-57.5 3.5l21 247q13 -1 29 -2t33.5 -2t34.5 -2t32 -2q69 -3 145.5 -11.5t151.5 -31t144 -62.5t123 -107t89 -165t41 -235h87v-248h-619q-62 -4 -107.5 -21t-75.5 -42.5 t-45 -57.5t-15 -65q0 -47 30 -95.5t90 -90.5l-139 -205q-116 79 -172.5 182.5t-56.5 209.5q0 79 32.5 154.5t95 135t152.5 98t205 44.5z"/>
    <glyph glyph-name="khah" unicode="خ" horiz-adv-x="1250" d="M545 391h285q-7 91 -33.5 154t-66 104t-89 63t-102 32.5t-105 12.5t-98.5 3q-22 0 -44.5 0.5t-57.5 3.5l21 247q13 -1 29 -2t33.5 -2t34.5 -2t32 -2q69 -3 145.5 -11.5t151.5 -31t144 -62.5t123 -107t89 -165t41 -235h87v-248h-619q-62 -4 -107.5 -21t-75.5 -42.5 t-45 -57.5t-15 -65q0 -47 30 -95.5t90 -90.5l-139 -205q-116 79 -172.5 182.5t-56.5 209.5q0 79 32.5 154.5t95 135t152.5 98t205 44.5zM392 1252q0 28 10 52t28 42t42 28t51 10q28 0 52 -10t42 -28t28.5 -42t10.5 -52q0 -27 -10.5 -51t-28.5 -42t-42 -28t-52 -10 q-27 0 -51 10t-42 28t-28 42t-10 51z"/>
    <glyph glyph-name="dal" unicode="د" horiz-adv-x="957" d="M148 1009q217 3 362 -43.5t230 -138.5q78 -95 111 -236t33 -328q0 -26 -10 -48.5t-26.5 -39t-39.5 -26.5t-48 -10h-677v248h550q-7 92 -26 164.5t-54 112.5q-46 52 -143 76t-260 22z"/>
    <glyph glyph-name="thal" unicode="ذ" horiz-adv-x="957" d="M148 1009q217 3 362 -43.5t230 -138.5q78 -95 111 -236t33 -328q0 -26 -10 -48.5t-26.5 -39t-39.5 -26.5t-48 -10h-677v248h550q-7 92 -26 164.5t-54 112.5q-46 52 -143 76t-260 22zM243 1252q0 28 10 52t28 42t42 28t51 10q28 0 52 -10t42 -28t28.5 -42t10.5 -52 q0 -27 -10.5 -51t-28.5 -42t-42 -28t-52 -10q-27 0 -51 10t-42 28t-28 42t-10 51z"/>
    <glyph glyph-name="reh" unicode="ر" horiz-adv-x="655" d="M576 879q0 -93 4.5 -190.5t4.5 -194.5q0 -81 -5 -165t-22 -165q-21 -105 -62.5 -196t-111 -158.5t-170.5 -106.5t-242 -39v248q84 0 143.5 24.5t100 66.5t64.5 99t36.5 122.5t16 136.5t3.5 141q0 94 -3.5 190t-3.5 187h247z"/>
    <glyph glyph-name="zain" unicode="ز" horiz-adv-x="624" d="M576 879q0 -93 4.5 -190.5t4.5 -194.5q0 -81 -5 -165t-22 -165q-21 -105 -62.5 -196t-111 -158.5t-170.5 -106.5t-242 -39v248q84 0 143.5 24.5t100 66.5t64.5 99t36.5 122.5t16 136.5t3.5 141q0 94 -3.5 190t-3.5 187h247zM310 1157q0 28 10 52t28 42t42 28t51 10 q28 0 52 -10t42 -28t28.5 -42t10.5 -52q0 -27 -10.5 -51t-28.5 -42t-42 -28.5t-52 -10.5q-27 0 -51 10.5t-42 28.5t-28 42t-10 51z"/>
    <glyph glyph-name="seen" unicode="س" horiz-adv-x="1850" d="M302 604v-378q0 -42 15.5 -72.5t41.5 -50.5t59.5 -30t69.5 -10t69.5 10t59.5 30t41.5 50.5t15.5 72.5v755h249v-590h179v590h247v-590h180v590h247v-714q0 -26 -9.5 -48.5t-26.5 -39.5t-39.5 -26.5t-48.5 -9.5h-737q-14 -82 -55 -143.5t-99.5 -102.5t-129 -61.5 t-143.5 -20.5q-82 0 -160 26.5t-139 78.5t-98 128.5t-37 177.5v378h248z"/>
    <glyph glyph-name="sheen" unicode="ش" horiz-adv-x="1850" d="M302 604v-378q0 -42 15.5 -72.5t41.5 -50.5t59.5 -30t69.5 -10t69.5 10t59.5 30t41.5 50.5t15.5 72.5v755h249v-590h179v590h247v-590h180v590h247v-714q0 -26 -9.5 -48.5t-26.5 -39.5t-39.5 -26.5t-48.5 -9.5h-737q-14 -82 -55 -143.5t-99.5 -102.5t-129 -61.5 t-143.5 -20.5q-82 0 -160 26.5t-139 78.5t-98 128.5t-37 177.5v378h248zM1090 1468q0 28 10 52t28 42t42 28t51 10q28 0 52 -10t42 -28t28.5 -42t10.5 -52q0 -27 -10.5 -51t-28.5 -42t-42 -28t-52 -10q-27 0 -51 10t-42 28t-28 42t-10 51zM933 1216q0 28 10.5 52t28.5 42 t42 28t51 10q28 0 52 -10t42 -28t28 -42t10 -52q0 -27 -10 -51t-28 -42t-42 -28t-52 -10q-27 0 -51 10t-42 28t-28.5 42t-10.5 51zM1246 1216q0 28 10 52t28 42t42 28t51 10q28 0 52 -10t42 -28t28 -42t10 -52q0 -27 -10 -51t-28 -42t-42 -28t-52 -10q-27 0 -51 10t-42 28 t-28 42t-10 51z"/>
    <glyph glyph-name="sad" unicode="ص" horiz-adv-x="1776" d="M305 604v-378q0 -42 15.5 -72.5t41.5 -50.5t59.5 -30t69.5 -10t69.5 10t59.5 30t41.5 50.5t15.5 72.5l-2 788h247v-121q41 53 111.5 86.5t158.5 33.5l384 -4q25 0 47.5 -10t39.5 -26.5t26.5 -39t9.5 -47.5v-610q0 -27 -8.5 -51.5t-24.5 -42.5t-39 -28.5t-51 -10.5h-658 q-14 -82 -55 -143.5t-99.5 -102.5t-129 -61.5t-143.5 -20.5q-82 0 -160 26.5t-139 78.5t-98 128.5t-37 177.5v378h248zM1187 766q-50 0 -96.5 -13t-83 -39t-59.5 -64.5t-26 -90.5v-168h529v372q-135 2 -197.5 2.5t-66.5 0.5z"/>
    <glyph glyph-name="dad" unicode="ض" horiz-adv-x="1776" d="M305 604v-378q0 -42 15.5 -72.5t41.5 -50.5t59.5 -30t69.5 -10t69.5 10t59.5 30t41.5 50.5t15.5 72.5l-2 788h247v-121q41 53 111.5 86.5t158.5 33.5l384 -4q25 0 47.5 -10t39.5 -26.5t26.5 -39t9.5 -47.5v-610q0 -27 -8.5 -51.5t-24.5 -42.5t-39 -28.5t-51 -10.5h-658 q-14 -82 -55 -143.5t-99.5 -102.5t-129 -61.5t-143.5 -20.5q-82 0 -160 26.5t-139 78.5t-98 128.5t-37 177.5v378h248zM1187 766q-50 0 -96.5 -13t-83 -39t-59.5 -64.5t-26 -90.5v-168h529v372q-135 2 -197.5 2.5t-66.5 0.5zM1061 1252q0 28 10 52t28 42t42 28t51 10 q28 0 52 -10t42 -28t28.5 -42t10.5 -52q0 -27 -10.5 -51t-28.5 -42t-42 -28t-52 -10q-27 0 -51 10t-42 28t-28 42t-10 51z"/>
    <glyph glyph-name="tah" unicode="ط" horiz-adv-x="1260" d="M413 893q41 53 112 86.5t158 33.5l384 -4q25 0 47.5 -10t39.5 -26.5t26.5 -39t9.5 -47.5v-610q0 -27 -8.5 -51.5t-24.5 -42.5t-39 -28.5t-51 -10.5h-1001v248h100v966h247v-464zM679 766q-50 0 -97 -13t-83.5 -39t-59.5 -64.5t-26 -90.5v-168h529v372q-135 2 -197.5 2.5 t-65.5 0.5z"/>
    <glyph glyph-name="zah" unicode="ظ" horiz-adv-x="1260" d="M413 893q41 53 112 86.5t158 33.5l384 -4q25 0 47.5 -10t39.5 -26.5t26.5 -39t9.5 -47.5v-610q0 -27 -8.5 -51.5t-24.5 -42.5t-39 -28.5t-51 -10.5h-1001v248h100v966h247v-464zM679 766q-50 0 -97 -13t-83.5 -39t-59.5 -64.5t-26 -90.5v-168h529v372q-135 2 -197.5 2.5 t-65.5 0.5zM561 1252q0 28 10 52t28 42t42 28t51 10q28 0 52 -10t42 -28t28.5 -42t10.5 -52q0 -27 -10.5 -51t-28.5 -42t-42 -28t-52 -10q-27 0 -51 10t-42 28t-28 42t-10 51z"/>
    <glyph glyph-name="ain" unicode="ع" horiz-adv-x="1131" d="M545 143q-55 -5 -100 -22.5t-76.5 -42.5t-49 -56t-17.5 -64q0 -46 29.5 -95.5t91.5 -91.5l-139 -205q-57 39 -100 85.5t-71.5 96.5t-43 102.5t-14.5 105.5q0 57 15.5 111.5t46 104t75.5 90.5t105 71q-16 27 -32 56.5t-28.5 60t-20 62.5t-7.5 65q0 83 30 161.5t85.5 139.5 t135 98t178.5 37h375v-248h-375q-41 0 -74.5 -16.5t-57.5 -43t-37 -60.5t-13 -68q0 -35 13 -68.5t37 -59.5t57.5 -42t74.5 -16h404v-248h-497z"/>
    <glyph glyph-name="ghain" unicode="غ" horiz-adv-x="1131" d="M545 143q-55 -5 -100 -22.5t-76.5 -42.5t-49 -56t-17.5 -64q0 -46 29.5 -95.5t91.5 -91.5l-139 -205q-57 39 -100 85.5t-71.5 96.5t-43 102.5t-14.5 105.5q0 57 15.5 111.5t46 104t75.5 90.5t105 71q-32 54 -57.5 116.5t-25.5 127.5q0 83 29 161.5t84 139.5t133.5 98 t177.5 37h375v-248h-375q-41 0 -73.5 -16.5t-55.5 -43t-35.5 -60.5t-12.5 -68q0 -35 12.5 -68.5t35.5 -59.5t55.5 -42t73.5 -16h404v-248h-497zM476 1252q0 28 10 52t28 42t42 28t51 10q28 0 52 -10t42 -28t28.5 -42t10.5 -52q0 -27 -10.5 -51t-28.5 -42t-42 -28t-52 -10 q-27 0 -51 10t-42 28t-28 42t-10 51z"/>
    <glyph glyph-name="tatweel" unicode="ـ" horiz-adv-x="466" d="M-8 143v248h482v-248h-482z"/>
    <glyph glyph-name="feh" unicode="ف" horiz-adv-x="1419" d="M567 391q-19 44 -27 90.5t-8 95.5q0 83 26 161.5t77 139.5t126.5 98t174.5 37h256q32 0 59.5 -12.5t48 -33.5t32.5 -49.5t12 -59.5l1 -591q0 -26 -10 -48.5t-26.5 -39.5t-39.5 -26.5t-48 -9.5h-758q-116 0 -196 34.5t-129.5 91t-71.5 129t-22 147.5q0 42 7 84.5t18 83.5 t26 78.5t31 68.5l219 -114q-21 -41 -37 -95.5t-16 -108.5q0 -30 6.5 -57.5t23.5 -48t48 -33t81 -13.5q3 1 6 1h6h104zM794 492q16 -43 51 -72t91 -29h161v374h-161q-41 0 -70.5 -16.5t-48.5 -43.5t-28.5 -60.5t-9.5 -67.5q0 -43 15 -85zM821 1252q0 28 10 52t28 42t42 28 t51 10q28 0 52 -10t42 -28t28.5 -42t10.5 -52q0 -27 -10.5 -51t-28.5 -42t-42 -28t-52 -10q-27 0 -51 10t-42 28t-28 42t-10 51z"/>
    <glyph glyph-name="qaf" unicode="ق" horiz-adv-x="1419" d="M567 391q-19 44 -27 90.5t-8 95.5q0 83 26 161.5t77 139.5t126.5 98t174.5 37h256q32 0 59.5 -12.5t48 -33.5t32.5 -49.5t12 -59.5l1 -591q0 -26 -10 -48.5t-26.5 -39.5t-39.5 -26.5t-48 -9.5h-758q-116 0 -196 34.5t-129.5 91t-71.5 129t-22 147.5q0 42 7 84.5t18 83.5 t26 78.5t31 68.5l219 -114q-21 -41 -37 -95.5t-16 -108.5q0 -30 6.5 -57.5t23.5 -48t48 -33t81 -13.5q3 1 6 1h6h104zM794 492q16 -43 51 -72t91 -29h161v374h-161q-41 0 -70.5 -16.5t-48.5 -43.5t-28.5 -60.5t-9.5 -67.5q0 -43 15 -85zM677 1252q0 28 10 52t28 42t42 28 t51 10q28 0 52 -10t42 -28t28.5 -42t10.5 -52q0 -27 -10.5 -51t-28.5 -42t-42 -28.5t-52 -10.5q-27 0 -51 10.5t-42 28.5t-28 42t-10 51zM975 1252q0 28 10 52t28 42t42 28t51 10q28 0 52 -10t42 -28t28.5 -42t10.5 -52q0 -27 -10.5 -51t-28.5 -42t-42 -28.5t-52 -10.5 q-27 0 -51 10.5t-42 28.5t-28 42t-10 51z"/>
    <glyph glyph-name="arabickaf" unicode="ك" horiz-adv-x="1300" d="M1202 1357v-1090q0 -26 -9.5 -48.5t-26.5 -39.5t-39.5 -26.5t-48.5 -9.5h-601q-118 0 -198 35t-129 92t-70 129t-21 146q0 42 6.5 84.5t18 83.5t26 78.5t30.5 68.5l219 -114q-22 -41 -37.5 -95.5t-15.5 -108.5q0 -31 6.5 -58.5t24.5 -48t49.5 -32.5t81.5 -13 q126 0 243.5 0.5t243.5 0.5v966h247zM485 975q-3 13 -5 26.5t-2 26.5q0 42 15 81.5t45 71t74 50.5t102 19h128v-167l-128 1q-36 0 -53 -17.5t-17 -38.5q0 -20 15 -35.5t48 -17.5h151v-168h-432v168h59z"/>
    <glyph glyph-name="lam" unicode="ل" horiz-adv-x="1027" d="M320 604v-378q0 -42 16 -72.5t42 -50.5t59.5 -30t68.5 -10q36 0 69.5 10t59.5 30t41.5 50.5t15.5 72.5v1131h249v-1131q0 -101 -37.5 -177.5t-98.5 -128.5t-139.5 -78.5t-159.5 -26.5q-82 0 -160 26.5t-139 78.5t-98 128.5t-37 177.5v378h248z"/>
    <glyph glyph-name="meem" unicode="م" horiz-adv-x="1230" d="M345 609q1 70 33 143t87.5 131.5t130 95t158.5 34.5q74 -1 147.5 -2t147.5 -2q25 0 47.5 -10t39.5 -26.5t26.5 -39t9.5 -47.5v-619q0 -26 -9.5 -48.5t-26.5 -39.5t-39.5 -26.5t-47.5 -9.5h-590q-36 0 -64.5 -3.5t-49 -16.5t-31.5 -37t-11 -64v-354h-248v354q0 81 22 143 t60.5 105.5t91.5 71t116 39.5v228zM594 390h330v373q-68 1 -103 1.5t-50.5 1t-17.5 0.5h-2q-30 0 -58.5 -13t-50.5 -35t-35 -51.5t-13 -62.5v-214z"/>
    <glyph glyph-name="noon" unicode="ن" horiz-adv-x="982" d="M305 604v-378q0 -42 15.5 -72.5t41.5 -50.5t59.5 -30t69.5 -10t69.5 10t59.5 30t41.5 50.5t15.5 72.5v742h249v-742q0 -101 -37.5 -177.5t-98.5 -128.5t-139.5 -78.5t-159.5 -26.5q-82 0 -160 26.5t-139 78.5t-98 128.5t-37 177.5v378h248zM360 1173q0 28 10 52t28 42 t42 28t51 10q28 0 52 -10t42 -28t28.5 -42t10.5 -52q0 -27 -10.5 -51t-28.5 -42t-42 -28t-52 -10q-27 0 -51 10t-42 28t-28 42t-10 51z"/>
    <glyph glyph-name="heh" unicode="ه" horiz-adv-x="962" d="M735 1013q31 0 58.5 -11.5t48.5 -32t33 -48.5t12 -61l1 -567q0 -45 -28.5 -79t-71.5 -43q-74 -20 -153 -30t-159 -10q-34 0 -76.5 1t-86 5t-85.5 14t-76.5 28t-57.5 46t-29 68v308q0 85 32 160t88 131t130.5 88.5t160.5 32.5h259zM476 379q81 0 163 14v372q-40 0 -81 0.5 t-82 0.5q-33 0 -63 -13.5t-52.5 -36t-35 -52.5t-12.5 -63l1 -209q46 -10 79.5 -11.5t72.5 -1.5h10z"/>
    <glyph glyph-name="waw" unicode="و" horiz-adv-x="982" d="M731 1013q32 0 59.5 -12t48 -32.5t32.5 -48.5t12 -60q-1 -24 -0.5 -64.5t0.5 -89.5q0 -48 0.5 -100t0 -97t-2 -79t-3.5 -48q-7 -210 -50.5 -348.5t-120.5 -220.5t-185 -115.5t-243 -33.5v248q149 0 230.5 57t100.5 175q-49 -7 -110 -12.5t-123.5 2t-121.5 32.5t-104 78 t-70 140t-19 217q0 85 32 160t87.5 131t130.5 88.5t160 32.5h259zM638 765q-42 0 -83 0.5t-83 0.5q-33 0 -62.5 -13.5t-52 -36t-35.5 -52.5t-13 -63q-4 -71 2.5 -117.5t26.5 -74t54 -39.5t84 -15q54 1 87 6t50.5 20.5t23.5 45t6 79.5z"/>
    <glyph glyph-name="alefmaksura" unicode="ى" horiz-adv-x="1148" d="M342 417q-20 -25 -33 -56t-17 -62.5t3 -61.5t27 -52.5t54.5 -35t85.5 -10.5h286q51 0 69 23t18 54q0 29 -10.5 49.5t-30 35.5t-47.5 26.5t-62 23.5q-56 19 -109.5 41t-95 58t-67 92t-25.5 143q0 100 35.5 171t93.5 116.5t131.5 66.5t148.5 21t150.5 -20.5t136.5 -53.5 l-120 -217q-38 20 -82.5 32t-86.5 12q-32 0 -61 -6.5t-51 -21.5t-35 -40.5t-13 -64.5q0 -19 11 -33t29 -24.5t40.5 -19t46.5 -16.5q36 -12 72 -25t69.5 -31.5t63.5 -44.5t55 -63q29 -45 45 -98.5t16 -107.5q0 -60 -20 -118.5t-62 -105t-106 -75t-151 -28.5l-282 2 q-117 0 -197.5 35t-129.5 91.5t-70.5 128.5t-21.5 147q0 42 6.5 72.5t17.5 57t25.5 51.5t30.5 56z"/>
    <glyph glyph-name="yeh" unicode="ي" horiz-adv-x="1148" d="M342 417q-20 -25 -33 -56t-17 -62.5t3 -61.5t27 -52.5t54.5 -35t85.5 -10.5h286q51 0 69 23t18 54q0 29 -10.5 49.5t-30 35.5t-47.5 26.5t-62 23.5q-56 19 -109.5 41t-95 58t-67 92t-25.5 143q0 100 35.5 171t93.5 116.5t131.5 66.5t148.5 21t150.5 -20.5t136.5 -53.5 l-120 -217q-38 20 -82.5 32t-86.5 12q-32 0 -61 -6.5t-51 -21.5t-35 -40.5t-13 -64.5q0 -19 11 -33t29 -24.5t40.5 -19t46.5 -16.5q36 -12 72 -25t69.5 -31.5t63.5 -44.5t55 -63q29 -45 45 -98.5t16 -107.5q0 -60 -20 -118.5t-62 -105t-106 -75t-151 -28.5l-282 2 q-117 0 -197.5 35t-129.5 91.5t-70.5 128.5t-21.5 147q0 42 6.5 72.5t17.5 57t25.5 51.5t30.5 56zM320 -350q0 28 10 52t28 42t42 28t51 10q28 0 52 -10t42 -28t28.5 -42t10.5 -52q0 -27 -10.5 -51t-28.5 -42t-42 -28.5t-52 -10.5q-27 0 -51 10.5t-42 28.5t-28 42t-10 51z M618 -350q0 28 10 52t28 42t42 28t51 10q28 0 52 -10t42 -28t28.5 -42t10.5 -52q0 -27 -10.5 -51t-28.5 -42t-42 -28.5t-52 -10.5q-27 0 -51 10.5t-42 28.5t-28 42t-10 51z"/>
    <glyph glyph-name="fathatan" unicode="ً" horiz-adv-x="408" d="M389 1675l-340 -193l17 91l340 193zM403 1842l-340 -193l17 91l340 193z"/>
    <glyph glyph-name="dammatan" unicode="ٌ" horiz-adv-x="469" d="M409 1632q-6 -14 -19.5 -33.5t-32 -40t-40.5 -39.5t-45.5 -31t-47.5 -15t-46 8t-24 31.5t3 42t10.5 42t-2 32t-34.5 10.5t-86 -20q19 27 44.5 43.5t50.5 22t47 -1t34 -24.5t10.5 -48t-23.5 -72q46 20 85.5 44t71.5 62q-41 10 -60.5 31.5t-22 47.5t8 53t30 49.5t44 36 t49.5 12.5q21 -2 28 -24.5t6.5 -51t-6 -55.5t-8.5 -37l38 -12l-17 -76zM388 1793q-10 10 -23 10q-14 1 -22.5 -8.5t-8.5 -21.5q-2 -11 3 -19t14 -14t20.5 -11.5t24.5 -11.5q2 19 2 35q0 14 -2.5 26.5t-7.5 16.5v-2z"/>
    <glyph glyph-name="kasratan" unicode="ٍ" horiz-adv-x="408" d="M405 -148l-340 -193l17 91l340 193zM378 -316l-340 -193l17 91l340 193z"/>
    <glyph glyph-name="fatha" unicode="َ" horiz-adv-x="408" d="M389 1675l-340 -193l17 91l340 193z"/>
    <glyph glyph-name="damma" unicode="ُ" horiz-adv-x="414" d="M366 1664q-11 -23 -37.5 -52.5t-62.5 -55t-78.5 -42.5t-85.5 -15q-29 2 -47.5 3t-28.5 2t-12.5 1.5t-0.5 1.5q61 25 105.5 43t79 36t62.5 39.5t56 54.5q-47 11 -69 34t-25.5 51t9 57.5t34 53.5t49.5 38.5t56 13.5q16 -1 25 -12.5t12.5 -29t2.5 -39t-3.5 -41.5t-6.5 -36.5 t-7 -24.5l44 -13l-19 -80zM341 1841q-5 6 -12 8t-12 2q-17 2 -27 -8.5t-11 -24.5q-2 -25 20 -37t51 -23q2 20 2 38q0 15 -2 28.5t-9 18.5v-2z"/>
    <glyph glyph-name="kasra" unicode="ِ" horiz-adv-x="408" d="M395 -148l-340 -193l17 91l340 193z"/>
    <glyph glyph-name="shadda" unicode="ّ" horiz-adv-x="425" d="M398 1823q11 -17 17.5 -36t11.5 -38q6 -33 3 -67t-15 -62t-33 -45.5t-51 -17.5q-25 0 -37.5 9t-27.5 23q-6 -10 -15 -23t-22 -25t-31 -21t-40 -11q-35 -3 -56 10t-31 35t-11.5 49.5t2 53.5t10.5 47.5t14 31.5q0 -3 5 1t11.5 9t11.5 8.5t5 0.5q-8 -20 -13.5 -46.5t-3 -50 t14 -39.5t37.5 -15q28 0 43.5 15.5t24 37t13 44.5t12.5 38q1 -3 5.5 0.5t9 8t9 8t5.5 0.5q-8 -29 -2.5 -54t19.5 -40t35.5 -18t46.5 14q6 9 5.5 22t-4.5 26.5t-11 27t-14 23.5q13 18 24.5 34t22.5 32z"/>
    <glyph glyph-name="sukun" unicode="ْ" horiz-adv-x="328" d="M347 1696q5 -34 -10 -71.5t-41 -87.5v1q0 1 1 2l-3 -5h1h-1q-24 -14 -61.5 -26.5t-74 -15t-65 11t-34.5 51.5q-5 33 3.5 75.5t27 81.5t46 67t59.5 33q28 4 54 -6.5t46.5 -28.5t34.5 -40.5t17 -41.5zM283 1628q-3 14 -13.5 30t-25 29.5t-31.5 22t-35 5.5q-30 -5 -44 -27 t-11 -45q3 -22 21 -32.5t42 -11t50 6.5t46 21zM295 1536h1h-1z"/>
    <glyph glyph-name="arabicindicdigitzero" unicode="٠" horiz-adv-x="1149" d="M765 748l-99 -342l-281 168l99 347z"/>
    <glyph glyph-name="arabicindicdigitone" unicode="١" horiz-adv-x="1149" d="M780 390q0 -324 -72 -324q-15 0 -30.5 42t-32.5 114.5t-36 169t-40 205.5q-33 99 -82.5 204t-117.5 219v18q0 9 6 34.5t15.5 58.5t21.5 69.5t24.5 66.5t24 49.5t20.5 19.5q25 0 64 -66q117 -199 176.5 -417.5t58.5 -462.5z"/>
    <glyph glyph-name="arabicindicdigittwo" unicode="٢" horiz-adv-x="1149" d="M922 1221q0 -385 -254 -428l-8 -5q38 -115 56 -237.5t18 -254.5q0 -224 -66 -224q-26 9 -39 23.5t-20 39t-12 60.5t-15 88q-86 389 -240 658q1 -1 -7.5 11t-21 30.5t-27.5 41t-28.5 42t-22 33.5t-8.5 15q0 4 7.5 20t19 37.5t25.5 46.5t27.5 47t24.5 38.5t16 21.5 q9 -1 26.5 -14.5t38.5 -33t43.5 -42t41.5 -42.5t31.5 -34t14.5 -16h50q46 0 78 4t58 18.5t50 42t54 75.5q28 42 63 42q16 0 21 -30.5t5 -73.5z"/>
    <glyph glyph-name="arabicindicdigitthree" unicode="٣" horiz-adv-x="1149" d="M1055 1199q0 -66 -17.5 -131.5t-47.5 -117t-70.5 -84t-86.5 -32.5q-19 0 -50.5 9t-61.5 20q-35 12 -74 29q-38 -33 -80 -61t-89 -51q60 -248 60 -468q0 -246 -76 -246q-24 0 -38.5 26t-23.5 70t-14.5 102t-12.5 121q-3 25 -14 68t-28 95t-38.5 109t-43.5 111t-44 100.5 t-40 77.5q-14 19 -26.5 39t-22.5 37t-16 28t-6 13q0 3 9.5 20t24 40t31.5 49.5t32.5 49.5t27.5 38.5t16 17.5q39 -41 75 -78t67 -65t57 -44.5t44 -16.5q57 0 136 123q81 122 102 122q17 0 29 -8l15 -26q12 -83 20 -101q24 -47 97 -47q33 0 66 73q35 73 67 73q45 0 45 -84z "/>
    <glyph glyph-name="arabicindicdigitfour" unicode="٤" horiz-adv-x="1149" d="M864 339q0 -34 -86 -262h-21q-127 0 -279 61q-182 74 -182 182q0 72 75 185q5 7 35.5 47.5t87.5 115.5q-1 3 -28 21t-62 44t-69 55.5t-50 55.5v51q0 128 147 295q153 172 287 172l-38 -245q-28 -5 -58.5 -13.5t-55.5 -19.5t-41 -23.5t-16 -24.5q0 -23 109 -74 q60 -29 93 -47t38 -26q12 -17 12 -32q0 -43 -28 -91.5t-84 -105.5q-61 -62 -94 -108t-41 -75q30 -19 69.5 -35t84 -31t92.5 -29l96 -28q7 0 7 -15z"/>
    <glyph glyph-name="arabicindicdigitfive" unicode="٥" horiz-adv-x="1149" d="M494 258q-272 0 -272 276q0 81 27.5 179t84.5 213q129 265 272 265q50 0 101 -39t111 -119q55 -75 84.5 -134.5t27.5 -110.5q0 -139 -26 -239.5t-80 -165t-136 -95t-194 -30.5zM778 620q-149 271 -281 272q-17 -16 -34.5 -44t-32 -60.5t-23.5 -64t-9 -53.5 q0 -117 179 -117q143 0 201 67z"/>
    <glyph glyph-name="arabicindicdigitsix" unicode="٦" horiz-adv-x="1149" d="M959 339q0 -11 -4.5 -35.5t-12 -54t-17.5 -61t-20 -57.5t-20 -42.5t-18 -16.5q-70 0 -151 198q-71 175 -71 261v249q0 26 10 85q-65 -5 -108 -7.5t-66 -2.5q-292 0 -292 188q0 26 11.5 80t37.5 137q194 -100 328 -100q19 0 52 6t69 12.5t68 12.5t49 6q2 -8 4 -15.5 t2 -16.5q0 -13 -2.5 -36t-7 -51.5t-9 -59.5t-9 -60t-7 -52.5t-2.5 -37.5q0 -291 183 -508q3 -9 3 -21z"/>
    <glyph glyph-name="arabicindicdigitseven" unicode="٧" horiz-adv-x="1149" d="M1040 1079l-3 -43q-118 -172 -207.5 -366t-150.5 -415q-54 -183 -91 -183q-16 0 -34.5 34.5t-40 93t-47 135.5t-55.5 162q-69 181 -187 347q-1 4 -18 21.5t-46 52.5q-26 32 -38 50t-12 20q0 8 7 29t18 48.5t25 57.5t27.5 56.5t25 46t17.5 24.5q85 -31 219 -332 q43 -100 83 -201t82 -202q4 12 16 43t27 71.5t32 86t32.5 86t27 71.5t16.5 43q90 232 224 362h18q16 -50 24.5 -94t8.5 -83v-22z"/>
    <glyph glyph-name="arabicindicdigiteight" unicode="٨" horiz-adv-x="1149" d="M1032 347q0 -7 -6.5 -29t-17.5 -51.5t-24 -62t-26 -59.5t-24 -45t-18 -18q-96 0 -373 724l-8 -5q-38 -103 -76.5 -205t-76.5 -203q-123 -287 -227 -347q-11 14 -18 41t-11 63t-6 79t-3 88q63 60 118.5 148.5t106.5 207.5q18 47 51.5 148.5t82.5 260.5q54 168 93 168 q16 0 34 -31.5t38.5 -84.5t44.5 -122t52 -143.5t62 -149.5t74 -140q-2 3 9 -13.5t28.5 -42.5t38.5 -57.5t39.5 -58.5t30.5 -44.5t12 -15.5z"/>
    <glyph glyph-name="arabicindicdigitnine" unicode="٩" horiz-adv-x="1149" d="M943 320q0 -13 -4 -35.5t-10.5 -50.5t-15 -57.5t-17.5 -57.5t-17.5 -50.5t-14.5 -35.5h-20q-93 88 -150 268q-3 5 -21.5 81t-55.5 225q-206 0 -308.5 56t-102.5 179q0 129 110 314q119 206 240 206q49 0 86 -25t64.5 -85.5t47 -162t34.5 -253.5q12 -121 25.5 -197 t25.5 -108q29 -61 52 -109q10 -20 19 -39t16.5 -33.5t12 -23t4.5 -6.5zM596 903q-13 37 -22.5 68t-20 54t-22.5 36t-29 13q-53 0 -89 -102q54 -37 99 -53t84 -16z"/>
    <glyph glyph-name="arabicpercentsign" unicode="٪" horiz-adv-x="829" d="M719 1446l-419 -1391l-238 -127l418 1391zM640 361q28 0 53 -11t43.5 -29.5t29.5 -44t11 -53.5t-11 -53t-29.5 -43.5t-43.5 -29t-53 -10.5t-52.5 10.5t-43 29t-29 43.5t-10.5 53t10.5 53.5t29 44t43 29.5t52.5 11zM147 1265q28 0 53 -10.5t43.5 -29t29 -43.5t10.5 -53 t-10.5 -53t-29 -43.5t-43.5 -29.5t-53 -11t-53 11t-43.5 29.5t-29.5 43.5t-11 53t11 53t29.5 43.5t43.5 29t53 10.5z"/>
    <glyph glyph-name="arabicfivepointedstar" unicode="٭" horiz-adv-x="815" d="M374 1445h68l17 -213l163 139l49 -49l-140 -162l214 -18v-68l-214 -17l140 -163l-49 -48l-163 139l-17 -214h-68l-17 214l-164 -139l-47 48l139 163l-214 17v68l214 18l-139 162l47 49l164 -139z"/>
    <glyph glyph-name="bullet-def" unicode="۹" horiz-adv-x="1033" d="M93 1109h934v-934h-934v934zM223 304h675v675h-675v-675z"/>
    <glyph glyph-name="zeronojoin" unicode="‌" horiz-adv-x="45" d="M35 -80h-25v1631h25v-1631z"/>
    <glyph glyph-name="zerojoin" unicode="‍" horiz-adv-x="45" d="M148 1427l-16 -16l-97 96v-1587h-25v1586l-96 -95l-16 16l109 109l-109 108l16 16l109 -108l109 108l16 -16l-109 -108z"/>
    <glyph glyph-name="lefttoright" unicode="‎" horiz-adv-x="45" d="M291 1537q-32 -33 -62.5 -63.5l-62.5 -62.5l-17 17l97 97h-213v-1605h-25v1631h234l-93 93l17 17z"/>
    <glyph glyph-name="righttoleft" unicode="‏" horiz-adv-x="45" d="M37 -80h-25v1605h-213l97 -97l-17 -17q-32 32 -62.5 63t-62.5 63l125 124l17 -17l-93 -93h234v-1631z"/>
    <glyph glyph-name="endash" unicode="–" horiz-adv-x="991" d="M0 745h990v-192h-990v192z"/>
    <glyph glyph-name="quotedash" unicode="—" horiz-adv-x="1782" d="M0 745h1782v-192h-1782v192z"/>
    <glyph glyph-name="quoteleft" unicode="‘" horiz-adv-x="390" d="M251 1541l11 -384q0 -19 -10.5 -33t-27 -23t-37 -13.5t-39.5 -4.5l-68 363q0 19 7.5 36.5t20 30.5t29.5 20.5t37 7.5h77z"/>
    <glyph glyph-name="quoteright" unicode="’" horiz-adv-x="390" d="M191 1541q20 0 37 -7.5t30 -20.5t20 -30.5t7 -36.5l-68 -363q-19 0 -39 4.5t-36.5 13.5t-27 23t-10.5 33l10 384h77z"/>
    <glyph glyph-name="quotesinglbase" unicode="‚" horiz-adv-x="495" d="M123 150v226h249v-169q0 -134 -59.5 -210.5t-183.5 -102.5v90q79 24 107 72q18 33 24 94h-137z"/>
    <glyph glyph-name="quotedblleft" unicode="“" horiz-adv-x="620" d="M501 1541l11 -384q0 -19 -10.5 -33t-27 -23t-37 -13.5t-39.5 -4.5l-68 363q0 19 7.5 36.5t20 30.5t29.5 20.5t37 7.5h77zM251 1541l11 -384q0 -19 -10.5 -33t-27 -23t-37 -13.5t-39.5 -4.5l-68 363q0 19 7.5 36.5t20 30.5t29.5 20.5t37 7.5h77z"/>
    <glyph glyph-name="quotedblright" unicode="”" horiz-adv-x="620" d="M441 1541q19 0 36.5 -7.5t30 -20.5t20 -30.5t7.5 -36.5l-68 -363q-19 0 -39.5 4.5t-37 13.5t-27 23t-10.5 33l11 384h77zM191 1541q19 0 36.5 -7.5t30 -20.5t20 -30.5t7.5 -36.5l-68 -363q-20 0 -40 4.5t-36 13.5t-26.5 23t-10.5 33l10 384h77z"/>
    <glyph glyph-name="bullet" unicode="•" horiz-adv-x="613" d="M303 820q127 0 215 -88t88 -217q0 -127 -88 -214.5t-215 -87.5q-128 0 -216 87.5t-88 214.5q0 129 88 217t216 88z"/>
    <glyph glyph-name="trademark" unicode="™" horiz-adv-x="1782" d="M1013 700h-187v729h271l170 -605l165 605h271v-729h-187v664l-176 -664h-150l-177 661v-661zM283 700v576h-205v153h610v-153h-205v-576h-200z"/>
    <glyph glyph-name="fathalow" unicode="" d="M401 1225l-340 -193l17 91l340 193z"/>
    <glyph glyph-name="dammalow" unicode="" d="M346 1204q-11 -23 -37.5 -52.5t-62.5 -55t-78.5 -42.5t-85.5 -15q-29 2 -47.5 3t-28.5 2t-12.5 1.5t-0.5 1.5q61 25 105.5 43t79 36t62.5 39.5t56 54.5q-47 11 -69 34t-25.5 51t9 57.5t34 53.5t49.5 38.5t56 13.5q16 -1 25 -12.5t12.5 -29t2.5 -39t-3.5 -41.5t-6.5 -36.5 t-7 -24.5l44 -13l-19 -80zM321 1381q-5 6 -12 8t-12 2q-17 2 -27 -8.5t-11 -24.5q-2 -25 20 -37t51 -23q2 20 2 38q0 15 -2 28.5t-9 18.5v-2z"/>
    <glyph glyph-name="sukunlow" unicode="" d="M344 1249q5 -34 -10 -71.5t-41 -87.5v1q0 1 1 2l-3 -5h1h-1q-24 -14 -61.5 -26.5t-74 -15t-65 11t-34.5 51.5q-5 33 3.5 75.5t27 81.5t46 67t59.5 33q28 4 54 -6.5t46.5 -28.5t34.5 -40.5t17 -41.5zM280 1181q-3 14 -13.5 30t-25 29.5t-31.5 22t-35 5.5q-30 -5 -44 -27 t-11 -45q3 -22 21 -32.5t42 -11t50 6.5t46 21zM292 1089h1h-1z"/>
    <glyph glyph-name="fathatanlow" unicode="" d="M391 1222l-340 -193l17 91l340 193zM405 1389l-340 -193l17 91l340 193z"/>
    <glyph glyph-name="dammatanlow" unicode="" d="M408 1207q-6 -14 -19.5 -33.5t-32 -40t-40.5 -39.5t-45.5 -31t-47.5 -15t-46 8t-24 31.5t3 42t10.5 42t-2 32t-34.5 10.5t-86 -20q19 27 44.5 43.5t50.5 22t47 -1t34 -24.5t10.5 -48t-23.5 -72q46 20 85.5 44t71.5 62q-41 10 -60.5 31.5t-22 47.5t8 53t30 49.5t44 36 t49.5 12.5q21 -2 28 -24.5t6.5 -51t-6 -55.5t-8.5 -37l38 -12l-17 -76zM387 1368q-10 10 -23 10q-14 1 -22.5 -8.5t-8.5 -21.5q-2 -11 3 -19t14 -14t20.5 -11.5t24.5 -11.5q2 19 2 35q0 14 -2.5 26.5t-7.5 16.5v-2z"/>
    <glyph glyph-name="shaddalow" unicode="" d="M396 1364q11 -17 17.5 -36t11.5 -38q6 -33 3 -67t-15 -62t-33 -45.5t-51 -17.5q-25 0 -37.5 9t-27.5 23q-6 -10 -15 -23t-22 -25t-31 -21t-40 -11q-35 -3 -56 10t-31 35t-11.5 49.5t2 53.5t10.5 47.5t14 31.5q0 -3 5 1t11.5 9t11.5 8.5t5 0.5q-8 -20 -13.5 -46.5t-3 -50 t14 -39.5t37.5 -15q28 0 43.5 15.5t24 37t13 44.5t12.5 38q1 -3 5.5 0.5t9 8t9 8t5.5 0.5q-8 -29 -2.5 -54t19.5 -40t35.5 -18t46.5 14q6 9 5.5 22t-4.5 26.5t-11 27t-14 23.5q13 18 24.5 34t22.5 32z"/>
    <glyph glyph-name="kasralow" unicode="" d="M395 -148l-340 -193l17 91l340 193z"/>
    <glyph glyph-name="kasratanlow" unicode="" d="M405 -148l-340 -193l17 91l340 193zM378 -316l-340 -193l17 91l340 193z"/>
    <glyph glyph-name="shaddawithfathaisolatedlow" unicode="" d="M397 1372q5 -8 5.5 -12.5t-0.5 -8.5t-1.5 -8.5t3.5 -13.5q12 -32 14.5 -66t-5 -63.5t-25.5 -50.5t-47 -26q-25 -4 -39 3t-31 18q-4 -11 -10.5 -25.5t-18 -28.5t-27 -25.5t-37.5 -16.5q-34 -9 -56 -3.5t-35 20t-17.5 35t-4.5 40.5q0 21 4.5 39.5t9.5 29.5q0 -3 4.5 1.5 t9.5 10.5t10 10.5t5 1.5q-5 -21 -7 -40t2 -32.5t17 -19t38 -0.5q28 5 41 23t17.5 40.5t5.5 46t6 39.5q1 -3 4.5 1t7.5 9t8 9.5t6 1.5q-3 -30 6.5 -54t26 -36.5t38 -11.5t42.5 21q4 10 2 23t-8.5 25.5t-15.5 24.5t-18 21q5 10 14.5 15.5t20 10t20 9.5t15.5 13zM400 1452 l-340 -193l17 91l340 193z"/>
    <glyph glyph-name="shaddawithdammaisolatedlow" unicode="" d="M381 1402q13 -15 22.5 -33t17.5 -36q11 -32 13 -66t-6 -63.5t-26.5 -50t-47.5 -24.5q-25 -4 -38.5 3t-30.5 19q-4 -11 -11 -25t-18.5 -28t-27.5 -25.5t-38 -16.5q-34 -8 -56.5 1.5t-36 29.5t-19 47.5t-6 54t3.5 48.5t9 33q0 -3 5 1.5t10.5 10.5t10 10t4.5 1 q-5 -21 -6.5 -47.5t4 -49.5t19.5 -37.5t40 -9.5q28 5 41 23t18 40.5t6.5 45.5t6.5 39q1 -3 4.5 1t8 9t8 9.5t5.5 1.5q-3 -30 6 -54t25.5 -37t38 -12.5t43.5 20.5q4 10 2 23t-8.5 26t-15 25t-17.5 21q11 20 19.5 37.5t17.5 34.5zM356 1471q-11 -18 -37 -41t-61.5 -43.5 t-76.5 -34t-83 -11.5q-57 4 -75 4q-17 0 -12 2q60 20 103 34t77 28t61.5 31t54.5 43q-46 8 -67.5 26.5t-25 40.5t8.5 45t33 42t48.5 30.5t55.5 10.5q23 -1 31 -20t7.5 -43.5t-6.5 -47.5t-10 -33l43 -10l-19 -63zM331 1610q-5 5 -11.5 6.5t-11.5 1.5q-17 1 -26.5 -7 t-10.5 -19q-2 -20 19 -29.5t50 -17.5q2 16 2 30q0 11 -2 22t-9 14v-1z"/>
    <glyph glyph-name="shaddawithfathatanisolatedlow" unicode="" d="M425 1277q0 -76 -29.5 -121t-75.5 -45q-21 0 -64 21q-38 -87 -108 -87q-78 0 -78 109q0 29 22 101l23 4q0 -111 39 -111q29 0 57.5 48t32.5 114l19 6q24 -98 61 -98q24 0 44 42.5t20 104.5l22 11q15 -51 15 -99zM412 1701q0 -47 -8 -65t-41 -37l-289 -166q0 45 12 65 t54 44zM412 1550q0 -47 -8 -64.5t-41 -36.5l-289 -166q0 45 12 65q12 17 54 42z"/>
    <glyph glyph-name="shaddawithdammatanisolatedlow" unicode="" d="M422 1486q-7 -12 -21 -28.5t-33 -34t-42 -33t-48 -26t-50 -13t-48 6.5q-23 10 -25 27t3 36t11 36t-2 26.5t-36 9t-91 -17.5q20 23 46.5 37.5t53 18.5t49.5 -1.5t35.5 -20.5t11 -40.5t-24.5 -61.5q48 17 89.5 38t75.5 53q-43 9 -63 27t-23.5 40t8 45t31.5 41.5t46 30 t52 10.5q22 -2 29.5 -21t7 -43t-6 -46.5t-9.5 -31.5l40 -10l-18 -65zM393 1404q13 -15 22.5 -33t17.5 -36q11 -32 13 -66t-6 -63.5t-26.5 -50t-47.5 -24.5q-25 -4 -38.5 3t-30.5 19q-4 -11 -11 -25t-18.5 -28t-27.5 -25.5t-38 -16.5q-34 -8 -56.5 1.5t-36 29.5t-19 46.5 t-6 53t3.5 49t9 33.5q1 -2 5.5 3t10 10.5t10 9.5t4.5 1q-5 -21 -6.5 -47.5t4 -49.5t19.5 -37.5t40 -9.5q28 5 41 23t18 40.5t6.5 45.5t6.5 39q1 -3 4.5 1t8 9t8 9.5t5.5 1.5q-3 -30 6 -54t25.5 -37t38 -12.5t43.5 20.5q4 10 2 23t-8.5 26t-15 25t-17.5 21q11 20 19.5 37.5 t17.5 34.5zM400 1623q-5 5 -12 6.5t-12 1.5q-14 1 -23.5 -7t-9.5 -18q-2 -10 3.5 -16.5t14.5 -11.5t21.5 -9.5t25.5 -9.5q2 17 2 30q0 11 -2 21.5t-8 14.5v-2z"/>
    <glyph glyph-name="shaddawithkasraisolatedlow" unicode="" d="M375 1606q12 -15 21.5 -33.5t16.5 -36.5q10 -32 11 -66t-7.5 -63t-27.5 -49t-48 -24q-25 -3 -38.5 4t-30.5 20q-4 -11 -11.5 -25t-19 -27.5t-28 -24.5t-38.5 -16q-34 -7 -56.5 3t-35 31t-17.5 48t-4.5 53.5t4.5 49t10 32.5q0 -3 4.5 1.5l10.5 10.5t10.5 10t4.5 1 q-6 -21 -8 -48t3 -50t18.5 -37.5t39.5 -10.5q29 4 42.5 21t19 39.5t7 46t7.5 39.5q1 -3 5 0.5t8.5 9t8 9.5t5.5 1q-4 -29 4 -53.5t24 -38t37 -13.5q22 0 45 20q5 10 3 22.5t-8 25.5t-14.5 25.5t-16.5 21.5q11 20 20 37t19 34zM412 1224l-340 -193l17 91l340 193z"/>
    <glyph glyph-name="shaddawithkasratanisolatedlow" unicode="" d="M374 1619q12 -15 21.5 -33.5t16.5 -36.5q10 -32 11 -66t-7.5 -63t-27.5 -49t-48 -24q-25 -3 -38.5 4t-30.5 20q-4 -11 -11.5 -25t-19 -27.5t-28 -24.5t-38.5 -16q-34 -7 -56.5 3t-35 31t-17.5 48t-4.5 53.5t5 49t9.5 32.5q0 -3 4.5 1.5l10.5 10.5t10.5 10t4.5 1 q-6 -21 -8 -48t3 -50t18.5 -37.5t39.5 -10.5q29 4 42.5 21t19 39.5t7 46t7.5 39.5q1 -3 5 0.5t8.5 9t8 9.5t5.5 1q-4 -29 4 -53.5t24 -38t37 -13.5q22 0 45 20q5 10 3 22.5t-8 25.5t-14.5 25.5t-16.5 21.5q11 20 20 37t19 34zM385 1148l-350 -141l33 75l350 141zM395 1253 l-350 -141l33 75l350 141z"/>
    <glyph glyph-name="fathaonhamza" unicode="" d="M394 1426q-97 -51 -192 -101.5t-192 -102.5q5 23 8 38.5t7 38.5q99 52 191.5 101.5t191.5 102.5z"/>
    <glyph glyph-name="fathatanonhamza" unicode="" d="M389 1171q-97 -51 -192 -101.5t-192 -102.5q5 23 8 38.5t7 38.5q99 52 191.5 101.5t191.5 102.5z"/>
    <glyph glyph-name="sukunonhamza" unicode="" d="M268 1588q6 -33 -11 -74t-44 -93q-14 -8 -32.5 -16t-39.5 -15t-43 -11t-42 -4q-32 0 -57.5 14t-30.5 48q-5 35 4 80.5t28.5 86.5t48 71.5t62.5 35.5q28 4 55 -6.5t48.5 -29.5t36 -42.5t17.5 -44.5zM218 1512q-4 17 -17 37.5t-31 38t-39 27.5t-42 7q-19 -3 -33 -12.5 t-23 -22t-12 -27.5t-1 -29q5 -30 29.5 -43.5t56.5 -13.5z"/>
    <glyph glyph-name="dammaonhamza" unicode="" d="M365 1288q11 -17 17.5 -36t11.5 -38q6 -33 3 -67t-15 -62t-33 -45.5t-51 -17.5q-25 0 -37.5 9t-27.5 23q-6 -10 -15 -23t-22 -25t-31 -21t-40 -11q-35 -3 -56 10t-31 35t-11.5 49.5t2 53.5t10.5 47.5t14 31.5q0 -3 5 1t11.5 9t11.5 8.5t5 0.5q-8 -20 -13.5 -46.5t-3 -50 t14 -39.5t37.5 -15q28 0 43.5 15.5t24 37t13 44.5t12.5 38q1 -3 5.5 0.5t9 8t9 8t5.5 0.5q-8 -29 -2.5 -54t19.5 -40t35.5 -18t46.5 14q6 9 5.5 22t-4.5 26.5t-11 27t-14 23.5q13 18 24.5 34t22.5 32z"/>
    <glyph glyph-name="dammatanonhamza" unicode="" d="M297 1715q11 -17 17.5 -36t11.5 -38q6 -33 3 -67t-15 -62t-33 -45.5t-51 -17.5q-25 0 -37.5 9t-27.5 23q-6 -10 -15 -23t-22 -25t-31 -21t-40 -11q-35 -3 -56 10t-31 35t-11.5 49.5t2 53.5t10.5 47.5t14 31.5q0 -3 5 1t11.5 9t11.5 8.5t5 0.5q-8 -20 -13.5 -46.5t-3 -50 t14 -39.5t37.5 -15q28 0 43.5 15.5t24 37t13 44.5t12.5 38q1 -3 5.5 0.5t9 8t9 8t5.5 0.5q-8 -29 -2.5 -54t19.5 -40t35.5 -18t46.5 14q6 9 5.5 22t-4.5 26.5t-11 27t-14 23.5q13 18 24.5 34t22.5 32z"/>
    <glyph glyph-name="ornateleftparenthesis" unicode="﴾" horiz-adv-x="593" d="M112 -52v1640h439v-172h-216v-1297h216v-171h-439z"/>
    <glyph glyph-name="ornaterightparenthesis" unicode="﴿" horiz-adv-x="593" d="M481 -52h-438v171h215v1297h-215v172h438v-1640z"/>
    <glyph glyph-name="zerowidthnobreakspace" unicode="﻿" horiz-adv-x="744"/>
  </font>
</defs>
</svg>
